<mxfile host="app.diagrams.net" modified="2022-11-29T07:52:54.479Z" agent="5.0 (Windows NT 10.0; Win64; x64) AppleWebKit/537.36 (KHTML, like Gecko) Chrome/98.0.4758.81 Safari/537.36" etag="fQEbbmZDuuNLBWxCKAu4" version="20.6.0" type="github">
  <diagram id="bIS1iyJhP2uXK2yJVhHy" name="第 1 页">
    <mxGraphModel dx="1182" dy="764" grid="1" gridSize="10" guides="1" tooltips="1" connect="1" arrows="1" fold="1" page="1" pageScale="1" pageWidth="3000" pageHeight="3000" math="0" shadow="0">
      <root>
        <mxCell id="0" />
        <mxCell id="1" parent="0" />
        <object label="notification_mode" tooltip="普通表" tags="通知模式表" id="3OG4NW8DKBGacQzqwBZW-1">
          <mxCell style="shape=table;startSize=30;container=1;collapsible=1;childLayout=tableLayout;fixedRows=1;rowLines=0;fontStyle=1;align=center;resizeLast=1;" vertex="1" parent="1">
            <mxGeometry x="40" y="40" width="470" height="320" as="geometry">
              <mxRectangle x="40" y="40" width="120" height="30" as="alternateBounds" />
            </mxGeometry>
          </mxCell>
        </object>
        <mxCell id="3OG4NW8DKBGacQzqwBZW-2" value="" style="shape=tableRow;horizontal=0;startSize=0;swimlaneHead=0;swimlaneBody=0;fillColor=none;collapsible=0;dropTarget=0;points=[[0,0.5],[1,0.5]];portConstraint=eastwest;top=0;left=0;right=0;bottom=1;" vertex="1" parent="3OG4NW8DKBGacQzqwBZW-1">
          <mxGeometry y="30" width="470" height="50" as="geometry" />
        </mxCell>
        <mxCell id="3OG4NW8DKBGacQzqwBZW-3" value="PK" style="shape=partialRectangle;connectable=0;fillColor=none;top=0;left=0;bottom=0;right=0;fontStyle=1;overflow=hidden;" vertex="1" parent="3OG4NW8DKBGacQzqwBZW-2">
          <mxGeometry width="30" height="50" as="geometry">
            <mxRectangle width="30" height="50" as="alternateBounds" />
          </mxGeometry>
        </mxCell>
        <mxCell id="3OG4NW8DKBGacQzqwBZW-4" value="notify_id" style="shape=partialRectangle;connectable=0;fillColor=none;top=0;left=0;bottom=0;right=0;align=left;spacingLeft=6;fontStyle=5;overflow=hidden;" vertex="1" parent="3OG4NW8DKBGacQzqwBZW-2">
          <mxGeometry x="30" width="110" height="50" as="geometry">
            <mxRectangle width="110" height="50" as="alternateBounds" />
          </mxGeometry>
        </mxCell>
        <mxCell id="3OG4NW8DKBGacQzqwBZW-5" value="bigint&#xa;not null&#xa;auto_increment" style="shape=partialRectangle;connectable=0;fillColor=none;top=0;left=0;bottom=0;right=0;align=left;spacingLeft=6;fontStyle=5;overflow=hidden;" vertex="1" parent="3OG4NW8DKBGacQzqwBZW-2">
          <mxGeometry x="140" width="200" height="50" as="geometry">
            <mxRectangle width="200" height="50" as="alternateBounds" />
          </mxGeometry>
        </mxCell>
        <mxCell id="3OG4NW8DKBGacQzqwBZW-6" value="通知模式ID" style="shape=partialRectangle;connectable=0;fillColor=none;top=0;left=0;bottom=0;right=0;align=left;spacingLeft=6;fontStyle=5;overflow=hidden;" vertex="1" parent="3OG4NW8DKBGacQzqwBZW-2">
          <mxGeometry x="340" width="130" height="50" as="geometry">
            <mxRectangle width="130" height="50" as="alternateBounds" />
          </mxGeometry>
        </mxCell>
        <mxCell id="3OG4NW8DKBGacQzqwBZW-7" value="" style="shape=tableRow;horizontal=0;startSize=0;swimlaneHead=0;swimlaneBody=0;fillColor=none;collapsible=0;dropTarget=0;points=[[0,0.5],[1,0.5]];portConstraint=eastwest;top=0;left=0;right=0;bottom=0;" vertex="1" parent="3OG4NW8DKBGacQzqwBZW-1">
          <mxGeometry y="80" width="470" height="30" as="geometry" />
        </mxCell>
        <mxCell id="3OG4NW8DKBGacQzqwBZW-8" value="" style="shape=partialRectangle;connectable=0;fillColor=none;top=0;left=0;bottom=0;right=0;editable=1;overflow=hidden;" vertex="1" parent="3OG4NW8DKBGacQzqwBZW-7">
          <mxGeometry width="30" height="30" as="geometry">
            <mxRectangle width="30" height="30" as="alternateBounds" />
          </mxGeometry>
        </mxCell>
        <mxCell id="3OG4NW8DKBGacQzqwBZW-9" value="NAME" style="shape=partialRectangle;connectable=0;fillColor=none;top=0;left=0;bottom=0;right=0;align=left;spacingLeft=6;overflow=hidden;" vertex="1" parent="3OG4NW8DKBGacQzqwBZW-7">
          <mxGeometry x="30" width="110" height="30" as="geometry">
            <mxRectangle width="110" height="30" as="alternateBounds" />
          </mxGeometry>
        </mxCell>
        <mxCell id="3OG4NW8DKBGacQzqwBZW-10" value="varchar(20)" style="shape=partialRectangle;connectable=0;fillColor=none;top=0;left=0;bottom=0;right=0;align=left;spacingLeft=6;overflow=hidden;" vertex="1" parent="3OG4NW8DKBGacQzqwBZW-7">
          <mxGeometry x="140" width="200" height="30" as="geometry">
            <mxRectangle width="200" height="30" as="alternateBounds" />
          </mxGeometry>
        </mxCell>
        <mxCell id="3OG4NW8DKBGacQzqwBZW-11" value="通知模式名称" style="shape=partialRectangle;connectable=0;fillColor=none;top=0;left=0;bottom=0;right=0;align=left;spacingLeft=6;overflow=hidden;" vertex="1" parent="3OG4NW8DKBGacQzqwBZW-7">
          <mxGeometry x="340" width="130" height="30" as="geometry">
            <mxRectangle width="130" height="30" as="alternateBounds" />
          </mxGeometry>
        </mxCell>
        <mxCell id="3OG4NW8DKBGacQzqwBZW-12" value="" style="shape=tableRow;horizontal=0;startSize=0;swimlaneHead=0;swimlaneBody=0;fillColor=none;collapsible=0;dropTarget=0;points=[[0,0.5],[1,0.5]];portConstraint=eastwest;top=0;left=0;right=0;bottom=0;" vertex="1" parent="3OG4NW8DKBGacQzqwBZW-1">
          <mxGeometry y="110" width="470" height="30" as="geometry" />
        </mxCell>
        <mxCell id="3OG4NW8DKBGacQzqwBZW-13" value="" style="shape=partialRectangle;connectable=0;fillColor=none;top=0;left=0;bottom=0;right=0;editable=1;overflow=hidden;" vertex="1" parent="3OG4NW8DKBGacQzqwBZW-12">
          <mxGeometry width="30" height="30" as="geometry">
            <mxRectangle width="30" height="30" as="alternateBounds" />
          </mxGeometry>
        </mxCell>
        <mxCell id="3OG4NW8DKBGacQzqwBZW-14" value="used" style="shape=partialRectangle;connectable=0;fillColor=none;top=0;left=0;bottom=0;right=0;align=left;spacingLeft=6;overflow=hidden;" vertex="1" parent="3OG4NW8DKBGacQzqwBZW-12">
          <mxGeometry x="30" width="110" height="30" as="geometry">
            <mxRectangle width="110" height="30" as="alternateBounds" />
          </mxGeometry>
        </mxCell>
        <mxCell id="3OG4NW8DKBGacQzqwBZW-15" value="varchar(1)" style="shape=partialRectangle;connectable=0;fillColor=none;top=0;left=0;bottom=0;right=0;align=left;spacingLeft=6;overflow=hidden;" vertex="1" parent="3OG4NW8DKBGacQzqwBZW-12">
          <mxGeometry x="140" width="200" height="30" as="geometry">
            <mxRectangle width="200" height="30" as="alternateBounds" />
          </mxGeometry>
        </mxCell>
        <mxCell id="3OG4NW8DKBGacQzqwBZW-16" value="是否启用该通知模式" style="shape=partialRectangle;connectable=0;fillColor=none;top=0;left=0;bottom=0;right=0;align=left;spacingLeft=6;overflow=hidden;" vertex="1" parent="3OG4NW8DKBGacQzqwBZW-12">
          <mxGeometry x="340" width="130" height="30" as="geometry">
            <mxRectangle width="130" height="30" as="alternateBounds" />
          </mxGeometry>
        </mxCell>
        <mxCell id="3OG4NW8DKBGacQzqwBZW-22" style="shape=tableRow;horizontal=0;startSize=0;swimlaneHead=0;swimlaneBody=0;fillColor=none;collapsible=0;dropTarget=0;points=[[0,0.5],[1,0.5]];portConstraint=eastwest;top=0;left=0;right=0;bottom=0;" vertex="1" parent="3OG4NW8DKBGacQzqwBZW-1">
          <mxGeometry y="140" width="470" height="30" as="geometry" />
        </mxCell>
        <mxCell id="3OG4NW8DKBGacQzqwBZW-23" style="shape=partialRectangle;connectable=0;fillColor=none;top=0;left=0;bottom=0;right=0;editable=1;overflow=hidden;" vertex="1" parent="3OG4NW8DKBGacQzqwBZW-22">
          <mxGeometry width="30" height="30" as="geometry">
            <mxRectangle width="30" height="30" as="alternateBounds" />
          </mxGeometry>
        </mxCell>
        <mxCell id="3OG4NW8DKBGacQzqwBZW-24" value="created" style="shape=partialRectangle;connectable=0;fillColor=none;top=0;left=0;bottom=0;right=0;align=left;spacingLeft=6;overflow=hidden;" vertex="1" parent="3OG4NW8DKBGacQzqwBZW-22">
          <mxGeometry x="30" width="110" height="30" as="geometry">
            <mxRectangle width="110" height="30" as="alternateBounds" />
          </mxGeometry>
        </mxCell>
        <mxCell id="3OG4NW8DKBGacQzqwBZW-25" value="DATETIME&#xa;DEFAULT CURRENT_TIMESTAMP" style="shape=partialRectangle;connectable=0;fillColor=none;top=0;left=0;bottom=0;right=0;align=left;spacingLeft=6;overflow=hidden;" vertex="1" parent="3OG4NW8DKBGacQzqwBZW-22">
          <mxGeometry x="140" width="200" height="30" as="geometry">
            <mxRectangle width="200" height="30" as="alternateBounds" />
          </mxGeometry>
        </mxCell>
        <mxCell id="3OG4NW8DKBGacQzqwBZW-26" value="创建时间" style="shape=partialRectangle;connectable=0;fillColor=none;top=0;left=0;bottom=0;right=0;align=left;spacingLeft=6;overflow=hidden;" vertex="1" parent="3OG4NW8DKBGacQzqwBZW-22">
          <mxGeometry x="340" width="130" height="30" as="geometry">
            <mxRectangle width="130" height="30" as="alternateBounds" />
          </mxGeometry>
        </mxCell>
        <mxCell id="3OG4NW8DKBGacQzqwBZW-27" style="shape=tableRow;horizontal=0;startSize=0;swimlaneHead=0;swimlaneBody=0;fillColor=none;collapsible=0;dropTarget=0;points=[[0,0.5],[1,0.5]];portConstraint=eastwest;top=0;left=0;right=0;bottom=0;" vertex="1" parent="3OG4NW8DKBGacQzqwBZW-1">
          <mxGeometry y="170" width="470" height="40" as="geometry" />
        </mxCell>
        <mxCell id="3OG4NW8DKBGacQzqwBZW-28" style="shape=partialRectangle;connectable=0;fillColor=none;top=0;left=0;bottom=0;right=0;editable=1;overflow=hidden;" vertex="1" parent="3OG4NW8DKBGacQzqwBZW-27">
          <mxGeometry width="30" height="40" as="geometry">
            <mxRectangle width="30" height="40" as="alternateBounds" />
          </mxGeometry>
        </mxCell>
        <mxCell id="3OG4NW8DKBGacQzqwBZW-29" value="created_by" style="shape=partialRectangle;connectable=0;fillColor=none;top=0;left=0;bottom=0;right=0;align=left;spacingLeft=6;overflow=hidden;" vertex="1" parent="3OG4NW8DKBGacQzqwBZW-27">
          <mxGeometry x="30" width="110" height="40" as="geometry">
            <mxRectangle width="110" height="40" as="alternateBounds" />
          </mxGeometry>
        </mxCell>
        <mxCell id="3OG4NW8DKBGacQzqwBZW-30" value="bigint&#xa;default 0" style="shape=partialRectangle;connectable=0;fillColor=none;top=0;left=0;bottom=0;right=0;align=left;spacingLeft=6;overflow=hidden;" vertex="1" parent="3OG4NW8DKBGacQzqwBZW-27">
          <mxGeometry x="140" width="200" height="40" as="geometry">
            <mxRectangle width="200" height="40" as="alternateBounds" />
          </mxGeometry>
        </mxCell>
        <mxCell id="3OG4NW8DKBGacQzqwBZW-31" value="创建者ID" style="shape=partialRectangle;connectable=0;fillColor=none;top=0;left=0;bottom=0;right=0;align=left;spacingLeft=6;overflow=hidden;" vertex="1" parent="3OG4NW8DKBGacQzqwBZW-27">
          <mxGeometry x="340" width="130" height="40" as="geometry">
            <mxRectangle width="130" height="40" as="alternateBounds" />
          </mxGeometry>
        </mxCell>
        <mxCell id="3OG4NW8DKBGacQzqwBZW-32" style="shape=tableRow;horizontal=0;startSize=0;swimlaneHead=0;swimlaneBody=0;fillColor=none;collapsible=0;dropTarget=0;points=[[0,0.5],[1,0.5]];portConstraint=eastwest;top=0;left=0;right=0;bottom=0;" vertex="1" parent="3OG4NW8DKBGacQzqwBZW-1">
          <mxGeometry y="210" width="470" height="70" as="geometry" />
        </mxCell>
        <mxCell id="3OG4NW8DKBGacQzqwBZW-33" style="shape=partialRectangle;connectable=0;fillColor=none;top=0;left=0;bottom=0;right=0;editable=1;overflow=hidden;" vertex="1" parent="3OG4NW8DKBGacQzqwBZW-32">
          <mxGeometry width="30" height="70" as="geometry">
            <mxRectangle width="30" height="70" as="alternateBounds" />
          </mxGeometry>
        </mxCell>
        <mxCell id="3OG4NW8DKBGacQzqwBZW-34" value="updated" style="shape=partialRectangle;connectable=0;fillColor=none;top=0;left=0;bottom=0;right=0;align=left;spacingLeft=6;overflow=hidden;" vertex="1" parent="3OG4NW8DKBGacQzqwBZW-32">
          <mxGeometry x="30" width="110" height="70" as="geometry">
            <mxRectangle width="110" height="70" as="alternateBounds" />
          </mxGeometry>
        </mxCell>
        <mxCell id="3OG4NW8DKBGacQzqwBZW-35" value="DATETIME&#xa;DEFAULT CURRENT_TIMESTAMP &#xa;ON UPDATE &#xa;CURRENT_TIMESTAMP&#xa;" style="shape=partialRectangle;connectable=0;fillColor=none;top=0;left=0;bottom=0;right=0;align=left;spacingLeft=6;overflow=hidden;" vertex="1" parent="3OG4NW8DKBGacQzqwBZW-32">
          <mxGeometry x="140" width="200" height="70" as="geometry">
            <mxRectangle width="200" height="70" as="alternateBounds" />
          </mxGeometry>
        </mxCell>
        <mxCell id="3OG4NW8DKBGacQzqwBZW-36" value="更新时间" style="shape=partialRectangle;connectable=0;fillColor=none;top=0;left=0;bottom=0;right=0;align=left;spacingLeft=6;overflow=hidden;" vertex="1" parent="3OG4NW8DKBGacQzqwBZW-32">
          <mxGeometry x="340" width="130" height="70" as="geometry">
            <mxRectangle width="130" height="70" as="alternateBounds" />
          </mxGeometry>
        </mxCell>
        <mxCell id="3OG4NW8DKBGacQzqwBZW-37" style="shape=tableRow;horizontal=0;startSize=0;swimlaneHead=0;swimlaneBody=0;fillColor=none;collapsible=0;dropTarget=0;points=[[0,0.5],[1,0.5]];portConstraint=eastwest;top=0;left=0;right=0;bottom=0;" vertex="1" parent="3OG4NW8DKBGacQzqwBZW-1">
          <mxGeometry y="280" width="470" height="40" as="geometry" />
        </mxCell>
        <mxCell id="3OG4NW8DKBGacQzqwBZW-38" style="shape=partialRectangle;connectable=0;fillColor=none;top=0;left=0;bottom=0;right=0;editable=1;overflow=hidden;" vertex="1" parent="3OG4NW8DKBGacQzqwBZW-37">
          <mxGeometry width="30" height="40" as="geometry">
            <mxRectangle width="30" height="40" as="alternateBounds" />
          </mxGeometry>
        </mxCell>
        <mxCell id="3OG4NW8DKBGacQzqwBZW-39" value="updated_by" style="shape=partialRectangle;connectable=0;fillColor=none;top=0;left=0;bottom=0;right=0;align=left;spacingLeft=6;overflow=hidden;" vertex="1" parent="3OG4NW8DKBGacQzqwBZW-37">
          <mxGeometry x="30" width="110" height="40" as="geometry">
            <mxRectangle width="110" height="40" as="alternateBounds" />
          </mxGeometry>
        </mxCell>
        <mxCell id="3OG4NW8DKBGacQzqwBZW-40" value="bigint&#xa;default 0&#xa;" style="shape=partialRectangle;connectable=0;fillColor=none;top=0;left=0;bottom=0;right=0;align=left;spacingLeft=6;overflow=hidden;" vertex="1" parent="3OG4NW8DKBGacQzqwBZW-37">
          <mxGeometry x="140" width="200" height="40" as="geometry">
            <mxRectangle width="200" height="40" as="alternateBounds" />
          </mxGeometry>
        </mxCell>
        <mxCell id="3OG4NW8DKBGacQzqwBZW-41" value="更新者ID" style="shape=partialRectangle;connectable=0;fillColor=none;top=0;left=0;bottom=0;right=0;align=left;spacingLeft=6;overflow=hidden;" vertex="1" parent="3OG4NW8DKBGacQzqwBZW-37">
          <mxGeometry x="340" width="130" height="40" as="geometry">
            <mxRectangle width="130" height="40" as="alternateBounds" />
          </mxGeometry>
        </mxCell>
        <object label="NOTIFICATION_PROPERTIES" tags="通知模式属性表" tooltip="普通表" id="3OG4NW8DKBGacQzqwBZW-42">
          <mxCell style="shape=table;startSize=30;container=1;collapsible=1;childLayout=tableLayout;fixedRows=1;rowLines=0;fontStyle=1;align=center;resizeLast=1;" vertex="1" parent="1">
            <mxGeometry x="560" y="40" width="550" height="410" as="geometry">
              <mxRectangle x="40" y="40" width="120" height="30" as="alternateBounds" />
            </mxGeometry>
          </mxCell>
        </object>
        <mxCell id="3OG4NW8DKBGacQzqwBZW-43" value="" style="shape=tableRow;horizontal=0;startSize=0;swimlaneHead=0;swimlaneBody=0;fillColor=none;collapsible=0;dropTarget=0;points=[[0,0.5],[1,0.5]];portConstraint=eastwest;top=0;left=0;right=0;bottom=1;" vertex="1" parent="3OG4NW8DKBGacQzqwBZW-42">
          <mxGeometry y="30" width="550" height="50" as="geometry" />
        </mxCell>
        <mxCell id="3OG4NW8DKBGacQzqwBZW-44" value="PK" style="shape=partialRectangle;connectable=0;fillColor=none;top=0;left=0;bottom=0;right=0;fontStyle=1;overflow=hidden;" vertex="1" parent="3OG4NW8DKBGacQzqwBZW-43">
          <mxGeometry width="30" height="50" as="geometry">
            <mxRectangle width="30" height="50" as="alternateBounds" />
          </mxGeometry>
        </mxCell>
        <mxCell id="3OG4NW8DKBGacQzqwBZW-45" value="NOTIFICATION_PROP_ID" style="shape=partialRectangle;connectable=0;fillColor=none;top=0;left=0;bottom=0;right=0;align=left;spacingLeft=6;fontStyle=5;overflow=hidden;" vertex="1" parent="3OG4NW8DKBGacQzqwBZW-43">
          <mxGeometry x="30" width="170" height="50" as="geometry">
            <mxRectangle width="170" height="50" as="alternateBounds" />
          </mxGeometry>
        </mxCell>
        <mxCell id="3OG4NW8DKBGacQzqwBZW-46" value="bigint&#xa;not null&#xa;auto_increment" style="shape=partialRectangle;connectable=0;fillColor=none;top=0;left=0;bottom=0;right=0;align=left;spacingLeft=6;fontStyle=5;overflow=hidden;" vertex="1" parent="3OG4NW8DKBGacQzqwBZW-43">
          <mxGeometry x="200" width="220" height="50" as="geometry">
            <mxRectangle width="220" height="50" as="alternateBounds" />
          </mxGeometry>
        </mxCell>
        <mxCell id="3OG4NW8DKBGacQzqwBZW-47" value="主键ID" style="shape=partialRectangle;connectable=0;fillColor=none;top=0;left=0;bottom=0;right=0;align=left;spacingLeft=6;fontStyle=5;overflow=hidden;" vertex="1" parent="3OG4NW8DKBGacQzqwBZW-43">
          <mxGeometry x="420" width="130" height="50" as="geometry">
            <mxRectangle width="130" height="50" as="alternateBounds" />
          </mxGeometry>
        </mxCell>
        <mxCell id="3OG4NW8DKBGacQzqwBZW-48" value="" style="shape=tableRow;horizontal=0;startSize=0;swimlaneHead=0;swimlaneBody=0;fillColor=none;collapsible=0;dropTarget=0;points=[[0,0.5],[1,0.5]];portConstraint=eastwest;top=0;left=0;right=0;bottom=0;" vertex="1" parent="3OG4NW8DKBGacQzqwBZW-42">
          <mxGeometry y="80" width="550" height="30" as="geometry" />
        </mxCell>
        <mxCell id="3OG4NW8DKBGacQzqwBZW-49" value="" style="shape=partialRectangle;connectable=0;fillColor=none;top=0;left=0;bottom=0;right=0;editable=1;overflow=hidden;" vertex="1" parent="3OG4NW8DKBGacQzqwBZW-48">
          <mxGeometry width="30" height="30" as="geometry">
            <mxRectangle width="30" height="30" as="alternateBounds" />
          </mxGeometry>
        </mxCell>
        <mxCell id="3OG4NW8DKBGacQzqwBZW-50" value="PROP_NAME" style="shape=partialRectangle;connectable=0;fillColor=none;top=0;left=0;bottom=0;right=0;align=left;spacingLeft=6;overflow=hidden;" vertex="1" parent="3OG4NW8DKBGacQzqwBZW-48">
          <mxGeometry x="30" width="170" height="30" as="geometry">
            <mxRectangle width="170" height="30" as="alternateBounds" />
          </mxGeometry>
        </mxCell>
        <mxCell id="3OG4NW8DKBGacQzqwBZW-51" value="varchar(20)" style="shape=partialRectangle;connectable=0;fillColor=none;top=0;left=0;bottom=0;right=0;align=left;spacingLeft=6;overflow=hidden;" vertex="1" parent="3OG4NW8DKBGacQzqwBZW-48">
          <mxGeometry x="200" width="220" height="30" as="geometry">
            <mxRectangle width="220" height="30" as="alternateBounds" />
          </mxGeometry>
        </mxCell>
        <mxCell id="3OG4NW8DKBGacQzqwBZW-52" value="属性名称" style="shape=partialRectangle;connectable=0;fillColor=none;top=0;left=0;bottom=0;right=0;align=left;spacingLeft=6;overflow=hidden;" vertex="1" parent="3OG4NW8DKBGacQzqwBZW-48">
          <mxGeometry x="420" width="130" height="30" as="geometry">
            <mxRectangle width="130" height="30" as="alternateBounds" />
          </mxGeometry>
        </mxCell>
        <mxCell id="3OG4NW8DKBGacQzqwBZW-53" value="" style="shape=tableRow;horizontal=0;startSize=0;swimlaneHead=0;swimlaneBody=0;fillColor=none;collapsible=0;dropTarget=0;points=[[0,0.5],[1,0.5]];portConstraint=eastwest;top=0;left=0;right=0;bottom=0;" vertex="1" parent="3OG4NW8DKBGacQzqwBZW-42">
          <mxGeometry y="110" width="550" height="30" as="geometry" />
        </mxCell>
        <mxCell id="3OG4NW8DKBGacQzqwBZW-54" value="" style="shape=partialRectangle;connectable=0;fillColor=none;top=0;left=0;bottom=0;right=0;editable=1;overflow=hidden;" vertex="1" parent="3OG4NW8DKBGacQzqwBZW-53">
          <mxGeometry width="30" height="30" as="geometry">
            <mxRectangle width="30" height="30" as="alternateBounds" />
          </mxGeometry>
        </mxCell>
        <mxCell id="3OG4NW8DKBGacQzqwBZW-55" value="PROP_VALUE" style="shape=partialRectangle;connectable=0;fillColor=none;top=0;left=0;bottom=0;right=0;align=left;spacingLeft=6;overflow=hidden;" vertex="1" parent="3OG4NW8DKBGacQzqwBZW-53">
          <mxGeometry x="30" width="170" height="30" as="geometry">
            <mxRectangle width="170" height="30" as="alternateBounds" />
          </mxGeometry>
        </mxCell>
        <mxCell id="3OG4NW8DKBGacQzqwBZW-56" value="varchar(600)" style="shape=partialRectangle;connectable=0;fillColor=none;top=0;left=0;bottom=0;right=0;align=left;spacingLeft=6;overflow=hidden;" vertex="1" parent="3OG4NW8DKBGacQzqwBZW-53">
          <mxGeometry x="200" width="220" height="30" as="geometry">
            <mxRectangle width="220" height="30" as="alternateBounds" />
          </mxGeometry>
        </mxCell>
        <mxCell id="3OG4NW8DKBGacQzqwBZW-57" value="属性值" style="shape=partialRectangle;connectable=0;fillColor=none;top=0;left=0;bottom=0;right=0;align=left;spacingLeft=6;overflow=hidden;" vertex="1" parent="3OG4NW8DKBGacQzqwBZW-53">
          <mxGeometry x="420" width="130" height="30" as="geometry">
            <mxRectangle width="130" height="30" as="alternateBounds" />
          </mxGeometry>
        </mxCell>
        <mxCell id="3OG4NW8DKBGacQzqwBZW-58" value="" style="shape=tableRow;horizontal=0;startSize=0;swimlaneHead=0;swimlaneBody=0;fillColor=none;collapsible=0;dropTarget=0;points=[[0,0.5],[1,0.5]];portConstraint=eastwest;top=0;left=0;right=0;bottom=0;" vertex="1" parent="3OG4NW8DKBGacQzqwBZW-42">
          <mxGeometry y="140" width="550" height="30" as="geometry" />
        </mxCell>
        <mxCell id="3OG4NW8DKBGacQzqwBZW-59" value="" style="shape=partialRectangle;connectable=0;fillColor=none;top=0;left=0;bottom=0;right=0;editable=1;overflow=hidden;" vertex="1" parent="3OG4NW8DKBGacQzqwBZW-58">
          <mxGeometry width="30" height="30" as="geometry">
            <mxRectangle width="30" height="30" as="alternateBounds" />
          </mxGeometry>
        </mxCell>
        <mxCell id="3OG4NW8DKBGacQzqwBZW-60" value="NOTIFY_ID" style="shape=partialRectangle;connectable=0;fillColor=none;top=0;left=0;bottom=0;right=0;align=left;spacingLeft=6;overflow=hidden;" vertex="1" parent="3OG4NW8DKBGacQzqwBZW-58">
          <mxGeometry x="30" width="170" height="30" as="geometry">
            <mxRectangle width="170" height="30" as="alternateBounds" />
          </mxGeometry>
        </mxCell>
        <mxCell id="3OG4NW8DKBGacQzqwBZW-61" value="Data Type" style="shape=partialRectangle;connectable=0;fillColor=none;top=0;left=0;bottom=0;right=0;align=left;spacingLeft=6;overflow=hidden;" vertex="1" parent="3OG4NW8DKBGacQzqwBZW-58">
          <mxGeometry x="200" width="220" height="30" as="geometry">
            <mxRectangle width="220" height="30" as="alternateBounds" />
          </mxGeometry>
        </mxCell>
        <mxCell id="3OG4NW8DKBGacQzqwBZW-62" value="通知模式ID" style="shape=partialRectangle;connectable=0;fillColor=none;top=0;left=0;bottom=0;right=0;align=left;spacingLeft=6;overflow=hidden;" vertex="1" parent="3OG4NW8DKBGacQzqwBZW-58">
          <mxGeometry x="420" width="130" height="30" as="geometry">
            <mxRectangle width="130" height="30" as="alternateBounds" />
          </mxGeometry>
        </mxCell>
        <mxCell id="3OG4NW8DKBGacQzqwBZW-83" style="shape=tableRow;horizontal=0;startSize=0;swimlaneHead=0;swimlaneBody=0;fillColor=none;collapsible=0;dropTarget=0;points=[[0,0.5],[1,0.5]];portConstraint=eastwest;top=0;left=0;right=0;bottom=0;" vertex="1" parent="3OG4NW8DKBGacQzqwBZW-42">
          <mxGeometry y="170" width="550" height="30" as="geometry" />
        </mxCell>
        <mxCell id="3OG4NW8DKBGacQzqwBZW-84" style="shape=partialRectangle;connectable=0;fillColor=none;top=0;left=0;bottom=0;right=0;editable=1;overflow=hidden;" vertex="1" parent="3OG4NW8DKBGacQzqwBZW-83">
          <mxGeometry width="30" height="30" as="geometry">
            <mxRectangle width="30" height="30" as="alternateBounds" />
          </mxGeometry>
        </mxCell>
        <mxCell id="3OG4NW8DKBGacQzqwBZW-85" value="OBJ_NOTIFY_REF_ID" style="shape=partialRectangle;connectable=0;fillColor=none;top=0;left=0;bottom=0;right=0;align=left;spacingLeft=6;overflow=hidden;" vertex="1" parent="3OG4NW8DKBGacQzqwBZW-83">
          <mxGeometry x="30" width="170" height="30" as="geometry">
            <mxRectangle width="170" height="30" as="alternateBounds" />
          </mxGeometry>
        </mxCell>
        <mxCell id="3OG4NW8DKBGacQzqwBZW-86" value="bigint" style="shape=partialRectangle;connectable=0;fillColor=none;top=0;left=0;bottom=0;right=0;align=left;spacingLeft=6;overflow=hidden;" vertex="1" parent="3OG4NW8DKBGacQzqwBZW-83">
          <mxGeometry x="200" width="220" height="30" as="geometry">
            <mxRectangle width="220" height="30" as="alternateBounds" />
          </mxGeometry>
        </mxCell>
        <mxCell id="3OG4NW8DKBGacQzqwBZW-87" value="对象通知关联Id" style="shape=partialRectangle;connectable=0;fillColor=none;top=0;left=0;bottom=0;right=0;align=left;spacingLeft=6;overflow=hidden;" vertex="1" parent="3OG4NW8DKBGacQzqwBZW-83">
          <mxGeometry x="420" width="130" height="30" as="geometry">
            <mxRectangle width="130" height="30" as="alternateBounds" />
          </mxGeometry>
        </mxCell>
        <mxCell id="3OG4NW8DKBGacQzqwBZW-93" style="shape=tableRow;horizontal=0;startSize=0;swimlaneHead=0;swimlaneBody=0;fillColor=none;collapsible=0;dropTarget=0;points=[[0,0.5],[1,0.5]];portConstraint=eastwest;top=0;left=0;right=0;bottom=0;" vertex="1" parent="3OG4NW8DKBGacQzqwBZW-42">
          <mxGeometry y="200" width="550" height="30" as="geometry" />
        </mxCell>
        <mxCell id="3OG4NW8DKBGacQzqwBZW-94" style="shape=partialRectangle;connectable=0;fillColor=none;top=0;left=0;bottom=0;right=0;editable=1;overflow=hidden;" vertex="1" parent="3OG4NW8DKBGacQzqwBZW-93">
          <mxGeometry width="30" height="30" as="geometry">
            <mxRectangle width="30" height="30" as="alternateBounds" />
          </mxGeometry>
        </mxCell>
        <mxCell id="3OG4NW8DKBGacQzqwBZW-95" value="USER_ID" style="shape=partialRectangle;connectable=0;fillColor=none;top=0;left=0;bottom=0;right=0;align=left;spacingLeft=6;overflow=hidden;" vertex="1" parent="3OG4NW8DKBGacQzqwBZW-93">
          <mxGeometry x="30" width="170" height="30" as="geometry">
            <mxRectangle width="170" height="30" as="alternateBounds" />
          </mxGeometry>
        </mxCell>
        <mxCell id="3OG4NW8DKBGacQzqwBZW-96" value="bigint" style="shape=partialRectangle;connectable=0;fillColor=none;top=0;left=0;bottom=0;right=0;align=left;spacingLeft=6;overflow=hidden;" vertex="1" parent="3OG4NW8DKBGacQzqwBZW-93">
          <mxGeometry x="200" width="220" height="30" as="geometry">
            <mxRectangle width="220" height="30" as="alternateBounds" />
          </mxGeometry>
        </mxCell>
        <mxCell id="3OG4NW8DKBGacQzqwBZW-97" value="用户ID" style="shape=partialRectangle;connectable=0;fillColor=none;top=0;left=0;bottom=0;right=0;align=left;spacingLeft=6;overflow=hidden;" vertex="1" parent="3OG4NW8DKBGacQzqwBZW-93">
          <mxGeometry x="420" width="130" height="30" as="geometry">
            <mxRectangle width="130" height="30" as="alternateBounds" />
          </mxGeometry>
        </mxCell>
        <mxCell id="3OG4NW8DKBGacQzqwBZW-63" style="shape=tableRow;horizontal=0;startSize=0;swimlaneHead=0;swimlaneBody=0;fillColor=none;collapsible=0;dropTarget=0;points=[[0,0.5],[1,0.5]];portConstraint=eastwest;top=0;left=0;right=0;bottom=0;" vertex="1" parent="3OG4NW8DKBGacQzqwBZW-42">
          <mxGeometry y="230" width="550" height="30" as="geometry" />
        </mxCell>
        <mxCell id="3OG4NW8DKBGacQzqwBZW-64" style="shape=partialRectangle;connectable=0;fillColor=none;top=0;left=0;bottom=0;right=0;editable=1;overflow=hidden;" vertex="1" parent="3OG4NW8DKBGacQzqwBZW-63">
          <mxGeometry width="30" height="30" as="geometry">
            <mxRectangle width="30" height="30" as="alternateBounds" />
          </mxGeometry>
        </mxCell>
        <mxCell id="3OG4NW8DKBGacQzqwBZW-65" value="created" style="shape=partialRectangle;connectable=0;fillColor=none;top=0;left=0;bottom=0;right=0;align=left;spacingLeft=6;overflow=hidden;" vertex="1" parent="3OG4NW8DKBGacQzqwBZW-63">
          <mxGeometry x="30" width="170" height="30" as="geometry">
            <mxRectangle width="170" height="30" as="alternateBounds" />
          </mxGeometry>
        </mxCell>
        <mxCell id="3OG4NW8DKBGacQzqwBZW-66" value="DATETIME&#xa;DEFAULT CURRENT_TIMESTAMP" style="shape=partialRectangle;connectable=0;fillColor=none;top=0;left=0;bottom=0;right=0;align=left;spacingLeft=6;overflow=hidden;" vertex="1" parent="3OG4NW8DKBGacQzqwBZW-63">
          <mxGeometry x="200" width="220" height="30" as="geometry">
            <mxRectangle width="220" height="30" as="alternateBounds" />
          </mxGeometry>
        </mxCell>
        <mxCell id="3OG4NW8DKBGacQzqwBZW-67" value="创建时间" style="shape=partialRectangle;connectable=0;fillColor=none;top=0;left=0;bottom=0;right=0;align=left;spacingLeft=6;overflow=hidden;" vertex="1" parent="3OG4NW8DKBGacQzqwBZW-63">
          <mxGeometry x="420" width="130" height="30" as="geometry">
            <mxRectangle width="130" height="30" as="alternateBounds" />
          </mxGeometry>
        </mxCell>
        <mxCell id="3OG4NW8DKBGacQzqwBZW-68" style="shape=tableRow;horizontal=0;startSize=0;swimlaneHead=0;swimlaneBody=0;fillColor=none;collapsible=0;dropTarget=0;points=[[0,0.5],[1,0.5]];portConstraint=eastwest;top=0;left=0;right=0;bottom=0;" vertex="1" parent="3OG4NW8DKBGacQzqwBZW-42">
          <mxGeometry y="260" width="550" height="40" as="geometry" />
        </mxCell>
        <mxCell id="3OG4NW8DKBGacQzqwBZW-69" style="shape=partialRectangle;connectable=0;fillColor=none;top=0;left=0;bottom=0;right=0;editable=1;overflow=hidden;" vertex="1" parent="3OG4NW8DKBGacQzqwBZW-68">
          <mxGeometry width="30" height="40" as="geometry">
            <mxRectangle width="30" height="40" as="alternateBounds" />
          </mxGeometry>
        </mxCell>
        <mxCell id="3OG4NW8DKBGacQzqwBZW-70" value="created_by" style="shape=partialRectangle;connectable=0;fillColor=none;top=0;left=0;bottom=0;right=0;align=left;spacingLeft=6;overflow=hidden;" vertex="1" parent="3OG4NW8DKBGacQzqwBZW-68">
          <mxGeometry x="30" width="170" height="40" as="geometry">
            <mxRectangle width="170" height="40" as="alternateBounds" />
          </mxGeometry>
        </mxCell>
        <mxCell id="3OG4NW8DKBGacQzqwBZW-71" value="bigint&#xa;default 0" style="shape=partialRectangle;connectable=0;fillColor=none;top=0;left=0;bottom=0;right=0;align=left;spacingLeft=6;overflow=hidden;" vertex="1" parent="3OG4NW8DKBGacQzqwBZW-68">
          <mxGeometry x="200" width="220" height="40" as="geometry">
            <mxRectangle width="220" height="40" as="alternateBounds" />
          </mxGeometry>
        </mxCell>
        <mxCell id="3OG4NW8DKBGacQzqwBZW-72" value="创建者ID" style="shape=partialRectangle;connectable=0;fillColor=none;top=0;left=0;bottom=0;right=0;align=left;spacingLeft=6;overflow=hidden;" vertex="1" parent="3OG4NW8DKBGacQzqwBZW-68">
          <mxGeometry x="420" width="130" height="40" as="geometry">
            <mxRectangle width="130" height="40" as="alternateBounds" />
          </mxGeometry>
        </mxCell>
        <mxCell id="3OG4NW8DKBGacQzqwBZW-73" style="shape=tableRow;horizontal=0;startSize=0;swimlaneHead=0;swimlaneBody=0;fillColor=none;collapsible=0;dropTarget=0;points=[[0,0.5],[1,0.5]];portConstraint=eastwest;top=0;left=0;right=0;bottom=0;" vertex="1" parent="3OG4NW8DKBGacQzqwBZW-42">
          <mxGeometry y="300" width="550" height="70" as="geometry" />
        </mxCell>
        <mxCell id="3OG4NW8DKBGacQzqwBZW-74" style="shape=partialRectangle;connectable=0;fillColor=none;top=0;left=0;bottom=0;right=0;editable=1;overflow=hidden;" vertex="1" parent="3OG4NW8DKBGacQzqwBZW-73">
          <mxGeometry width="30" height="70" as="geometry">
            <mxRectangle width="30" height="70" as="alternateBounds" />
          </mxGeometry>
        </mxCell>
        <mxCell id="3OG4NW8DKBGacQzqwBZW-75" value="updated" style="shape=partialRectangle;connectable=0;fillColor=none;top=0;left=0;bottom=0;right=0;align=left;spacingLeft=6;overflow=hidden;" vertex="1" parent="3OG4NW8DKBGacQzqwBZW-73">
          <mxGeometry x="30" width="170" height="70" as="geometry">
            <mxRectangle width="170" height="70" as="alternateBounds" />
          </mxGeometry>
        </mxCell>
        <mxCell id="3OG4NW8DKBGacQzqwBZW-76" value="DATETIME&#xa;DEFAULT CURRENT_TIMESTAMP &#xa;ON UPDATE &#xa;CURRENT_TIMESTAMP&#xa;" style="shape=partialRectangle;connectable=0;fillColor=none;top=0;left=0;bottom=0;right=0;align=left;spacingLeft=6;overflow=hidden;" vertex="1" parent="3OG4NW8DKBGacQzqwBZW-73">
          <mxGeometry x="200" width="220" height="70" as="geometry">
            <mxRectangle width="220" height="70" as="alternateBounds" />
          </mxGeometry>
        </mxCell>
        <mxCell id="3OG4NW8DKBGacQzqwBZW-77" value="更新时间" style="shape=partialRectangle;connectable=0;fillColor=none;top=0;left=0;bottom=0;right=0;align=left;spacingLeft=6;overflow=hidden;" vertex="1" parent="3OG4NW8DKBGacQzqwBZW-73">
          <mxGeometry x="420" width="130" height="70" as="geometry">
            <mxRectangle width="130" height="70" as="alternateBounds" />
          </mxGeometry>
        </mxCell>
        <mxCell id="3OG4NW8DKBGacQzqwBZW-78" style="shape=tableRow;horizontal=0;startSize=0;swimlaneHead=0;swimlaneBody=0;fillColor=none;collapsible=0;dropTarget=0;points=[[0,0.5],[1,0.5]];portConstraint=eastwest;top=0;left=0;right=0;bottom=0;" vertex="1" parent="3OG4NW8DKBGacQzqwBZW-42">
          <mxGeometry y="370" width="550" height="40" as="geometry" />
        </mxCell>
        <mxCell id="3OG4NW8DKBGacQzqwBZW-79" style="shape=partialRectangle;connectable=0;fillColor=none;top=0;left=0;bottom=0;right=0;editable=1;overflow=hidden;" vertex="1" parent="3OG4NW8DKBGacQzqwBZW-78">
          <mxGeometry width="30" height="40" as="geometry">
            <mxRectangle width="30" height="40" as="alternateBounds" />
          </mxGeometry>
        </mxCell>
        <mxCell id="3OG4NW8DKBGacQzqwBZW-80" value="updated_by" style="shape=partialRectangle;connectable=0;fillColor=none;top=0;left=0;bottom=0;right=0;align=left;spacingLeft=6;overflow=hidden;" vertex="1" parent="3OG4NW8DKBGacQzqwBZW-78">
          <mxGeometry x="30" width="170" height="40" as="geometry">
            <mxRectangle width="170" height="40" as="alternateBounds" />
          </mxGeometry>
        </mxCell>
        <mxCell id="3OG4NW8DKBGacQzqwBZW-81" value="bigint&#xa;default 0&#xa;" style="shape=partialRectangle;connectable=0;fillColor=none;top=0;left=0;bottom=0;right=0;align=left;spacingLeft=6;overflow=hidden;" vertex="1" parent="3OG4NW8DKBGacQzqwBZW-78">
          <mxGeometry x="200" width="220" height="40" as="geometry">
            <mxRectangle width="220" height="40" as="alternateBounds" />
          </mxGeometry>
        </mxCell>
        <mxCell id="3OG4NW8DKBGacQzqwBZW-82" value="更新者ID" style="shape=partialRectangle;connectable=0;fillColor=none;top=0;left=0;bottom=0;right=0;align=left;spacingLeft=6;overflow=hidden;" vertex="1" parent="3OG4NW8DKBGacQzqwBZW-78">
          <mxGeometry x="420" width="130" height="40" as="geometry">
            <mxRectangle width="130" height="40" as="alternateBounds" />
          </mxGeometry>
        </mxCell>
        <object label="USER_NOTIFY_PACKAGE_PARAM" tags="" tooltip="普通表" id="3OG4NW8DKBGacQzqwBZW-98">
          <mxCell style="shape=table;startSize=30;container=1;collapsible=1;childLayout=tableLayout;fixedRows=1;rowLines=0;fontStyle=1;align=center;resizeLast=1;" vertex="1" parent="1">
            <mxGeometry x="40" y="510" width="480" height="350" as="geometry">
              <mxRectangle x="40" y="40" width="120" height="30" as="alternateBounds" />
            </mxGeometry>
          </mxCell>
        </object>
        <mxCell id="3OG4NW8DKBGacQzqwBZW-99" value="" style="shape=tableRow;horizontal=0;startSize=0;swimlaneHead=0;swimlaneBody=0;fillColor=none;collapsible=0;dropTarget=0;points=[[0,0.5],[1,0.5]];portConstraint=eastwest;top=0;left=0;right=0;bottom=1;" vertex="1" parent="3OG4NW8DKBGacQzqwBZW-98">
          <mxGeometry y="30" width="480" height="50" as="geometry" />
        </mxCell>
        <mxCell id="3OG4NW8DKBGacQzqwBZW-100" value="PK" style="shape=partialRectangle;connectable=0;fillColor=none;top=0;left=0;bottom=0;right=0;fontStyle=1;overflow=hidden;" vertex="1" parent="3OG4NW8DKBGacQzqwBZW-99">
          <mxGeometry width="30" height="50" as="geometry">
            <mxRectangle width="30" height="50" as="alternateBounds" />
          </mxGeometry>
        </mxCell>
        <mxCell id="3OG4NW8DKBGacQzqwBZW-101" value="u_nf_pkg_param_id" style="shape=partialRectangle;connectable=0;fillColor=none;top=0;left=0;bottom=0;right=0;align=left;spacingLeft=6;fontStyle=5;overflow=hidden;" vertex="1" parent="3OG4NW8DKBGacQzqwBZW-99">
          <mxGeometry x="30" width="130" height="50" as="geometry">
            <mxRectangle width="130" height="50" as="alternateBounds" />
          </mxGeometry>
        </mxCell>
        <mxCell id="3OG4NW8DKBGacQzqwBZW-102" value="bigint&#xa;not null&#xa;auto_increment" style="shape=partialRectangle;connectable=0;fillColor=none;top=0;left=0;bottom=0;right=0;align=left;spacingLeft=6;fontStyle=5;overflow=hidden;" vertex="1" parent="3OG4NW8DKBGacQzqwBZW-99">
          <mxGeometry x="160" width="210" height="50" as="geometry">
            <mxRectangle width="210" height="50" as="alternateBounds" />
          </mxGeometry>
        </mxCell>
        <mxCell id="3OG4NW8DKBGacQzqwBZW-103" value="主键ID" style="shape=partialRectangle;connectable=0;fillColor=none;top=0;left=0;bottom=0;right=0;align=left;spacingLeft=6;fontStyle=5;overflow=hidden;" vertex="1" parent="3OG4NW8DKBGacQzqwBZW-99">
          <mxGeometry x="370" width="110" height="50" as="geometry">
            <mxRectangle width="110" height="50" as="alternateBounds" />
          </mxGeometry>
        </mxCell>
        <mxCell id="3OG4NW8DKBGacQzqwBZW-104" value="" style="shape=tableRow;horizontal=0;startSize=0;swimlaneHead=0;swimlaneBody=0;fillColor=none;collapsible=0;dropTarget=0;points=[[0,0.5],[1,0.5]];portConstraint=eastwest;top=0;left=0;right=0;bottom=0;" vertex="1" parent="3OG4NW8DKBGacQzqwBZW-98">
          <mxGeometry y="80" width="480" height="30" as="geometry" />
        </mxCell>
        <mxCell id="3OG4NW8DKBGacQzqwBZW-105" value="" style="shape=partialRectangle;connectable=0;fillColor=none;top=0;left=0;bottom=0;right=0;editable=1;overflow=hidden;" vertex="1" parent="3OG4NW8DKBGacQzqwBZW-104">
          <mxGeometry width="30" height="30" as="geometry">
            <mxRectangle width="30" height="30" as="alternateBounds" />
          </mxGeometry>
        </mxCell>
        <mxCell id="3OG4NW8DKBGacQzqwBZW-106" value="Rows 1" style="shape=partialRectangle;connectable=0;fillColor=none;top=0;left=0;bottom=0;right=0;align=left;spacingLeft=6;overflow=hidden;" vertex="1" parent="3OG4NW8DKBGacQzqwBZW-104">
          <mxGeometry x="30" width="130" height="30" as="geometry">
            <mxRectangle width="130" height="30" as="alternateBounds" />
          </mxGeometry>
        </mxCell>
        <mxCell id="3OG4NW8DKBGacQzqwBZW-107" value="Data Type" style="shape=partialRectangle;connectable=0;fillColor=none;top=0;left=0;bottom=0;right=0;align=left;spacingLeft=6;overflow=hidden;" vertex="1" parent="3OG4NW8DKBGacQzqwBZW-104">
          <mxGeometry x="160" width="210" height="30" as="geometry">
            <mxRectangle width="210" height="30" as="alternateBounds" />
          </mxGeometry>
        </mxCell>
        <mxCell id="3OG4NW8DKBGacQzqwBZW-108" value="" style="shape=partialRectangle;connectable=0;fillColor=none;top=0;left=0;bottom=0;right=0;align=left;spacingLeft=6;overflow=hidden;" vertex="1" parent="3OG4NW8DKBGacQzqwBZW-104">
          <mxGeometry x="370" width="110" height="30" as="geometry">
            <mxRectangle width="110" height="30" as="alternateBounds" />
          </mxGeometry>
        </mxCell>
        <mxCell id="3OG4NW8DKBGacQzqwBZW-109" value="" style="shape=tableRow;horizontal=0;startSize=0;swimlaneHead=0;swimlaneBody=0;fillColor=none;collapsible=0;dropTarget=0;points=[[0,0.5],[1,0.5]];portConstraint=eastwest;top=0;left=0;right=0;bottom=0;" vertex="1" parent="3OG4NW8DKBGacQzqwBZW-98">
          <mxGeometry y="110" width="480" height="30" as="geometry" />
        </mxCell>
        <mxCell id="3OG4NW8DKBGacQzqwBZW-110" value="" style="shape=partialRectangle;connectable=0;fillColor=none;top=0;left=0;bottom=0;right=0;editable=1;overflow=hidden;" vertex="1" parent="3OG4NW8DKBGacQzqwBZW-109">
          <mxGeometry width="30" height="30" as="geometry">
            <mxRectangle width="30" height="30" as="alternateBounds" />
          </mxGeometry>
        </mxCell>
        <mxCell id="3OG4NW8DKBGacQzqwBZW-111" value="Rows 2" style="shape=partialRectangle;connectable=0;fillColor=none;top=0;left=0;bottom=0;right=0;align=left;spacingLeft=6;overflow=hidden;" vertex="1" parent="3OG4NW8DKBGacQzqwBZW-109">
          <mxGeometry x="30" width="130" height="30" as="geometry">
            <mxRectangle width="130" height="30" as="alternateBounds" />
          </mxGeometry>
        </mxCell>
        <mxCell id="3OG4NW8DKBGacQzqwBZW-112" value="Data Type" style="shape=partialRectangle;connectable=0;fillColor=none;top=0;left=0;bottom=0;right=0;align=left;spacingLeft=6;overflow=hidden;" vertex="1" parent="3OG4NW8DKBGacQzqwBZW-109">
          <mxGeometry x="160" width="210" height="30" as="geometry">
            <mxRectangle width="210" height="30" as="alternateBounds" />
          </mxGeometry>
        </mxCell>
        <mxCell id="3OG4NW8DKBGacQzqwBZW-113" value="" style="shape=partialRectangle;connectable=0;fillColor=none;top=0;left=0;bottom=0;right=0;align=left;spacingLeft=6;overflow=hidden;" vertex="1" parent="3OG4NW8DKBGacQzqwBZW-109">
          <mxGeometry x="370" width="110" height="30" as="geometry">
            <mxRectangle width="110" height="30" as="alternateBounds" />
          </mxGeometry>
        </mxCell>
        <mxCell id="3OG4NW8DKBGacQzqwBZW-114" value="" style="shape=tableRow;horizontal=0;startSize=0;swimlaneHead=0;swimlaneBody=0;fillColor=none;collapsible=0;dropTarget=0;points=[[0,0.5],[1,0.5]];portConstraint=eastwest;top=0;left=0;right=0;bottom=0;" vertex="1" parent="3OG4NW8DKBGacQzqwBZW-98">
          <mxGeometry y="140" width="480" height="30" as="geometry" />
        </mxCell>
        <mxCell id="3OG4NW8DKBGacQzqwBZW-115" value="" style="shape=partialRectangle;connectable=0;fillColor=none;top=0;left=0;bottom=0;right=0;editable=1;overflow=hidden;" vertex="1" parent="3OG4NW8DKBGacQzqwBZW-114">
          <mxGeometry width="30" height="30" as="geometry">
            <mxRectangle width="30" height="30" as="alternateBounds" />
          </mxGeometry>
        </mxCell>
        <mxCell id="3OG4NW8DKBGacQzqwBZW-116" value="Rows 3" style="shape=partialRectangle;connectable=0;fillColor=none;top=0;left=0;bottom=0;right=0;align=left;spacingLeft=6;overflow=hidden;" vertex="1" parent="3OG4NW8DKBGacQzqwBZW-114">
          <mxGeometry x="30" width="130" height="30" as="geometry">
            <mxRectangle width="130" height="30" as="alternateBounds" />
          </mxGeometry>
        </mxCell>
        <mxCell id="3OG4NW8DKBGacQzqwBZW-117" value="Data Type" style="shape=partialRectangle;connectable=0;fillColor=none;top=0;left=0;bottom=0;right=0;align=left;spacingLeft=6;overflow=hidden;" vertex="1" parent="3OG4NW8DKBGacQzqwBZW-114">
          <mxGeometry x="160" width="210" height="30" as="geometry">
            <mxRectangle width="210" height="30" as="alternateBounds" />
          </mxGeometry>
        </mxCell>
        <mxCell id="3OG4NW8DKBGacQzqwBZW-118" value="" style="shape=partialRectangle;connectable=0;fillColor=none;top=0;left=0;bottom=0;right=0;align=left;spacingLeft=6;overflow=hidden;" vertex="1" parent="3OG4NW8DKBGacQzqwBZW-114">
          <mxGeometry x="370" width="110" height="30" as="geometry">
            <mxRectangle width="110" height="30" as="alternateBounds" />
          </mxGeometry>
        </mxCell>
        <mxCell id="3OG4NW8DKBGacQzqwBZW-119" style="shape=tableRow;horizontal=0;startSize=0;swimlaneHead=0;swimlaneBody=0;fillColor=none;collapsible=0;dropTarget=0;points=[[0,0.5],[1,0.5]];portConstraint=eastwest;top=0;left=0;right=0;bottom=0;" vertex="1" parent="3OG4NW8DKBGacQzqwBZW-98">
          <mxGeometry y="170" width="480" height="30" as="geometry" />
        </mxCell>
        <mxCell id="3OG4NW8DKBGacQzqwBZW-120" style="shape=partialRectangle;connectable=0;fillColor=none;top=0;left=0;bottom=0;right=0;editable=1;overflow=hidden;" vertex="1" parent="3OG4NW8DKBGacQzqwBZW-119">
          <mxGeometry width="30" height="30" as="geometry">
            <mxRectangle width="30" height="30" as="alternateBounds" />
          </mxGeometry>
        </mxCell>
        <mxCell id="3OG4NW8DKBGacQzqwBZW-121" value="created" style="shape=partialRectangle;connectable=0;fillColor=none;top=0;left=0;bottom=0;right=0;align=left;spacingLeft=6;overflow=hidden;" vertex="1" parent="3OG4NW8DKBGacQzqwBZW-119">
          <mxGeometry x="30" width="130" height="30" as="geometry">
            <mxRectangle width="130" height="30" as="alternateBounds" />
          </mxGeometry>
        </mxCell>
        <mxCell id="3OG4NW8DKBGacQzqwBZW-122" value="DATETIME&#xa;DEFAULT CURRENT_TIMESTAMP" style="shape=partialRectangle;connectable=0;fillColor=none;top=0;left=0;bottom=0;right=0;align=left;spacingLeft=6;overflow=hidden;" vertex="1" parent="3OG4NW8DKBGacQzqwBZW-119">
          <mxGeometry x="160" width="210" height="30" as="geometry">
            <mxRectangle width="210" height="30" as="alternateBounds" />
          </mxGeometry>
        </mxCell>
        <mxCell id="3OG4NW8DKBGacQzqwBZW-123" value="创建时间" style="shape=partialRectangle;connectable=0;fillColor=none;top=0;left=0;bottom=0;right=0;align=left;spacingLeft=6;overflow=hidden;" vertex="1" parent="3OG4NW8DKBGacQzqwBZW-119">
          <mxGeometry x="370" width="110" height="30" as="geometry">
            <mxRectangle width="110" height="30" as="alternateBounds" />
          </mxGeometry>
        </mxCell>
        <mxCell id="3OG4NW8DKBGacQzqwBZW-124" style="shape=tableRow;horizontal=0;startSize=0;swimlaneHead=0;swimlaneBody=0;fillColor=none;collapsible=0;dropTarget=0;points=[[0,0.5],[1,0.5]];portConstraint=eastwest;top=0;left=0;right=0;bottom=0;" vertex="1" parent="3OG4NW8DKBGacQzqwBZW-98">
          <mxGeometry y="200" width="480" height="40" as="geometry" />
        </mxCell>
        <mxCell id="3OG4NW8DKBGacQzqwBZW-125" style="shape=partialRectangle;connectable=0;fillColor=none;top=0;left=0;bottom=0;right=0;editable=1;overflow=hidden;" vertex="1" parent="3OG4NW8DKBGacQzqwBZW-124">
          <mxGeometry width="30" height="40" as="geometry">
            <mxRectangle width="30" height="40" as="alternateBounds" />
          </mxGeometry>
        </mxCell>
        <mxCell id="3OG4NW8DKBGacQzqwBZW-126" value="created_by" style="shape=partialRectangle;connectable=0;fillColor=none;top=0;left=0;bottom=0;right=0;align=left;spacingLeft=6;overflow=hidden;" vertex="1" parent="3OG4NW8DKBGacQzqwBZW-124">
          <mxGeometry x="30" width="130" height="40" as="geometry">
            <mxRectangle width="130" height="40" as="alternateBounds" />
          </mxGeometry>
        </mxCell>
        <mxCell id="3OG4NW8DKBGacQzqwBZW-127" value="bigint&#xa;default 0" style="shape=partialRectangle;connectable=0;fillColor=none;top=0;left=0;bottom=0;right=0;align=left;spacingLeft=6;overflow=hidden;" vertex="1" parent="3OG4NW8DKBGacQzqwBZW-124">
          <mxGeometry x="160" width="210" height="40" as="geometry">
            <mxRectangle width="210" height="40" as="alternateBounds" />
          </mxGeometry>
        </mxCell>
        <mxCell id="3OG4NW8DKBGacQzqwBZW-128" value="创建者ID" style="shape=partialRectangle;connectable=0;fillColor=none;top=0;left=0;bottom=0;right=0;align=left;spacingLeft=6;overflow=hidden;" vertex="1" parent="3OG4NW8DKBGacQzqwBZW-124">
          <mxGeometry x="370" width="110" height="40" as="geometry">
            <mxRectangle width="110" height="40" as="alternateBounds" />
          </mxGeometry>
        </mxCell>
        <mxCell id="3OG4NW8DKBGacQzqwBZW-129" style="shape=tableRow;horizontal=0;startSize=0;swimlaneHead=0;swimlaneBody=0;fillColor=none;collapsible=0;dropTarget=0;points=[[0,0.5],[1,0.5]];portConstraint=eastwest;top=0;left=0;right=0;bottom=0;" vertex="1" parent="3OG4NW8DKBGacQzqwBZW-98">
          <mxGeometry y="240" width="480" height="70" as="geometry" />
        </mxCell>
        <mxCell id="3OG4NW8DKBGacQzqwBZW-130" style="shape=partialRectangle;connectable=0;fillColor=none;top=0;left=0;bottom=0;right=0;editable=1;overflow=hidden;" vertex="1" parent="3OG4NW8DKBGacQzqwBZW-129">
          <mxGeometry width="30" height="70" as="geometry">
            <mxRectangle width="30" height="70" as="alternateBounds" />
          </mxGeometry>
        </mxCell>
        <mxCell id="3OG4NW8DKBGacQzqwBZW-131" value="updated" style="shape=partialRectangle;connectable=0;fillColor=none;top=0;left=0;bottom=0;right=0;align=left;spacingLeft=6;overflow=hidden;" vertex="1" parent="3OG4NW8DKBGacQzqwBZW-129">
          <mxGeometry x="30" width="130" height="70" as="geometry">
            <mxRectangle width="130" height="70" as="alternateBounds" />
          </mxGeometry>
        </mxCell>
        <mxCell id="3OG4NW8DKBGacQzqwBZW-132" value="DATETIME&#xa;DEFAULT CURRENT_TIMESTAMP &#xa;ON UPDATE &#xa;CURRENT_TIMESTAMP&#xa;" style="shape=partialRectangle;connectable=0;fillColor=none;top=0;left=0;bottom=0;right=0;align=left;spacingLeft=6;overflow=hidden;" vertex="1" parent="3OG4NW8DKBGacQzqwBZW-129">
          <mxGeometry x="160" width="210" height="70" as="geometry">
            <mxRectangle width="210" height="70" as="alternateBounds" />
          </mxGeometry>
        </mxCell>
        <mxCell id="3OG4NW8DKBGacQzqwBZW-133" value="更新时间" style="shape=partialRectangle;connectable=0;fillColor=none;top=0;left=0;bottom=0;right=0;align=left;spacingLeft=6;overflow=hidden;" vertex="1" parent="3OG4NW8DKBGacQzqwBZW-129">
          <mxGeometry x="370" width="110" height="70" as="geometry">
            <mxRectangle width="110" height="70" as="alternateBounds" />
          </mxGeometry>
        </mxCell>
        <mxCell id="3OG4NW8DKBGacQzqwBZW-134" style="shape=tableRow;horizontal=0;startSize=0;swimlaneHead=0;swimlaneBody=0;fillColor=none;collapsible=0;dropTarget=0;points=[[0,0.5],[1,0.5]];portConstraint=eastwest;top=0;left=0;right=0;bottom=0;" vertex="1" parent="3OG4NW8DKBGacQzqwBZW-98">
          <mxGeometry y="310" width="480" height="40" as="geometry" />
        </mxCell>
        <mxCell id="3OG4NW8DKBGacQzqwBZW-135" style="shape=partialRectangle;connectable=0;fillColor=none;top=0;left=0;bottom=0;right=0;editable=1;overflow=hidden;" vertex="1" parent="3OG4NW8DKBGacQzqwBZW-134">
          <mxGeometry width="30" height="40" as="geometry">
            <mxRectangle width="30" height="40" as="alternateBounds" />
          </mxGeometry>
        </mxCell>
        <mxCell id="3OG4NW8DKBGacQzqwBZW-136" value="updated_by" style="shape=partialRectangle;connectable=0;fillColor=none;top=0;left=0;bottom=0;right=0;align=left;spacingLeft=6;overflow=hidden;" vertex="1" parent="3OG4NW8DKBGacQzqwBZW-134">
          <mxGeometry x="30" width="130" height="40" as="geometry">
            <mxRectangle width="130" height="40" as="alternateBounds" />
          </mxGeometry>
        </mxCell>
        <mxCell id="3OG4NW8DKBGacQzqwBZW-137" value="bigint&#xa;default 0&#xa;" style="shape=partialRectangle;connectable=0;fillColor=none;top=0;left=0;bottom=0;right=0;align=left;spacingLeft=6;overflow=hidden;" vertex="1" parent="3OG4NW8DKBGacQzqwBZW-134">
          <mxGeometry x="160" width="210" height="40" as="geometry">
            <mxRectangle width="210" height="40" as="alternateBounds" />
          </mxGeometry>
        </mxCell>
        <mxCell id="3OG4NW8DKBGacQzqwBZW-138" value="更新者ID" style="shape=partialRectangle;connectable=0;fillColor=none;top=0;left=0;bottom=0;right=0;align=left;spacingLeft=6;overflow=hidden;" vertex="1" parent="3OG4NW8DKBGacQzqwBZW-134">
          <mxGeometry x="370" width="110" height="40" as="geometry">
            <mxRectangle width="110" height="40" as="alternateBounds" />
          </mxGeometry>
        </mxCell>
        <object label="USER_NOTIFY_PACKAGE" tags="" tooltip="普通表" id="3OG4NW8DKBGacQzqwBZW-139">
          <mxCell style="shape=table;startSize=30;container=1;collapsible=1;childLayout=tableLayout;fixedRows=1;rowLines=0;fontStyle=1;align=center;resizeLast=1;" vertex="1" parent="1">
            <mxGeometry x="560" y="510" width="430" height="380" as="geometry">
              <mxRectangle x="40" y="40" width="120" height="30" as="alternateBounds" />
            </mxGeometry>
          </mxCell>
        </object>
        <mxCell id="3OG4NW8DKBGacQzqwBZW-140" value="" style="shape=tableRow;horizontal=0;startSize=0;swimlaneHead=0;swimlaneBody=0;fillColor=none;collapsible=0;dropTarget=0;points=[[0,0.5],[1,0.5]];portConstraint=eastwest;top=0;left=0;right=0;bottom=1;" vertex="1" parent="3OG4NW8DKBGacQzqwBZW-139">
          <mxGeometry y="30" width="430" height="50" as="geometry" />
        </mxCell>
        <mxCell id="3OG4NW8DKBGacQzqwBZW-141" value="PK" style="shape=partialRectangle;connectable=0;fillColor=none;top=0;left=0;bottom=0;right=0;fontStyle=1;overflow=hidden;" vertex="1" parent="3OG4NW8DKBGacQzqwBZW-140">
          <mxGeometry width="30" height="50" as="geometry">
            <mxRectangle width="30" height="50" as="alternateBounds" />
          </mxGeometry>
        </mxCell>
        <mxCell id="3OG4NW8DKBGacQzqwBZW-142" value="u_nf_pkg_id" style="shape=partialRectangle;connectable=0;fillColor=none;top=0;left=0;bottom=0;right=0;align=left;spacingLeft=6;fontStyle=5;overflow=hidden;" vertex="1" parent="3OG4NW8DKBGacQzqwBZW-140">
          <mxGeometry x="30" width="110" height="50" as="geometry">
            <mxRectangle width="110" height="50" as="alternateBounds" />
          </mxGeometry>
        </mxCell>
        <mxCell id="3OG4NW8DKBGacQzqwBZW-143" value="bigint&#xa;not null&#xa;auto_increment" style="shape=partialRectangle;connectable=0;fillColor=none;top=0;left=0;bottom=0;right=0;align=left;spacingLeft=6;fontStyle=5;overflow=hidden;" vertex="1" parent="3OG4NW8DKBGacQzqwBZW-140">
          <mxGeometry x="140" width="200" height="50" as="geometry">
            <mxRectangle width="200" height="50" as="alternateBounds" />
          </mxGeometry>
        </mxCell>
        <mxCell id="3OG4NW8DKBGacQzqwBZW-144" value="主键ID" style="shape=partialRectangle;connectable=0;fillColor=none;top=0;left=0;bottom=0;right=0;align=left;spacingLeft=6;fontStyle=5;overflow=hidden;" vertex="1" parent="3OG4NW8DKBGacQzqwBZW-140">
          <mxGeometry x="340" width="90" height="50" as="geometry">
            <mxRectangle width="90" height="50" as="alternateBounds" />
          </mxGeometry>
        </mxCell>
        <mxCell id="3OG4NW8DKBGacQzqwBZW-145" value="" style="shape=tableRow;horizontal=0;startSize=0;swimlaneHead=0;swimlaneBody=0;fillColor=none;collapsible=0;dropTarget=0;points=[[0,0.5],[1,0.5]];portConstraint=eastwest;top=0;left=0;right=0;bottom=0;" vertex="1" parent="3OG4NW8DKBGacQzqwBZW-139">
          <mxGeometry y="80" width="430" height="30" as="geometry" />
        </mxCell>
        <mxCell id="3OG4NW8DKBGacQzqwBZW-146" value="" style="shape=partialRectangle;connectable=0;fillColor=none;top=0;left=0;bottom=0;right=0;editable=1;overflow=hidden;" vertex="1" parent="3OG4NW8DKBGacQzqwBZW-145">
          <mxGeometry width="30" height="30" as="geometry">
            <mxRectangle width="30" height="30" as="alternateBounds" />
          </mxGeometry>
        </mxCell>
        <mxCell id="3OG4NW8DKBGacQzqwBZW-147" value="user_id" style="shape=partialRectangle;connectable=0;fillColor=none;top=0;left=0;bottom=0;right=0;align=left;spacingLeft=6;overflow=hidden;" vertex="1" parent="3OG4NW8DKBGacQzqwBZW-145">
          <mxGeometry x="30" width="110" height="30" as="geometry">
            <mxRectangle width="110" height="30" as="alternateBounds" />
          </mxGeometry>
        </mxCell>
        <mxCell id="3OG4NW8DKBGacQzqwBZW-148" value="bigint" style="shape=partialRectangle;connectable=0;fillColor=none;top=0;left=0;bottom=0;right=0;align=left;spacingLeft=6;overflow=hidden;" vertex="1" parent="3OG4NW8DKBGacQzqwBZW-145">
          <mxGeometry x="140" width="200" height="30" as="geometry">
            <mxRectangle width="200" height="30" as="alternateBounds" />
          </mxGeometry>
        </mxCell>
        <mxCell id="3OG4NW8DKBGacQzqwBZW-149" value="用户id" style="shape=partialRectangle;connectable=0;fillColor=none;top=0;left=0;bottom=0;right=0;align=left;spacingLeft=6;overflow=hidden;" vertex="1" parent="3OG4NW8DKBGacQzqwBZW-145">
          <mxGeometry x="340" width="90" height="30" as="geometry">
            <mxRectangle width="90" height="30" as="alternateBounds" />
          </mxGeometry>
        </mxCell>
        <mxCell id="3OG4NW8DKBGacQzqwBZW-150" value="" style="shape=tableRow;horizontal=0;startSize=0;swimlaneHead=0;swimlaneBody=0;fillColor=none;collapsible=0;dropTarget=0;points=[[0,0.5],[1,0.5]];portConstraint=eastwest;top=0;left=0;right=0;bottom=0;" vertex="1" parent="3OG4NW8DKBGacQzqwBZW-139">
          <mxGeometry y="110" width="430" height="30" as="geometry" />
        </mxCell>
        <mxCell id="3OG4NW8DKBGacQzqwBZW-151" value="" style="shape=partialRectangle;connectable=0;fillColor=none;top=0;left=0;bottom=0;right=0;editable=1;overflow=hidden;" vertex="1" parent="3OG4NW8DKBGacQzqwBZW-150">
          <mxGeometry width="30" height="30" as="geometry">
            <mxRectangle width="30" height="30" as="alternateBounds" />
          </mxGeometry>
        </mxCell>
        <mxCell id="3OG4NW8DKBGacQzqwBZW-152" value="notify_id" style="shape=partialRectangle;connectable=0;fillColor=none;top=0;left=0;bottom=0;right=0;align=left;spacingLeft=6;overflow=hidden;" vertex="1" parent="3OG4NW8DKBGacQzqwBZW-150">
          <mxGeometry x="30" width="110" height="30" as="geometry">
            <mxRectangle width="110" height="30" as="alternateBounds" />
          </mxGeometry>
        </mxCell>
        <mxCell id="3OG4NW8DKBGacQzqwBZW-153" value="bigint" style="shape=partialRectangle;connectable=0;fillColor=none;top=0;left=0;bottom=0;right=0;align=left;spacingLeft=6;overflow=hidden;" vertex="1" parent="3OG4NW8DKBGacQzqwBZW-150">
          <mxGeometry x="140" width="200" height="30" as="geometry">
            <mxRectangle width="200" height="30" as="alternateBounds" />
          </mxGeometry>
        </mxCell>
        <mxCell id="3OG4NW8DKBGacQzqwBZW-154" value="通知模式Id" style="shape=partialRectangle;connectable=0;fillColor=none;top=0;left=0;bottom=0;right=0;align=left;spacingLeft=6;overflow=hidden;" vertex="1" parent="3OG4NW8DKBGacQzqwBZW-150">
          <mxGeometry x="340" width="90" height="30" as="geometry">
            <mxRectangle width="90" height="30" as="alternateBounds" />
          </mxGeometry>
        </mxCell>
        <mxCell id="3OG4NW8DKBGacQzqwBZW-155" value="" style="shape=tableRow;horizontal=0;startSize=0;swimlaneHead=0;swimlaneBody=0;fillColor=none;collapsible=0;dropTarget=0;points=[[0,0.5],[1,0.5]];portConstraint=eastwest;top=0;left=0;right=0;bottom=0;" vertex="1" parent="3OG4NW8DKBGacQzqwBZW-139">
          <mxGeometry y="140" width="430" height="30" as="geometry" />
        </mxCell>
        <mxCell id="3OG4NW8DKBGacQzqwBZW-156" value="" style="shape=partialRectangle;connectable=0;fillColor=none;top=0;left=0;bottom=0;right=0;editable=1;overflow=hidden;" vertex="1" parent="3OG4NW8DKBGacQzqwBZW-155">
          <mxGeometry width="30" height="30" as="geometry">
            <mxRectangle width="30" height="30" as="alternateBounds" />
          </mxGeometry>
        </mxCell>
        <mxCell id="3OG4NW8DKBGacQzqwBZW-157" value="remainder" style="shape=partialRectangle;connectable=0;fillColor=none;top=0;left=0;bottom=0;right=0;align=left;spacingLeft=6;overflow=hidden;" vertex="1" parent="3OG4NW8DKBGacQzqwBZW-155">
          <mxGeometry x="30" width="110" height="30" as="geometry">
            <mxRectangle width="110" height="30" as="alternateBounds" />
          </mxGeometry>
        </mxCell>
        <mxCell id="3OG4NW8DKBGacQzqwBZW-158" value="int" style="shape=partialRectangle;connectable=0;fillColor=none;top=0;left=0;bottom=0;right=0;align=left;spacingLeft=6;overflow=hidden;" vertex="1" parent="3OG4NW8DKBGacQzqwBZW-155">
          <mxGeometry x="140" width="200" height="30" as="geometry">
            <mxRectangle width="200" height="30" as="alternateBounds" />
          </mxGeometry>
        </mxCell>
        <mxCell id="3OG4NW8DKBGacQzqwBZW-159" value="剩余条数" style="shape=partialRectangle;connectable=0;fillColor=none;top=0;left=0;bottom=0;right=0;align=left;spacingLeft=6;overflow=hidden;" vertex="1" parent="3OG4NW8DKBGacQzqwBZW-155">
          <mxGeometry x="340" width="90" height="30" as="geometry">
            <mxRectangle width="90" height="30" as="alternateBounds" />
          </mxGeometry>
        </mxCell>
        <mxCell id="3OG4NW8DKBGacQzqwBZW-442" style="shape=tableRow;horizontal=0;startSize=0;swimlaneHead=0;swimlaneBody=0;fillColor=none;collapsible=0;dropTarget=0;points=[[0,0.5],[1,0.5]];portConstraint=eastwest;top=0;left=0;right=0;bottom=0;" vertex="1" parent="3OG4NW8DKBGacQzqwBZW-139">
          <mxGeometry y="170" width="430" height="30" as="geometry" />
        </mxCell>
        <mxCell id="3OG4NW8DKBGacQzqwBZW-443" style="shape=partialRectangle;connectable=0;fillColor=none;top=0;left=0;bottom=0;right=0;editable=1;overflow=hidden;" vertex="1" parent="3OG4NW8DKBGacQzqwBZW-442">
          <mxGeometry width="30" height="30" as="geometry">
            <mxRectangle width="30" height="30" as="alternateBounds" />
          </mxGeometry>
        </mxCell>
        <mxCell id="3OG4NW8DKBGacQzqwBZW-444" value="unitprice" style="shape=partialRectangle;connectable=0;fillColor=none;top=0;left=0;bottom=0;right=0;align=left;spacingLeft=6;overflow=hidden;" vertex="1" parent="3OG4NW8DKBGacQzqwBZW-442">
          <mxGeometry x="30" width="110" height="30" as="geometry">
            <mxRectangle width="110" height="30" as="alternateBounds" />
          </mxGeometry>
        </mxCell>
        <mxCell id="3OG4NW8DKBGacQzqwBZW-445" value="double" style="shape=partialRectangle;connectable=0;fillColor=none;top=0;left=0;bottom=0;right=0;align=left;spacingLeft=6;overflow=hidden;" vertex="1" parent="3OG4NW8DKBGacQzqwBZW-442">
          <mxGeometry x="140" width="200" height="30" as="geometry">
            <mxRectangle width="200" height="30" as="alternateBounds" />
          </mxGeometry>
        </mxCell>
        <mxCell id="3OG4NW8DKBGacQzqwBZW-446" value="单价" style="shape=partialRectangle;connectable=0;fillColor=none;top=0;left=0;bottom=0;right=0;align=left;spacingLeft=6;overflow=hidden;" vertex="1" parent="3OG4NW8DKBGacQzqwBZW-442">
          <mxGeometry x="340" width="90" height="30" as="geometry">
            <mxRectangle width="90" height="30" as="alternateBounds" />
          </mxGeometry>
        </mxCell>
        <mxCell id="3OG4NW8DKBGacQzqwBZW-160" style="shape=tableRow;horizontal=0;startSize=0;swimlaneHead=0;swimlaneBody=0;fillColor=none;collapsible=0;dropTarget=0;points=[[0,0.5],[1,0.5]];portConstraint=eastwest;top=0;left=0;right=0;bottom=0;" vertex="1" parent="3OG4NW8DKBGacQzqwBZW-139">
          <mxGeometry y="200" width="430" height="30" as="geometry" />
        </mxCell>
        <mxCell id="3OG4NW8DKBGacQzqwBZW-161" style="shape=partialRectangle;connectable=0;fillColor=none;top=0;left=0;bottom=0;right=0;editable=1;overflow=hidden;" vertex="1" parent="3OG4NW8DKBGacQzqwBZW-160">
          <mxGeometry width="30" height="30" as="geometry">
            <mxRectangle width="30" height="30" as="alternateBounds" />
          </mxGeometry>
        </mxCell>
        <mxCell id="3OG4NW8DKBGacQzqwBZW-162" value="created" style="shape=partialRectangle;connectable=0;fillColor=none;top=0;left=0;bottom=0;right=0;align=left;spacingLeft=6;overflow=hidden;" vertex="1" parent="3OG4NW8DKBGacQzqwBZW-160">
          <mxGeometry x="30" width="110" height="30" as="geometry">
            <mxRectangle width="110" height="30" as="alternateBounds" />
          </mxGeometry>
        </mxCell>
        <mxCell id="3OG4NW8DKBGacQzqwBZW-163" value="DATETIME&#xa;DEFAULT CURRENT_TIMESTAMP" style="shape=partialRectangle;connectable=0;fillColor=none;top=0;left=0;bottom=0;right=0;align=left;spacingLeft=6;overflow=hidden;" vertex="1" parent="3OG4NW8DKBGacQzqwBZW-160">
          <mxGeometry x="140" width="200" height="30" as="geometry">
            <mxRectangle width="200" height="30" as="alternateBounds" />
          </mxGeometry>
        </mxCell>
        <mxCell id="3OG4NW8DKBGacQzqwBZW-164" value="创建时间" style="shape=partialRectangle;connectable=0;fillColor=none;top=0;left=0;bottom=0;right=0;align=left;spacingLeft=6;overflow=hidden;" vertex="1" parent="3OG4NW8DKBGacQzqwBZW-160">
          <mxGeometry x="340" width="90" height="30" as="geometry">
            <mxRectangle width="90" height="30" as="alternateBounds" />
          </mxGeometry>
        </mxCell>
        <mxCell id="3OG4NW8DKBGacQzqwBZW-165" style="shape=tableRow;horizontal=0;startSize=0;swimlaneHead=0;swimlaneBody=0;fillColor=none;collapsible=0;dropTarget=0;points=[[0,0.5],[1,0.5]];portConstraint=eastwest;top=0;left=0;right=0;bottom=0;" vertex="1" parent="3OG4NW8DKBGacQzqwBZW-139">
          <mxGeometry y="230" width="430" height="40" as="geometry" />
        </mxCell>
        <mxCell id="3OG4NW8DKBGacQzqwBZW-166" style="shape=partialRectangle;connectable=0;fillColor=none;top=0;left=0;bottom=0;right=0;editable=1;overflow=hidden;" vertex="1" parent="3OG4NW8DKBGacQzqwBZW-165">
          <mxGeometry width="30" height="40" as="geometry">
            <mxRectangle width="30" height="40" as="alternateBounds" />
          </mxGeometry>
        </mxCell>
        <mxCell id="3OG4NW8DKBGacQzqwBZW-167" value="created_by" style="shape=partialRectangle;connectable=0;fillColor=none;top=0;left=0;bottom=0;right=0;align=left;spacingLeft=6;overflow=hidden;" vertex="1" parent="3OG4NW8DKBGacQzqwBZW-165">
          <mxGeometry x="30" width="110" height="40" as="geometry">
            <mxRectangle width="110" height="40" as="alternateBounds" />
          </mxGeometry>
        </mxCell>
        <mxCell id="3OG4NW8DKBGacQzqwBZW-168" value="bigint&#xa;default 0" style="shape=partialRectangle;connectable=0;fillColor=none;top=0;left=0;bottom=0;right=0;align=left;spacingLeft=6;overflow=hidden;" vertex="1" parent="3OG4NW8DKBGacQzqwBZW-165">
          <mxGeometry x="140" width="200" height="40" as="geometry">
            <mxRectangle width="200" height="40" as="alternateBounds" />
          </mxGeometry>
        </mxCell>
        <mxCell id="3OG4NW8DKBGacQzqwBZW-169" value="创建者ID" style="shape=partialRectangle;connectable=0;fillColor=none;top=0;left=0;bottom=0;right=0;align=left;spacingLeft=6;overflow=hidden;" vertex="1" parent="3OG4NW8DKBGacQzqwBZW-165">
          <mxGeometry x="340" width="90" height="40" as="geometry">
            <mxRectangle width="90" height="40" as="alternateBounds" />
          </mxGeometry>
        </mxCell>
        <mxCell id="3OG4NW8DKBGacQzqwBZW-170" style="shape=tableRow;horizontal=0;startSize=0;swimlaneHead=0;swimlaneBody=0;fillColor=none;collapsible=0;dropTarget=0;points=[[0,0.5],[1,0.5]];portConstraint=eastwest;top=0;left=0;right=0;bottom=0;" vertex="1" parent="3OG4NW8DKBGacQzqwBZW-139">
          <mxGeometry y="270" width="430" height="70" as="geometry" />
        </mxCell>
        <mxCell id="3OG4NW8DKBGacQzqwBZW-171" style="shape=partialRectangle;connectable=0;fillColor=none;top=0;left=0;bottom=0;right=0;editable=1;overflow=hidden;" vertex="1" parent="3OG4NW8DKBGacQzqwBZW-170">
          <mxGeometry width="30" height="70" as="geometry">
            <mxRectangle width="30" height="70" as="alternateBounds" />
          </mxGeometry>
        </mxCell>
        <mxCell id="3OG4NW8DKBGacQzqwBZW-172" value="updated" style="shape=partialRectangle;connectable=0;fillColor=none;top=0;left=0;bottom=0;right=0;align=left;spacingLeft=6;overflow=hidden;" vertex="1" parent="3OG4NW8DKBGacQzqwBZW-170">
          <mxGeometry x="30" width="110" height="70" as="geometry">
            <mxRectangle width="110" height="70" as="alternateBounds" />
          </mxGeometry>
        </mxCell>
        <mxCell id="3OG4NW8DKBGacQzqwBZW-173" value="DATETIME&#xa;DEFAULT CURRENT_TIMESTAMP &#xa;ON UPDATE &#xa;CURRENT_TIMESTAMP&#xa;" style="shape=partialRectangle;connectable=0;fillColor=none;top=0;left=0;bottom=0;right=0;align=left;spacingLeft=6;overflow=hidden;" vertex="1" parent="3OG4NW8DKBGacQzqwBZW-170">
          <mxGeometry x="140" width="200" height="70" as="geometry">
            <mxRectangle width="200" height="70" as="alternateBounds" />
          </mxGeometry>
        </mxCell>
        <mxCell id="3OG4NW8DKBGacQzqwBZW-174" value="更新时间" style="shape=partialRectangle;connectable=0;fillColor=none;top=0;left=0;bottom=0;right=0;align=left;spacingLeft=6;overflow=hidden;" vertex="1" parent="3OG4NW8DKBGacQzqwBZW-170">
          <mxGeometry x="340" width="90" height="70" as="geometry">
            <mxRectangle width="90" height="70" as="alternateBounds" />
          </mxGeometry>
        </mxCell>
        <mxCell id="3OG4NW8DKBGacQzqwBZW-175" style="shape=tableRow;horizontal=0;startSize=0;swimlaneHead=0;swimlaneBody=0;fillColor=none;collapsible=0;dropTarget=0;points=[[0,0.5],[1,0.5]];portConstraint=eastwest;top=0;left=0;right=0;bottom=0;" vertex="1" parent="3OG4NW8DKBGacQzqwBZW-139">
          <mxGeometry y="340" width="430" height="40" as="geometry" />
        </mxCell>
        <mxCell id="3OG4NW8DKBGacQzqwBZW-176" style="shape=partialRectangle;connectable=0;fillColor=none;top=0;left=0;bottom=0;right=0;editable=1;overflow=hidden;" vertex="1" parent="3OG4NW8DKBGacQzqwBZW-175">
          <mxGeometry width="30" height="40" as="geometry">
            <mxRectangle width="30" height="40" as="alternateBounds" />
          </mxGeometry>
        </mxCell>
        <mxCell id="3OG4NW8DKBGacQzqwBZW-177" value="updated_by" style="shape=partialRectangle;connectable=0;fillColor=none;top=0;left=0;bottom=0;right=0;align=left;spacingLeft=6;overflow=hidden;" vertex="1" parent="3OG4NW8DKBGacQzqwBZW-175">
          <mxGeometry x="30" width="110" height="40" as="geometry">
            <mxRectangle width="110" height="40" as="alternateBounds" />
          </mxGeometry>
        </mxCell>
        <mxCell id="3OG4NW8DKBGacQzqwBZW-178" value="bigint&#xa;default 0&#xa;" style="shape=partialRectangle;connectable=0;fillColor=none;top=0;left=0;bottom=0;right=0;align=left;spacingLeft=6;overflow=hidden;" vertex="1" parent="3OG4NW8DKBGacQzqwBZW-175">
          <mxGeometry x="140" width="200" height="40" as="geometry">
            <mxRectangle width="200" height="40" as="alternateBounds" />
          </mxGeometry>
        </mxCell>
        <mxCell id="3OG4NW8DKBGacQzqwBZW-179" value="更新者ID" style="shape=partialRectangle;connectable=0;fillColor=none;top=0;left=0;bottom=0;right=0;align=left;spacingLeft=6;overflow=hidden;" vertex="1" parent="3OG4NW8DKBGacQzqwBZW-175">
          <mxGeometry x="340" width="90" height="40" as="geometry">
            <mxRectangle width="90" height="40" as="alternateBounds" />
          </mxGeometry>
        </mxCell>
        <object label="obj_notify_ref" tags="配置告警对象（例如告警项）与告警模式关联表" tooltip="普通表" id="3OG4NW8DKBGacQzqwBZW-180">
          <mxCell style="shape=table;startSize=30;container=1;collapsible=1;childLayout=tableLayout;fixedRows=1;rowLines=0;fontStyle=1;align=center;resizeLast=1;" vertex="1" parent="1">
            <mxGeometry x="1620" y="40" width="630" height="350" as="geometry">
              <mxRectangle x="40" y="40" width="120" height="30" as="alternateBounds" />
            </mxGeometry>
          </mxCell>
        </object>
        <mxCell id="3OG4NW8DKBGacQzqwBZW-181" value="" style="shape=tableRow;horizontal=0;startSize=0;swimlaneHead=0;swimlaneBody=0;fillColor=none;collapsible=0;dropTarget=0;points=[[0,0.5],[1,0.5]];portConstraint=eastwest;top=0;left=0;right=0;bottom=1;" vertex="1" parent="3OG4NW8DKBGacQzqwBZW-180">
          <mxGeometry y="30" width="630" height="50" as="geometry" />
        </mxCell>
        <mxCell id="3OG4NW8DKBGacQzqwBZW-182" value="PK" style="shape=partialRectangle;connectable=0;fillColor=none;top=0;left=0;bottom=0;right=0;fontStyle=1;overflow=hidden;" vertex="1" parent="3OG4NW8DKBGacQzqwBZW-181">
          <mxGeometry width="30" height="50" as="geometry">
            <mxRectangle width="30" height="50" as="alternateBounds" />
          </mxGeometry>
        </mxCell>
        <mxCell id="3OG4NW8DKBGacQzqwBZW-183" value="obj_notify_ref_id" style="shape=partialRectangle;connectable=0;fillColor=none;top=0;left=0;bottom=0;right=0;align=left;spacingLeft=6;fontStyle=5;overflow=hidden;" vertex="1" parent="3OG4NW8DKBGacQzqwBZW-181">
          <mxGeometry x="30" width="110" height="50" as="geometry">
            <mxRectangle width="110" height="50" as="alternateBounds" />
          </mxGeometry>
        </mxCell>
        <mxCell id="3OG4NW8DKBGacQzqwBZW-184" value="bigint&#xa;not null&#xa;auto_increment" style="shape=partialRectangle;connectable=0;fillColor=none;top=0;left=0;bottom=0;right=0;align=left;spacingLeft=6;fontStyle=5;overflow=hidden;" vertex="1" parent="3OG4NW8DKBGacQzqwBZW-181">
          <mxGeometry x="140" width="200" height="50" as="geometry">
            <mxRectangle width="200" height="50" as="alternateBounds" />
          </mxGeometry>
        </mxCell>
        <mxCell id="3OG4NW8DKBGacQzqwBZW-185" value="配置告警对象（例如告警项）与告警模式关联ID" style="shape=partialRectangle;connectable=0;fillColor=none;top=0;left=0;bottom=0;right=0;align=left;spacingLeft=6;fontStyle=5;overflow=hidden;" vertex="1" parent="3OG4NW8DKBGacQzqwBZW-181">
          <mxGeometry x="340" width="290" height="50" as="geometry">
            <mxRectangle width="290" height="50" as="alternateBounds" />
          </mxGeometry>
        </mxCell>
        <mxCell id="3OG4NW8DKBGacQzqwBZW-186" value="" style="shape=tableRow;horizontal=0;startSize=0;swimlaneHead=0;swimlaneBody=0;fillColor=none;collapsible=0;dropTarget=0;points=[[0,0.5],[1,0.5]];portConstraint=eastwest;top=0;left=0;right=0;bottom=0;" vertex="1" parent="3OG4NW8DKBGacQzqwBZW-180">
          <mxGeometry y="80" width="630" height="30" as="geometry" />
        </mxCell>
        <mxCell id="3OG4NW8DKBGacQzqwBZW-187" value="" style="shape=partialRectangle;connectable=0;fillColor=none;top=0;left=0;bottom=0;right=0;editable=1;overflow=hidden;" vertex="1" parent="3OG4NW8DKBGacQzqwBZW-186">
          <mxGeometry width="30" height="30" as="geometry">
            <mxRectangle width="30" height="30" as="alternateBounds" />
          </mxGeometry>
        </mxCell>
        <mxCell id="3OG4NW8DKBGacQzqwBZW-188" value="obj_id" style="shape=partialRectangle;connectable=0;fillColor=none;top=0;left=0;bottom=0;right=0;align=left;spacingLeft=6;overflow=hidden;" vertex="1" parent="3OG4NW8DKBGacQzqwBZW-186">
          <mxGeometry x="30" width="110" height="30" as="geometry">
            <mxRectangle width="110" height="30" as="alternateBounds" />
          </mxGeometry>
        </mxCell>
        <mxCell id="3OG4NW8DKBGacQzqwBZW-189" value="bigint" style="shape=partialRectangle;connectable=0;fillColor=none;top=0;left=0;bottom=0;right=0;align=left;spacingLeft=6;overflow=hidden;" vertex="1" parent="3OG4NW8DKBGacQzqwBZW-186">
          <mxGeometry x="140" width="200" height="30" as="geometry">
            <mxRectangle width="200" height="30" as="alternateBounds" />
          </mxGeometry>
        </mxCell>
        <mxCell id="3OG4NW8DKBGacQzqwBZW-190" value="告警对象（例如告警项）ID" style="shape=partialRectangle;connectable=0;fillColor=none;top=0;left=0;bottom=0;right=0;align=left;spacingLeft=6;overflow=hidden;" vertex="1" parent="3OG4NW8DKBGacQzqwBZW-186">
          <mxGeometry x="340" width="290" height="30" as="geometry">
            <mxRectangle width="290" height="30" as="alternateBounds" />
          </mxGeometry>
        </mxCell>
        <mxCell id="3OG4NW8DKBGacQzqwBZW-191" value="" style="shape=tableRow;horizontal=0;startSize=0;swimlaneHead=0;swimlaneBody=0;fillColor=none;collapsible=0;dropTarget=0;points=[[0,0.5],[1,0.5]];portConstraint=eastwest;top=0;left=0;right=0;bottom=0;" vertex="1" parent="3OG4NW8DKBGacQzqwBZW-180">
          <mxGeometry y="110" width="630" height="30" as="geometry" />
        </mxCell>
        <mxCell id="3OG4NW8DKBGacQzqwBZW-192" value="" style="shape=partialRectangle;connectable=0;fillColor=none;top=0;left=0;bottom=0;right=0;editable=1;overflow=hidden;" vertex="1" parent="3OG4NW8DKBGacQzqwBZW-191">
          <mxGeometry width="30" height="30" as="geometry">
            <mxRectangle width="30" height="30" as="alternateBounds" />
          </mxGeometry>
        </mxCell>
        <mxCell id="3OG4NW8DKBGacQzqwBZW-193" value="notify_id" style="shape=partialRectangle;connectable=0;fillColor=none;top=0;left=0;bottom=0;right=0;align=left;spacingLeft=6;overflow=hidden;" vertex="1" parent="3OG4NW8DKBGacQzqwBZW-191">
          <mxGeometry x="30" width="110" height="30" as="geometry">
            <mxRectangle width="110" height="30" as="alternateBounds" />
          </mxGeometry>
        </mxCell>
        <mxCell id="3OG4NW8DKBGacQzqwBZW-194" value="bigint" style="shape=partialRectangle;connectable=0;fillColor=none;top=0;left=0;bottom=0;right=0;align=left;spacingLeft=6;overflow=hidden;" vertex="1" parent="3OG4NW8DKBGacQzqwBZW-191">
          <mxGeometry x="140" width="200" height="30" as="geometry">
            <mxRectangle width="200" height="30" as="alternateBounds" />
          </mxGeometry>
        </mxCell>
        <mxCell id="3OG4NW8DKBGacQzqwBZW-195" value="告警模式ID" style="shape=partialRectangle;connectable=0;fillColor=none;top=0;left=0;bottom=0;right=0;align=left;spacingLeft=6;overflow=hidden;" vertex="1" parent="3OG4NW8DKBGacQzqwBZW-191">
          <mxGeometry x="340" width="290" height="30" as="geometry">
            <mxRectangle width="290" height="30" as="alternateBounds" />
          </mxGeometry>
        </mxCell>
        <mxCell id="3OG4NW8DKBGacQzqwBZW-196" value="" style="shape=tableRow;horizontal=0;startSize=0;swimlaneHead=0;swimlaneBody=0;fillColor=none;collapsible=0;dropTarget=0;points=[[0,0.5],[1,0.5]];portConstraint=eastwest;top=0;left=0;right=0;bottom=0;" vertex="1" parent="3OG4NW8DKBGacQzqwBZW-180">
          <mxGeometry y="140" width="630" height="30" as="geometry" />
        </mxCell>
        <mxCell id="3OG4NW8DKBGacQzqwBZW-197" value="" style="shape=partialRectangle;connectable=0;fillColor=none;top=0;left=0;bottom=0;right=0;editable=1;overflow=hidden;" vertex="1" parent="3OG4NW8DKBGacQzqwBZW-196">
          <mxGeometry width="30" height="30" as="geometry">
            <mxRectangle width="30" height="30" as="alternateBounds" />
          </mxGeometry>
        </mxCell>
        <mxCell id="3OG4NW8DKBGacQzqwBZW-198" value="type" style="shape=partialRectangle;connectable=0;fillColor=none;top=0;left=0;bottom=0;right=0;align=left;spacingLeft=6;overflow=hidden;" vertex="1" parent="3OG4NW8DKBGacQzqwBZW-196">
          <mxGeometry x="30" width="110" height="30" as="geometry">
            <mxRectangle width="110" height="30" as="alternateBounds" />
          </mxGeometry>
        </mxCell>
        <mxCell id="3OG4NW8DKBGacQzqwBZW-199" value="varchar(20)" style="shape=partialRectangle;connectable=0;fillColor=none;top=0;left=0;bottom=0;right=0;align=left;spacingLeft=6;overflow=hidden;" vertex="1" parent="3OG4NW8DKBGacQzqwBZW-196">
          <mxGeometry x="140" width="200" height="30" as="geometry">
            <mxRectangle width="200" height="30" as="alternateBounds" />
          </mxGeometry>
        </mxCell>
        <mxCell id="3OG4NW8DKBGacQzqwBZW-200" value="告警对象类型" style="shape=partialRectangle;connectable=0;fillColor=none;top=0;left=0;bottom=0;right=0;align=left;spacingLeft=6;overflow=hidden;" vertex="1" parent="3OG4NW8DKBGacQzqwBZW-196">
          <mxGeometry x="340" width="290" height="30" as="geometry">
            <mxRectangle width="290" height="30" as="alternateBounds" />
          </mxGeometry>
        </mxCell>
        <mxCell id="3OG4NW8DKBGacQzqwBZW-201" style="shape=tableRow;horizontal=0;startSize=0;swimlaneHead=0;swimlaneBody=0;fillColor=none;collapsible=0;dropTarget=0;points=[[0,0.5],[1,0.5]];portConstraint=eastwest;top=0;left=0;right=0;bottom=0;" vertex="1" parent="3OG4NW8DKBGacQzqwBZW-180">
          <mxGeometry y="170" width="630" height="30" as="geometry" />
        </mxCell>
        <mxCell id="3OG4NW8DKBGacQzqwBZW-202" style="shape=partialRectangle;connectable=0;fillColor=none;top=0;left=0;bottom=0;right=0;editable=1;overflow=hidden;" vertex="1" parent="3OG4NW8DKBGacQzqwBZW-201">
          <mxGeometry width="30" height="30" as="geometry">
            <mxRectangle width="30" height="30" as="alternateBounds" />
          </mxGeometry>
        </mxCell>
        <mxCell id="3OG4NW8DKBGacQzqwBZW-203" value="created" style="shape=partialRectangle;connectable=0;fillColor=none;top=0;left=0;bottom=0;right=0;align=left;spacingLeft=6;overflow=hidden;" vertex="1" parent="3OG4NW8DKBGacQzqwBZW-201">
          <mxGeometry x="30" width="110" height="30" as="geometry">
            <mxRectangle width="110" height="30" as="alternateBounds" />
          </mxGeometry>
        </mxCell>
        <mxCell id="3OG4NW8DKBGacQzqwBZW-204" value="DATETIME&#xa;DEFAULT CURRENT_TIMESTAMP" style="shape=partialRectangle;connectable=0;fillColor=none;top=0;left=0;bottom=0;right=0;align=left;spacingLeft=6;overflow=hidden;" vertex="1" parent="3OG4NW8DKBGacQzqwBZW-201">
          <mxGeometry x="140" width="200" height="30" as="geometry">
            <mxRectangle width="200" height="30" as="alternateBounds" />
          </mxGeometry>
        </mxCell>
        <mxCell id="3OG4NW8DKBGacQzqwBZW-205" value="创建时间" style="shape=partialRectangle;connectable=0;fillColor=none;top=0;left=0;bottom=0;right=0;align=left;spacingLeft=6;overflow=hidden;" vertex="1" parent="3OG4NW8DKBGacQzqwBZW-201">
          <mxGeometry x="340" width="290" height="30" as="geometry">
            <mxRectangle width="290" height="30" as="alternateBounds" />
          </mxGeometry>
        </mxCell>
        <mxCell id="3OG4NW8DKBGacQzqwBZW-206" style="shape=tableRow;horizontal=0;startSize=0;swimlaneHead=0;swimlaneBody=0;fillColor=none;collapsible=0;dropTarget=0;points=[[0,0.5],[1,0.5]];portConstraint=eastwest;top=0;left=0;right=0;bottom=0;" vertex="1" parent="3OG4NW8DKBGacQzqwBZW-180">
          <mxGeometry y="200" width="630" height="40" as="geometry" />
        </mxCell>
        <mxCell id="3OG4NW8DKBGacQzqwBZW-207" style="shape=partialRectangle;connectable=0;fillColor=none;top=0;left=0;bottom=0;right=0;editable=1;overflow=hidden;" vertex="1" parent="3OG4NW8DKBGacQzqwBZW-206">
          <mxGeometry width="30" height="40" as="geometry">
            <mxRectangle width="30" height="40" as="alternateBounds" />
          </mxGeometry>
        </mxCell>
        <mxCell id="3OG4NW8DKBGacQzqwBZW-208" value="created_by" style="shape=partialRectangle;connectable=0;fillColor=none;top=0;left=0;bottom=0;right=0;align=left;spacingLeft=6;overflow=hidden;" vertex="1" parent="3OG4NW8DKBGacQzqwBZW-206">
          <mxGeometry x="30" width="110" height="40" as="geometry">
            <mxRectangle width="110" height="40" as="alternateBounds" />
          </mxGeometry>
        </mxCell>
        <mxCell id="3OG4NW8DKBGacQzqwBZW-209" value="bigint&#xa;default 0" style="shape=partialRectangle;connectable=0;fillColor=none;top=0;left=0;bottom=0;right=0;align=left;spacingLeft=6;overflow=hidden;" vertex="1" parent="3OG4NW8DKBGacQzqwBZW-206">
          <mxGeometry x="140" width="200" height="40" as="geometry">
            <mxRectangle width="200" height="40" as="alternateBounds" />
          </mxGeometry>
        </mxCell>
        <mxCell id="3OG4NW8DKBGacQzqwBZW-210" value="创建者ID" style="shape=partialRectangle;connectable=0;fillColor=none;top=0;left=0;bottom=0;right=0;align=left;spacingLeft=6;overflow=hidden;" vertex="1" parent="3OG4NW8DKBGacQzqwBZW-206">
          <mxGeometry x="340" width="290" height="40" as="geometry">
            <mxRectangle width="290" height="40" as="alternateBounds" />
          </mxGeometry>
        </mxCell>
        <mxCell id="3OG4NW8DKBGacQzqwBZW-211" style="shape=tableRow;horizontal=0;startSize=0;swimlaneHead=0;swimlaneBody=0;fillColor=none;collapsible=0;dropTarget=0;points=[[0,0.5],[1,0.5]];portConstraint=eastwest;top=0;left=0;right=0;bottom=0;" vertex="1" parent="3OG4NW8DKBGacQzqwBZW-180">
          <mxGeometry y="240" width="630" height="70" as="geometry" />
        </mxCell>
        <mxCell id="3OG4NW8DKBGacQzqwBZW-212" style="shape=partialRectangle;connectable=0;fillColor=none;top=0;left=0;bottom=0;right=0;editable=1;overflow=hidden;" vertex="1" parent="3OG4NW8DKBGacQzqwBZW-211">
          <mxGeometry width="30" height="70" as="geometry">
            <mxRectangle width="30" height="70" as="alternateBounds" />
          </mxGeometry>
        </mxCell>
        <mxCell id="3OG4NW8DKBGacQzqwBZW-213" value="updated" style="shape=partialRectangle;connectable=0;fillColor=none;top=0;left=0;bottom=0;right=0;align=left;spacingLeft=6;overflow=hidden;" vertex="1" parent="3OG4NW8DKBGacQzqwBZW-211">
          <mxGeometry x="30" width="110" height="70" as="geometry">
            <mxRectangle width="110" height="70" as="alternateBounds" />
          </mxGeometry>
        </mxCell>
        <mxCell id="3OG4NW8DKBGacQzqwBZW-214" value="DATETIME&#xa;DEFAULT CURRENT_TIMESTAMP &#xa;ON UPDATE &#xa;CURRENT_TIMESTAMP&#xa;" style="shape=partialRectangle;connectable=0;fillColor=none;top=0;left=0;bottom=0;right=0;align=left;spacingLeft=6;overflow=hidden;" vertex="1" parent="3OG4NW8DKBGacQzqwBZW-211">
          <mxGeometry x="140" width="200" height="70" as="geometry">
            <mxRectangle width="200" height="70" as="alternateBounds" />
          </mxGeometry>
        </mxCell>
        <mxCell id="3OG4NW8DKBGacQzqwBZW-215" value="更新时间" style="shape=partialRectangle;connectable=0;fillColor=none;top=0;left=0;bottom=0;right=0;align=left;spacingLeft=6;overflow=hidden;" vertex="1" parent="3OG4NW8DKBGacQzqwBZW-211">
          <mxGeometry x="340" width="290" height="70" as="geometry">
            <mxRectangle width="290" height="70" as="alternateBounds" />
          </mxGeometry>
        </mxCell>
        <mxCell id="3OG4NW8DKBGacQzqwBZW-216" style="shape=tableRow;horizontal=0;startSize=0;swimlaneHead=0;swimlaneBody=0;fillColor=none;collapsible=0;dropTarget=0;points=[[0,0.5],[1,0.5]];portConstraint=eastwest;top=0;left=0;right=0;bottom=0;" vertex="1" parent="3OG4NW8DKBGacQzqwBZW-180">
          <mxGeometry y="310" width="630" height="40" as="geometry" />
        </mxCell>
        <mxCell id="3OG4NW8DKBGacQzqwBZW-217" style="shape=partialRectangle;connectable=0;fillColor=none;top=0;left=0;bottom=0;right=0;editable=1;overflow=hidden;" vertex="1" parent="3OG4NW8DKBGacQzqwBZW-216">
          <mxGeometry width="30" height="40" as="geometry">
            <mxRectangle width="30" height="40" as="alternateBounds" />
          </mxGeometry>
        </mxCell>
        <mxCell id="3OG4NW8DKBGacQzqwBZW-218" value="updated_by" style="shape=partialRectangle;connectable=0;fillColor=none;top=0;left=0;bottom=0;right=0;align=left;spacingLeft=6;overflow=hidden;" vertex="1" parent="3OG4NW8DKBGacQzqwBZW-216">
          <mxGeometry x="30" width="110" height="40" as="geometry">
            <mxRectangle width="110" height="40" as="alternateBounds" />
          </mxGeometry>
        </mxCell>
        <mxCell id="3OG4NW8DKBGacQzqwBZW-219" value="bigint&#xa;default 0&#xa;" style="shape=partialRectangle;connectable=0;fillColor=none;top=0;left=0;bottom=0;right=0;align=left;spacingLeft=6;overflow=hidden;" vertex="1" parent="3OG4NW8DKBGacQzqwBZW-216">
          <mxGeometry x="140" width="200" height="40" as="geometry">
            <mxRectangle width="200" height="40" as="alternateBounds" />
          </mxGeometry>
        </mxCell>
        <mxCell id="3OG4NW8DKBGacQzqwBZW-220" value="更新者ID" style="shape=partialRectangle;connectable=0;fillColor=none;top=0;left=0;bottom=0;right=0;align=left;spacingLeft=6;overflow=hidden;" vertex="1" parent="3OG4NW8DKBGacQzqwBZW-216">
          <mxGeometry x="340" width="290" height="40" as="geometry">
            <mxRectangle width="290" height="40" as="alternateBounds" />
          </mxGeometry>
        </mxCell>
        <object label="notify_user_ref" tags="" tooltip="普通表" id="3OG4NW8DKBGacQzqwBZW-221">
          <mxCell style="shape=table;startSize=30;container=1;collapsible=1;childLayout=tableLayout;fixedRows=1;rowLines=0;fontStyle=1;align=center;resizeLast=1;" vertex="1" parent="1">
            <mxGeometry x="1150" y="40" width="450" height="350" as="geometry">
              <mxRectangle x="40" y="40" width="120" height="30" as="alternateBounds" />
            </mxGeometry>
          </mxCell>
        </object>
        <mxCell id="3OG4NW8DKBGacQzqwBZW-222" value="" style="shape=tableRow;horizontal=0;startSize=0;swimlaneHead=0;swimlaneBody=0;fillColor=none;collapsible=0;dropTarget=0;points=[[0,0.5],[1,0.5]];portConstraint=eastwest;top=0;left=0;right=0;bottom=1;" vertex="1" parent="3OG4NW8DKBGacQzqwBZW-221">
          <mxGeometry y="30" width="450" height="50" as="geometry" />
        </mxCell>
        <mxCell id="3OG4NW8DKBGacQzqwBZW-223" value="PK" style="shape=partialRectangle;connectable=0;fillColor=none;top=0;left=0;bottom=0;right=0;fontStyle=1;overflow=hidden;" vertex="1" parent="3OG4NW8DKBGacQzqwBZW-222">
          <mxGeometry width="30" height="50" as="geometry">
            <mxRectangle width="30" height="50" as="alternateBounds" />
          </mxGeometry>
        </mxCell>
        <mxCell id="3OG4NW8DKBGacQzqwBZW-224" value="notify_user_ref_id" style="shape=partialRectangle;connectable=0;fillColor=none;top=0;left=0;bottom=0;right=0;align=left;spacingLeft=6;fontStyle=5;overflow=hidden;" vertex="1" parent="3OG4NW8DKBGacQzqwBZW-222">
          <mxGeometry x="30" width="120" height="50" as="geometry">
            <mxRectangle width="120" height="50" as="alternateBounds" />
          </mxGeometry>
        </mxCell>
        <mxCell id="3OG4NW8DKBGacQzqwBZW-225" value="bigint&#xa;not null&#xa;auto_increment" style="shape=partialRectangle;connectable=0;fillColor=none;top=0;left=0;bottom=0;right=0;align=left;spacingLeft=6;fontStyle=5;overflow=hidden;" vertex="1" parent="3OG4NW8DKBGacQzqwBZW-222">
          <mxGeometry x="150" width="210" height="50" as="geometry">
            <mxRectangle width="210" height="50" as="alternateBounds" />
          </mxGeometry>
        </mxCell>
        <mxCell id="3OG4NW8DKBGacQzqwBZW-226" value="主键ID" style="shape=partialRectangle;connectable=0;fillColor=none;top=0;left=0;bottom=0;right=0;align=left;spacingLeft=6;fontStyle=5;overflow=hidden;" vertex="1" parent="3OG4NW8DKBGacQzqwBZW-222">
          <mxGeometry x="360" width="90" height="50" as="geometry">
            <mxRectangle width="90" height="50" as="alternateBounds" />
          </mxGeometry>
        </mxCell>
        <mxCell id="3OG4NW8DKBGacQzqwBZW-227" value="" style="shape=tableRow;horizontal=0;startSize=0;swimlaneHead=0;swimlaneBody=0;fillColor=none;collapsible=0;dropTarget=0;points=[[0,0.5],[1,0.5]];portConstraint=eastwest;top=0;left=0;right=0;bottom=0;" vertex="1" parent="3OG4NW8DKBGacQzqwBZW-221">
          <mxGeometry y="80" width="450" height="30" as="geometry" />
        </mxCell>
        <mxCell id="3OG4NW8DKBGacQzqwBZW-228" value="" style="shape=partialRectangle;connectable=0;fillColor=none;top=0;left=0;bottom=0;right=0;editable=1;overflow=hidden;" vertex="1" parent="3OG4NW8DKBGacQzqwBZW-227">
          <mxGeometry width="30" height="30" as="geometry">
            <mxRectangle width="30" height="30" as="alternateBounds" />
          </mxGeometry>
        </mxCell>
        <mxCell id="3OG4NW8DKBGacQzqwBZW-229" value="obj_id" style="shape=partialRectangle;connectable=0;fillColor=none;top=0;left=0;bottom=0;right=0;align=left;spacingLeft=6;overflow=hidden;" vertex="1" parent="3OG4NW8DKBGacQzqwBZW-227">
          <mxGeometry x="30" width="120" height="30" as="geometry">
            <mxRectangle width="120" height="30" as="alternateBounds" />
          </mxGeometry>
        </mxCell>
        <mxCell id="3OG4NW8DKBGacQzqwBZW-230" value="bigint" style="shape=partialRectangle;connectable=0;fillColor=none;top=0;left=0;bottom=0;right=0;align=left;spacingLeft=6;overflow=hidden;" vertex="1" parent="3OG4NW8DKBGacQzqwBZW-227">
          <mxGeometry x="150" width="210" height="30" as="geometry">
            <mxRectangle width="210" height="30" as="alternateBounds" />
          </mxGeometry>
        </mxCell>
        <mxCell id="3OG4NW8DKBGacQzqwBZW-231" value="" style="shape=partialRectangle;connectable=0;fillColor=none;top=0;left=0;bottom=0;right=0;align=left;spacingLeft=6;overflow=hidden;" vertex="1" parent="3OG4NW8DKBGacQzqwBZW-227">
          <mxGeometry x="360" width="90" height="30" as="geometry">
            <mxRectangle width="90" height="30" as="alternateBounds" />
          </mxGeometry>
        </mxCell>
        <mxCell id="3OG4NW8DKBGacQzqwBZW-232" value="" style="shape=tableRow;horizontal=0;startSize=0;swimlaneHead=0;swimlaneBody=0;fillColor=none;collapsible=0;dropTarget=0;points=[[0,0.5],[1,0.5]];portConstraint=eastwest;top=0;left=0;right=0;bottom=0;" vertex="1" parent="3OG4NW8DKBGacQzqwBZW-221">
          <mxGeometry y="110" width="450" height="30" as="geometry" />
        </mxCell>
        <mxCell id="3OG4NW8DKBGacQzqwBZW-233" value="" style="shape=partialRectangle;connectable=0;fillColor=none;top=0;left=0;bottom=0;right=0;editable=1;overflow=hidden;" vertex="1" parent="3OG4NW8DKBGacQzqwBZW-232">
          <mxGeometry width="30" height="30" as="geometry">
            <mxRectangle width="30" height="30" as="alternateBounds" />
          </mxGeometry>
        </mxCell>
        <mxCell id="3OG4NW8DKBGacQzqwBZW-234" value="type" style="shape=partialRectangle;connectable=0;fillColor=none;top=0;left=0;bottom=0;right=0;align=left;spacingLeft=6;overflow=hidden;" vertex="1" parent="3OG4NW8DKBGacQzqwBZW-232">
          <mxGeometry x="30" width="120" height="30" as="geometry">
            <mxRectangle width="120" height="30" as="alternateBounds" />
          </mxGeometry>
        </mxCell>
        <mxCell id="3OG4NW8DKBGacQzqwBZW-235" value="varchar(20)" style="shape=partialRectangle;connectable=0;fillColor=none;top=0;left=0;bottom=0;right=0;align=left;spacingLeft=6;overflow=hidden;" vertex="1" parent="3OG4NW8DKBGacQzqwBZW-232">
          <mxGeometry x="150" width="210" height="30" as="geometry">
            <mxRectangle width="210" height="30" as="alternateBounds" />
          </mxGeometry>
        </mxCell>
        <mxCell id="3OG4NW8DKBGacQzqwBZW-236" value="" style="shape=partialRectangle;connectable=0;fillColor=none;top=0;left=0;bottom=0;right=0;align=left;spacingLeft=6;overflow=hidden;" vertex="1" parent="3OG4NW8DKBGacQzqwBZW-232">
          <mxGeometry x="360" width="90" height="30" as="geometry">
            <mxRectangle width="90" height="30" as="alternateBounds" />
          </mxGeometry>
        </mxCell>
        <mxCell id="3OG4NW8DKBGacQzqwBZW-237" value="" style="shape=tableRow;horizontal=0;startSize=0;swimlaneHead=0;swimlaneBody=0;fillColor=none;collapsible=0;dropTarget=0;points=[[0,0.5],[1,0.5]];portConstraint=eastwest;top=0;left=0;right=0;bottom=0;" vertex="1" parent="3OG4NW8DKBGacQzqwBZW-221">
          <mxGeometry y="140" width="450" height="30" as="geometry" />
        </mxCell>
        <mxCell id="3OG4NW8DKBGacQzqwBZW-238" value="" style="shape=partialRectangle;connectable=0;fillColor=none;top=0;left=0;bottom=0;right=0;editable=1;overflow=hidden;" vertex="1" parent="3OG4NW8DKBGacQzqwBZW-237">
          <mxGeometry width="30" height="30" as="geometry">
            <mxRectangle width="30" height="30" as="alternateBounds" />
          </mxGeometry>
        </mxCell>
        <mxCell id="3OG4NW8DKBGacQzqwBZW-239" value="user_id" style="shape=partialRectangle;connectable=0;fillColor=none;top=0;left=0;bottom=0;right=0;align=left;spacingLeft=6;overflow=hidden;" vertex="1" parent="3OG4NW8DKBGacQzqwBZW-237">
          <mxGeometry x="30" width="120" height="30" as="geometry">
            <mxRectangle width="120" height="30" as="alternateBounds" />
          </mxGeometry>
        </mxCell>
        <mxCell id="3OG4NW8DKBGacQzqwBZW-240" value="bigint" style="shape=partialRectangle;connectable=0;fillColor=none;top=0;left=0;bottom=0;right=0;align=left;spacingLeft=6;overflow=hidden;" vertex="1" parent="3OG4NW8DKBGacQzqwBZW-237">
          <mxGeometry x="150" width="210" height="30" as="geometry">
            <mxRectangle width="210" height="30" as="alternateBounds" />
          </mxGeometry>
        </mxCell>
        <mxCell id="3OG4NW8DKBGacQzqwBZW-241" value="" style="shape=partialRectangle;connectable=0;fillColor=none;top=0;left=0;bottom=0;right=0;align=left;spacingLeft=6;overflow=hidden;" vertex="1" parent="3OG4NW8DKBGacQzqwBZW-237">
          <mxGeometry x="360" width="90" height="30" as="geometry">
            <mxRectangle width="90" height="30" as="alternateBounds" />
          </mxGeometry>
        </mxCell>
        <mxCell id="3OG4NW8DKBGacQzqwBZW-242" style="shape=tableRow;horizontal=0;startSize=0;swimlaneHead=0;swimlaneBody=0;fillColor=none;collapsible=0;dropTarget=0;points=[[0,0.5],[1,0.5]];portConstraint=eastwest;top=0;left=0;right=0;bottom=0;" vertex="1" parent="3OG4NW8DKBGacQzqwBZW-221">
          <mxGeometry y="170" width="450" height="30" as="geometry" />
        </mxCell>
        <mxCell id="3OG4NW8DKBGacQzqwBZW-243" style="shape=partialRectangle;connectable=0;fillColor=none;top=0;left=0;bottom=0;right=0;editable=1;overflow=hidden;" vertex="1" parent="3OG4NW8DKBGacQzqwBZW-242">
          <mxGeometry width="30" height="30" as="geometry">
            <mxRectangle width="30" height="30" as="alternateBounds" />
          </mxGeometry>
        </mxCell>
        <mxCell id="3OG4NW8DKBGacQzqwBZW-244" value="created" style="shape=partialRectangle;connectable=0;fillColor=none;top=0;left=0;bottom=0;right=0;align=left;spacingLeft=6;overflow=hidden;" vertex="1" parent="3OG4NW8DKBGacQzqwBZW-242">
          <mxGeometry x="30" width="120" height="30" as="geometry">
            <mxRectangle width="120" height="30" as="alternateBounds" />
          </mxGeometry>
        </mxCell>
        <mxCell id="3OG4NW8DKBGacQzqwBZW-245" value="DATETIME&#xa;DEFAULT CURRENT_TIMESTAMP" style="shape=partialRectangle;connectable=0;fillColor=none;top=0;left=0;bottom=0;right=0;align=left;spacingLeft=6;overflow=hidden;" vertex="1" parent="3OG4NW8DKBGacQzqwBZW-242">
          <mxGeometry x="150" width="210" height="30" as="geometry">
            <mxRectangle width="210" height="30" as="alternateBounds" />
          </mxGeometry>
        </mxCell>
        <mxCell id="3OG4NW8DKBGacQzqwBZW-246" value="创建时间" style="shape=partialRectangle;connectable=0;fillColor=none;top=0;left=0;bottom=0;right=0;align=left;spacingLeft=6;overflow=hidden;" vertex="1" parent="3OG4NW8DKBGacQzqwBZW-242">
          <mxGeometry x="360" width="90" height="30" as="geometry">
            <mxRectangle width="90" height="30" as="alternateBounds" />
          </mxGeometry>
        </mxCell>
        <mxCell id="3OG4NW8DKBGacQzqwBZW-247" style="shape=tableRow;horizontal=0;startSize=0;swimlaneHead=0;swimlaneBody=0;fillColor=none;collapsible=0;dropTarget=0;points=[[0,0.5],[1,0.5]];portConstraint=eastwest;top=0;left=0;right=0;bottom=0;" vertex="1" parent="3OG4NW8DKBGacQzqwBZW-221">
          <mxGeometry y="200" width="450" height="40" as="geometry" />
        </mxCell>
        <mxCell id="3OG4NW8DKBGacQzqwBZW-248" style="shape=partialRectangle;connectable=0;fillColor=none;top=0;left=0;bottom=0;right=0;editable=1;overflow=hidden;" vertex="1" parent="3OG4NW8DKBGacQzqwBZW-247">
          <mxGeometry width="30" height="40" as="geometry">
            <mxRectangle width="30" height="40" as="alternateBounds" />
          </mxGeometry>
        </mxCell>
        <mxCell id="3OG4NW8DKBGacQzqwBZW-249" value="created_by" style="shape=partialRectangle;connectable=0;fillColor=none;top=0;left=0;bottom=0;right=0;align=left;spacingLeft=6;overflow=hidden;" vertex="1" parent="3OG4NW8DKBGacQzqwBZW-247">
          <mxGeometry x="30" width="120" height="40" as="geometry">
            <mxRectangle width="120" height="40" as="alternateBounds" />
          </mxGeometry>
        </mxCell>
        <mxCell id="3OG4NW8DKBGacQzqwBZW-250" value="bigint&#xa;default 0" style="shape=partialRectangle;connectable=0;fillColor=none;top=0;left=0;bottom=0;right=0;align=left;spacingLeft=6;overflow=hidden;" vertex="1" parent="3OG4NW8DKBGacQzqwBZW-247">
          <mxGeometry x="150" width="210" height="40" as="geometry">
            <mxRectangle width="210" height="40" as="alternateBounds" />
          </mxGeometry>
        </mxCell>
        <mxCell id="3OG4NW8DKBGacQzqwBZW-251" value="创建者ID" style="shape=partialRectangle;connectable=0;fillColor=none;top=0;left=0;bottom=0;right=0;align=left;spacingLeft=6;overflow=hidden;" vertex="1" parent="3OG4NW8DKBGacQzqwBZW-247">
          <mxGeometry x="360" width="90" height="40" as="geometry">
            <mxRectangle width="90" height="40" as="alternateBounds" />
          </mxGeometry>
        </mxCell>
        <mxCell id="3OG4NW8DKBGacQzqwBZW-252" style="shape=tableRow;horizontal=0;startSize=0;swimlaneHead=0;swimlaneBody=0;fillColor=none;collapsible=0;dropTarget=0;points=[[0,0.5],[1,0.5]];portConstraint=eastwest;top=0;left=0;right=0;bottom=0;" vertex="1" parent="3OG4NW8DKBGacQzqwBZW-221">
          <mxGeometry y="240" width="450" height="70" as="geometry" />
        </mxCell>
        <mxCell id="3OG4NW8DKBGacQzqwBZW-253" style="shape=partialRectangle;connectable=0;fillColor=none;top=0;left=0;bottom=0;right=0;editable=1;overflow=hidden;" vertex="1" parent="3OG4NW8DKBGacQzqwBZW-252">
          <mxGeometry width="30" height="70" as="geometry">
            <mxRectangle width="30" height="70" as="alternateBounds" />
          </mxGeometry>
        </mxCell>
        <mxCell id="3OG4NW8DKBGacQzqwBZW-254" value="updated" style="shape=partialRectangle;connectable=0;fillColor=none;top=0;left=0;bottom=0;right=0;align=left;spacingLeft=6;overflow=hidden;" vertex="1" parent="3OG4NW8DKBGacQzqwBZW-252">
          <mxGeometry x="30" width="120" height="70" as="geometry">
            <mxRectangle width="120" height="70" as="alternateBounds" />
          </mxGeometry>
        </mxCell>
        <mxCell id="3OG4NW8DKBGacQzqwBZW-255" value="DATETIME&#xa;DEFAULT CURRENT_TIMESTAMP &#xa;ON UPDATE &#xa;CURRENT_TIMESTAMP&#xa;" style="shape=partialRectangle;connectable=0;fillColor=none;top=0;left=0;bottom=0;right=0;align=left;spacingLeft=6;overflow=hidden;" vertex="1" parent="3OG4NW8DKBGacQzqwBZW-252">
          <mxGeometry x="150" width="210" height="70" as="geometry">
            <mxRectangle width="210" height="70" as="alternateBounds" />
          </mxGeometry>
        </mxCell>
        <mxCell id="3OG4NW8DKBGacQzqwBZW-256" value="更新时间" style="shape=partialRectangle;connectable=0;fillColor=none;top=0;left=0;bottom=0;right=0;align=left;spacingLeft=6;overflow=hidden;" vertex="1" parent="3OG4NW8DKBGacQzqwBZW-252">
          <mxGeometry x="360" width="90" height="70" as="geometry">
            <mxRectangle width="90" height="70" as="alternateBounds" />
          </mxGeometry>
        </mxCell>
        <mxCell id="3OG4NW8DKBGacQzqwBZW-257" style="shape=tableRow;horizontal=0;startSize=0;swimlaneHead=0;swimlaneBody=0;fillColor=none;collapsible=0;dropTarget=0;points=[[0,0.5],[1,0.5]];portConstraint=eastwest;top=0;left=0;right=0;bottom=0;" vertex="1" parent="3OG4NW8DKBGacQzqwBZW-221">
          <mxGeometry y="310" width="450" height="40" as="geometry" />
        </mxCell>
        <mxCell id="3OG4NW8DKBGacQzqwBZW-258" style="shape=partialRectangle;connectable=0;fillColor=none;top=0;left=0;bottom=0;right=0;editable=1;overflow=hidden;" vertex="1" parent="3OG4NW8DKBGacQzqwBZW-257">
          <mxGeometry width="30" height="40" as="geometry">
            <mxRectangle width="30" height="40" as="alternateBounds" />
          </mxGeometry>
        </mxCell>
        <mxCell id="3OG4NW8DKBGacQzqwBZW-259" value="updated_by" style="shape=partialRectangle;connectable=0;fillColor=none;top=0;left=0;bottom=0;right=0;align=left;spacingLeft=6;overflow=hidden;" vertex="1" parent="3OG4NW8DKBGacQzqwBZW-257">
          <mxGeometry x="30" width="120" height="40" as="geometry">
            <mxRectangle width="120" height="40" as="alternateBounds" />
          </mxGeometry>
        </mxCell>
        <mxCell id="3OG4NW8DKBGacQzqwBZW-260" value="bigint&#xa;default 0&#xa;" style="shape=partialRectangle;connectable=0;fillColor=none;top=0;left=0;bottom=0;right=0;align=left;spacingLeft=6;overflow=hidden;" vertex="1" parent="3OG4NW8DKBGacQzqwBZW-257">
          <mxGeometry x="150" width="210" height="40" as="geometry">
            <mxRectangle width="210" height="40" as="alternateBounds" />
          </mxGeometry>
        </mxCell>
        <mxCell id="3OG4NW8DKBGacQzqwBZW-261" value="更新者ID" style="shape=partialRectangle;connectable=0;fillColor=none;top=0;left=0;bottom=0;right=0;align=left;spacingLeft=6;overflow=hidden;" vertex="1" parent="3OG4NW8DKBGacQzqwBZW-257">
          <mxGeometry x="360" width="90" height="40" as="geometry">
            <mxRectangle width="90" height="40" as="alternateBounds" />
          </mxGeometry>
        </mxCell>
        <object label="notify_dest_ref" tags="通知目标关联表，关联需要发送通知的对象类型，需要发送通知的对象ID，接收通知的目标组ID，业务对象类型、业务对象ID" tooltip="普通表" id="3OG4NW8DKBGacQzqwBZW-262">
          <mxCell style="shape=table;startSize=30;container=1;collapsible=1;childLayout=tableLayout;fixedRows=1;rowLines=0;fontStyle=1;align=center;resizeLast=1;" vertex="1" parent="1">
            <mxGeometry x="2300" y="40" width="490" height="350" as="geometry">
              <mxRectangle x="40" y="40" width="120" height="30" as="alternateBounds" />
            </mxGeometry>
          </mxCell>
        </object>
        <mxCell id="3OG4NW8DKBGacQzqwBZW-263" value="" style="shape=tableRow;horizontal=0;startSize=0;swimlaneHead=0;swimlaneBody=0;fillColor=none;collapsible=0;dropTarget=0;points=[[0,0.5],[1,0.5]];portConstraint=eastwest;top=0;left=0;right=0;bottom=1;" vertex="1" parent="3OG4NW8DKBGacQzqwBZW-262">
          <mxGeometry y="30" width="490" height="50" as="geometry" />
        </mxCell>
        <mxCell id="3OG4NW8DKBGacQzqwBZW-264" value="PK" style="shape=partialRectangle;connectable=0;fillColor=none;top=0;left=0;bottom=0;right=0;fontStyle=1;overflow=hidden;" vertex="1" parent="3OG4NW8DKBGacQzqwBZW-263">
          <mxGeometry width="30" height="50" as="geometry">
            <mxRectangle width="30" height="50" as="alternateBounds" />
          </mxGeometry>
        </mxCell>
        <mxCell id="3OG4NW8DKBGacQzqwBZW-265" value="notify_dest_id" style="shape=partialRectangle;connectable=0;fillColor=none;top=0;left=0;bottom=0;right=0;align=left;spacingLeft=6;fontStyle=5;overflow=hidden;" vertex="1" parent="3OG4NW8DKBGacQzqwBZW-263">
          <mxGeometry x="30" width="110" height="50" as="geometry">
            <mxRectangle width="110" height="50" as="alternateBounds" />
          </mxGeometry>
        </mxCell>
        <mxCell id="3OG4NW8DKBGacQzqwBZW-266" value="bigint&#xa;not null&#xa;auto_increment" style="shape=partialRectangle;connectable=0;fillColor=none;top=0;left=0;bottom=0;right=0;align=left;spacingLeft=6;fontStyle=5;overflow=hidden;" vertex="1" parent="3OG4NW8DKBGacQzqwBZW-263">
          <mxGeometry x="140" width="200" height="50" as="geometry">
            <mxRectangle width="200" height="50" as="alternateBounds" />
          </mxGeometry>
        </mxCell>
        <mxCell id="3OG4NW8DKBGacQzqwBZW-267" value="通知目标关联ID" style="shape=partialRectangle;connectable=0;fillColor=none;top=0;left=0;bottom=0;right=0;align=left;spacingLeft=6;fontStyle=5;overflow=hidden;" vertex="1" parent="3OG4NW8DKBGacQzqwBZW-263">
          <mxGeometry x="340" width="150" height="50" as="geometry">
            <mxRectangle width="150" height="50" as="alternateBounds" />
          </mxGeometry>
        </mxCell>
        <mxCell id="3OG4NW8DKBGacQzqwBZW-268" value="" style="shape=tableRow;horizontal=0;startSize=0;swimlaneHead=0;swimlaneBody=0;fillColor=none;collapsible=0;dropTarget=0;points=[[0,0.5],[1,0.5]];portConstraint=eastwest;top=0;left=0;right=0;bottom=0;" vertex="1" parent="3OG4NW8DKBGacQzqwBZW-262">
          <mxGeometry y="80" width="490" height="30" as="geometry" />
        </mxCell>
        <mxCell id="3OG4NW8DKBGacQzqwBZW-269" value="" style="shape=partialRectangle;connectable=0;fillColor=none;top=0;left=0;bottom=0;right=0;editable=1;overflow=hidden;" vertex="1" parent="3OG4NW8DKBGacQzqwBZW-268">
          <mxGeometry width="30" height="30" as="geometry">
            <mxRectangle width="30" height="30" as="alternateBounds" />
          </mxGeometry>
        </mxCell>
        <mxCell id="3OG4NW8DKBGacQzqwBZW-270" value="obj_id" style="shape=partialRectangle;connectable=0;fillColor=none;top=0;left=0;bottom=0;right=0;align=left;spacingLeft=6;overflow=hidden;" vertex="1" parent="3OG4NW8DKBGacQzqwBZW-268">
          <mxGeometry x="30" width="110" height="30" as="geometry">
            <mxRectangle width="110" height="30" as="alternateBounds" />
          </mxGeometry>
        </mxCell>
        <mxCell id="3OG4NW8DKBGacQzqwBZW-271" value="bigint" style="shape=partialRectangle;connectable=0;fillColor=none;top=0;left=0;bottom=0;right=0;align=left;spacingLeft=6;overflow=hidden;" vertex="1" parent="3OG4NW8DKBGacQzqwBZW-268">
          <mxGeometry x="140" width="200" height="30" as="geometry">
            <mxRectangle width="200" height="30" as="alternateBounds" />
          </mxGeometry>
        </mxCell>
        <mxCell id="3OG4NW8DKBGacQzqwBZW-272" value="需要发送通知的对象ID" style="shape=partialRectangle;connectable=0;fillColor=none;top=0;left=0;bottom=0;right=0;align=left;spacingLeft=6;overflow=hidden;" vertex="1" parent="3OG4NW8DKBGacQzqwBZW-268">
          <mxGeometry x="340" width="150" height="30" as="geometry">
            <mxRectangle width="150" height="30" as="alternateBounds" />
          </mxGeometry>
        </mxCell>
        <mxCell id="3OG4NW8DKBGacQzqwBZW-273" value="" style="shape=tableRow;horizontal=0;startSize=0;swimlaneHead=0;swimlaneBody=0;fillColor=none;collapsible=0;dropTarget=0;points=[[0,0.5],[1,0.5]];portConstraint=eastwest;top=0;left=0;right=0;bottom=0;" vertex="1" parent="3OG4NW8DKBGacQzqwBZW-262">
          <mxGeometry y="110" width="490" height="30" as="geometry" />
        </mxCell>
        <mxCell id="3OG4NW8DKBGacQzqwBZW-274" value="" style="shape=partialRectangle;connectable=0;fillColor=none;top=0;left=0;bottom=0;right=0;editable=1;overflow=hidden;" vertex="1" parent="3OG4NW8DKBGacQzqwBZW-273">
          <mxGeometry width="30" height="30" as="geometry">
            <mxRectangle width="30" height="30" as="alternateBounds" />
          </mxGeometry>
        </mxCell>
        <mxCell id="3OG4NW8DKBGacQzqwBZW-275" value="obj_type" style="shape=partialRectangle;connectable=0;fillColor=none;top=0;left=0;bottom=0;right=0;align=left;spacingLeft=6;overflow=hidden;" vertex="1" parent="3OG4NW8DKBGacQzqwBZW-273">
          <mxGeometry x="30" width="110" height="30" as="geometry">
            <mxRectangle width="110" height="30" as="alternateBounds" />
          </mxGeometry>
        </mxCell>
        <mxCell id="3OG4NW8DKBGacQzqwBZW-276" value="varchar(20)" style="shape=partialRectangle;connectable=0;fillColor=none;top=0;left=0;bottom=0;right=0;align=left;spacingLeft=6;overflow=hidden;" vertex="1" parent="3OG4NW8DKBGacQzqwBZW-273">
          <mxGeometry x="140" width="200" height="30" as="geometry">
            <mxRectangle width="200" height="30" as="alternateBounds" />
          </mxGeometry>
        </mxCell>
        <mxCell id="3OG4NW8DKBGacQzqwBZW-277" value="需要发送通知的对象类型" style="shape=partialRectangle;connectable=0;fillColor=none;top=0;left=0;bottom=0;right=0;align=left;spacingLeft=6;overflow=hidden;" vertex="1" parent="3OG4NW8DKBGacQzqwBZW-273">
          <mxGeometry x="340" width="150" height="30" as="geometry">
            <mxRectangle width="150" height="30" as="alternateBounds" />
          </mxGeometry>
        </mxCell>
        <mxCell id="3OG4NW8DKBGacQzqwBZW-278" value="" style="shape=tableRow;horizontal=0;startSize=0;swimlaneHead=0;swimlaneBody=0;fillColor=none;collapsible=0;dropTarget=0;points=[[0,0.5],[1,0.5]];portConstraint=eastwest;top=0;left=0;right=0;bottom=0;" vertex="1" parent="3OG4NW8DKBGacQzqwBZW-262">
          <mxGeometry y="140" width="490" height="30" as="geometry" />
        </mxCell>
        <mxCell id="3OG4NW8DKBGacQzqwBZW-279" value="" style="shape=partialRectangle;connectable=0;fillColor=none;top=0;left=0;bottom=0;right=0;editable=1;overflow=hidden;" vertex="1" parent="3OG4NW8DKBGacQzqwBZW-278">
          <mxGeometry width="30" height="30" as="geometry">
            <mxRectangle width="30" height="30" as="alternateBounds" />
          </mxGeometry>
        </mxCell>
        <mxCell id="3OG4NW8DKBGacQzqwBZW-280" value="dest_group_id" style="shape=partialRectangle;connectable=0;fillColor=none;top=0;left=0;bottom=0;right=0;align=left;spacingLeft=6;overflow=hidden;" vertex="1" parent="3OG4NW8DKBGacQzqwBZW-278">
          <mxGeometry x="30" width="110" height="30" as="geometry">
            <mxRectangle width="110" height="30" as="alternateBounds" />
          </mxGeometry>
        </mxCell>
        <mxCell id="3OG4NW8DKBGacQzqwBZW-281" value="bigint" style="shape=partialRectangle;connectable=0;fillColor=none;top=0;left=0;bottom=0;right=0;align=left;spacingLeft=6;overflow=hidden;" vertex="1" parent="3OG4NW8DKBGacQzqwBZW-278">
          <mxGeometry x="140" width="200" height="30" as="geometry">
            <mxRectangle width="200" height="30" as="alternateBounds" />
          </mxGeometry>
        </mxCell>
        <mxCell id="3OG4NW8DKBGacQzqwBZW-282" value="接收通知的目标组ID" style="shape=partialRectangle;connectable=0;fillColor=none;top=0;left=0;bottom=0;right=0;align=left;spacingLeft=6;overflow=hidden;" vertex="1" parent="3OG4NW8DKBGacQzqwBZW-278">
          <mxGeometry x="340" width="150" height="30" as="geometry">
            <mxRectangle width="150" height="30" as="alternateBounds" />
          </mxGeometry>
        </mxCell>
        <mxCell id="3OG4NW8DKBGacQzqwBZW-283" style="shape=tableRow;horizontal=0;startSize=0;swimlaneHead=0;swimlaneBody=0;fillColor=none;collapsible=0;dropTarget=0;points=[[0,0.5],[1,0.5]];portConstraint=eastwest;top=0;left=0;right=0;bottom=0;" vertex="1" parent="3OG4NW8DKBGacQzqwBZW-262">
          <mxGeometry y="170" width="490" height="30" as="geometry" />
        </mxCell>
        <mxCell id="3OG4NW8DKBGacQzqwBZW-284" style="shape=partialRectangle;connectable=0;fillColor=none;top=0;left=0;bottom=0;right=0;editable=1;overflow=hidden;" vertex="1" parent="3OG4NW8DKBGacQzqwBZW-283">
          <mxGeometry width="30" height="30" as="geometry">
            <mxRectangle width="30" height="30" as="alternateBounds" />
          </mxGeometry>
        </mxCell>
        <mxCell id="3OG4NW8DKBGacQzqwBZW-285" value="created" style="shape=partialRectangle;connectable=0;fillColor=none;top=0;left=0;bottom=0;right=0;align=left;spacingLeft=6;overflow=hidden;" vertex="1" parent="3OG4NW8DKBGacQzqwBZW-283">
          <mxGeometry x="30" width="110" height="30" as="geometry">
            <mxRectangle width="110" height="30" as="alternateBounds" />
          </mxGeometry>
        </mxCell>
        <mxCell id="3OG4NW8DKBGacQzqwBZW-286" value="DATETIME&#xa;DEFAULT CURRENT_TIMESTAMP" style="shape=partialRectangle;connectable=0;fillColor=none;top=0;left=0;bottom=0;right=0;align=left;spacingLeft=6;overflow=hidden;" vertex="1" parent="3OG4NW8DKBGacQzqwBZW-283">
          <mxGeometry x="140" width="200" height="30" as="geometry">
            <mxRectangle width="200" height="30" as="alternateBounds" />
          </mxGeometry>
        </mxCell>
        <mxCell id="3OG4NW8DKBGacQzqwBZW-287" value="创建时间" style="shape=partialRectangle;connectable=0;fillColor=none;top=0;left=0;bottom=0;right=0;align=left;spacingLeft=6;overflow=hidden;" vertex="1" parent="3OG4NW8DKBGacQzqwBZW-283">
          <mxGeometry x="340" width="150" height="30" as="geometry">
            <mxRectangle width="150" height="30" as="alternateBounds" />
          </mxGeometry>
        </mxCell>
        <mxCell id="3OG4NW8DKBGacQzqwBZW-288" style="shape=tableRow;horizontal=0;startSize=0;swimlaneHead=0;swimlaneBody=0;fillColor=none;collapsible=0;dropTarget=0;points=[[0,0.5],[1,0.5]];portConstraint=eastwest;top=0;left=0;right=0;bottom=0;" vertex="1" parent="3OG4NW8DKBGacQzqwBZW-262">
          <mxGeometry y="200" width="490" height="40" as="geometry" />
        </mxCell>
        <mxCell id="3OG4NW8DKBGacQzqwBZW-289" style="shape=partialRectangle;connectable=0;fillColor=none;top=0;left=0;bottom=0;right=0;editable=1;overflow=hidden;" vertex="1" parent="3OG4NW8DKBGacQzqwBZW-288">
          <mxGeometry width="30" height="40" as="geometry">
            <mxRectangle width="30" height="40" as="alternateBounds" />
          </mxGeometry>
        </mxCell>
        <mxCell id="3OG4NW8DKBGacQzqwBZW-290" value="created_by" style="shape=partialRectangle;connectable=0;fillColor=none;top=0;left=0;bottom=0;right=0;align=left;spacingLeft=6;overflow=hidden;" vertex="1" parent="3OG4NW8DKBGacQzqwBZW-288">
          <mxGeometry x="30" width="110" height="40" as="geometry">
            <mxRectangle width="110" height="40" as="alternateBounds" />
          </mxGeometry>
        </mxCell>
        <mxCell id="3OG4NW8DKBGacQzqwBZW-291" value="bigint&#xa;default 0" style="shape=partialRectangle;connectable=0;fillColor=none;top=0;left=0;bottom=0;right=0;align=left;spacingLeft=6;overflow=hidden;" vertex="1" parent="3OG4NW8DKBGacQzqwBZW-288">
          <mxGeometry x="140" width="200" height="40" as="geometry">
            <mxRectangle width="200" height="40" as="alternateBounds" />
          </mxGeometry>
        </mxCell>
        <mxCell id="3OG4NW8DKBGacQzqwBZW-292" value="创建者ID" style="shape=partialRectangle;connectable=0;fillColor=none;top=0;left=0;bottom=0;right=0;align=left;spacingLeft=6;overflow=hidden;" vertex="1" parent="3OG4NW8DKBGacQzqwBZW-288">
          <mxGeometry x="340" width="150" height="40" as="geometry">
            <mxRectangle width="150" height="40" as="alternateBounds" />
          </mxGeometry>
        </mxCell>
        <mxCell id="3OG4NW8DKBGacQzqwBZW-293" style="shape=tableRow;horizontal=0;startSize=0;swimlaneHead=0;swimlaneBody=0;fillColor=none;collapsible=0;dropTarget=0;points=[[0,0.5],[1,0.5]];portConstraint=eastwest;top=0;left=0;right=0;bottom=0;" vertex="1" parent="3OG4NW8DKBGacQzqwBZW-262">
          <mxGeometry y="240" width="490" height="70" as="geometry" />
        </mxCell>
        <mxCell id="3OG4NW8DKBGacQzqwBZW-294" style="shape=partialRectangle;connectable=0;fillColor=none;top=0;left=0;bottom=0;right=0;editable=1;overflow=hidden;" vertex="1" parent="3OG4NW8DKBGacQzqwBZW-293">
          <mxGeometry width="30" height="70" as="geometry">
            <mxRectangle width="30" height="70" as="alternateBounds" />
          </mxGeometry>
        </mxCell>
        <mxCell id="3OG4NW8DKBGacQzqwBZW-295" value="updated" style="shape=partialRectangle;connectable=0;fillColor=none;top=0;left=0;bottom=0;right=0;align=left;spacingLeft=6;overflow=hidden;" vertex="1" parent="3OG4NW8DKBGacQzqwBZW-293">
          <mxGeometry x="30" width="110" height="70" as="geometry">
            <mxRectangle width="110" height="70" as="alternateBounds" />
          </mxGeometry>
        </mxCell>
        <mxCell id="3OG4NW8DKBGacQzqwBZW-296" value="DATETIME&#xa;DEFAULT CURRENT_TIMESTAMP &#xa;ON UPDATE &#xa;CURRENT_TIMESTAMP&#xa;" style="shape=partialRectangle;connectable=0;fillColor=none;top=0;left=0;bottom=0;right=0;align=left;spacingLeft=6;overflow=hidden;" vertex="1" parent="3OG4NW8DKBGacQzqwBZW-293">
          <mxGeometry x="140" width="200" height="70" as="geometry">
            <mxRectangle width="200" height="70" as="alternateBounds" />
          </mxGeometry>
        </mxCell>
        <mxCell id="3OG4NW8DKBGacQzqwBZW-297" value="更新时间" style="shape=partialRectangle;connectable=0;fillColor=none;top=0;left=0;bottom=0;right=0;align=left;spacingLeft=6;overflow=hidden;" vertex="1" parent="3OG4NW8DKBGacQzqwBZW-293">
          <mxGeometry x="340" width="150" height="70" as="geometry">
            <mxRectangle width="150" height="70" as="alternateBounds" />
          </mxGeometry>
        </mxCell>
        <mxCell id="3OG4NW8DKBGacQzqwBZW-298" style="shape=tableRow;horizontal=0;startSize=0;swimlaneHead=0;swimlaneBody=0;fillColor=none;collapsible=0;dropTarget=0;points=[[0,0.5],[1,0.5]];portConstraint=eastwest;top=0;left=0;right=0;bottom=0;" vertex="1" parent="3OG4NW8DKBGacQzqwBZW-262">
          <mxGeometry y="310" width="490" height="40" as="geometry" />
        </mxCell>
        <mxCell id="3OG4NW8DKBGacQzqwBZW-299" style="shape=partialRectangle;connectable=0;fillColor=none;top=0;left=0;bottom=0;right=0;editable=1;overflow=hidden;" vertex="1" parent="3OG4NW8DKBGacQzqwBZW-298">
          <mxGeometry width="30" height="40" as="geometry">
            <mxRectangle width="30" height="40" as="alternateBounds" />
          </mxGeometry>
        </mxCell>
        <mxCell id="3OG4NW8DKBGacQzqwBZW-300" value="updated_by" style="shape=partialRectangle;connectable=0;fillColor=none;top=0;left=0;bottom=0;right=0;align=left;spacingLeft=6;overflow=hidden;" vertex="1" parent="3OG4NW8DKBGacQzqwBZW-298">
          <mxGeometry x="30" width="110" height="40" as="geometry">
            <mxRectangle width="110" height="40" as="alternateBounds" />
          </mxGeometry>
        </mxCell>
        <mxCell id="3OG4NW8DKBGacQzqwBZW-301" value="bigint&#xa;default 0&#xa;" style="shape=partialRectangle;connectable=0;fillColor=none;top=0;left=0;bottom=0;right=0;align=left;spacingLeft=6;overflow=hidden;" vertex="1" parent="3OG4NW8DKBGacQzqwBZW-298">
          <mxGeometry x="140" width="200" height="40" as="geometry">
            <mxRectangle width="200" height="40" as="alternateBounds" />
          </mxGeometry>
        </mxCell>
        <mxCell id="3OG4NW8DKBGacQzqwBZW-302" value="更新者ID" style="shape=partialRectangle;connectable=0;fillColor=none;top=0;left=0;bottom=0;right=0;align=left;spacingLeft=6;overflow=hidden;" vertex="1" parent="3OG4NW8DKBGacQzqwBZW-298">
          <mxGeometry x="340" width="150" height="40" as="geometry">
            <mxRectangle width="150" height="40" as="alternateBounds" />
          </mxGeometry>
        </mxCell>
        <object label="group_dest_ref" tags="通知组通知目标关联表" tooltip="普通表" id="3OG4NW8DKBGacQzqwBZW-303">
          <mxCell style="shape=table;startSize=30;container=1;collapsible=1;childLayout=tableLayout;fixedRows=1;rowLines=0;fontStyle=1;align=center;resizeLast=1;" vertex="1" parent="1">
            <mxGeometry x="2300" y="510" width="490" height="350" as="geometry">
              <mxRectangle x="40" y="40" width="120" height="30" as="alternateBounds" />
            </mxGeometry>
          </mxCell>
        </object>
        <mxCell id="3OG4NW8DKBGacQzqwBZW-304" value="" style="shape=tableRow;horizontal=0;startSize=0;swimlaneHead=0;swimlaneBody=0;fillColor=none;collapsible=0;dropTarget=0;points=[[0,0.5],[1,0.5]];portConstraint=eastwest;top=0;left=0;right=0;bottom=1;" vertex="1" parent="3OG4NW8DKBGacQzqwBZW-303">
          <mxGeometry y="30" width="490" height="50" as="geometry" />
        </mxCell>
        <mxCell id="3OG4NW8DKBGacQzqwBZW-305" value="PK" style="shape=partialRectangle;connectable=0;fillColor=none;top=0;left=0;bottom=0;right=0;fontStyle=1;overflow=hidden;" vertex="1" parent="3OG4NW8DKBGacQzqwBZW-304">
          <mxGeometry width="30" height="50" as="geometry">
            <mxRectangle width="30" height="50" as="alternateBounds" />
          </mxGeometry>
        </mxCell>
        <mxCell id="3OG4NW8DKBGacQzqwBZW-306" value="group_dest_id" style="shape=partialRectangle;connectable=0;fillColor=none;top=0;left=0;bottom=0;right=0;align=left;spacingLeft=6;fontStyle=5;overflow=hidden;" vertex="1" parent="3OG4NW8DKBGacQzqwBZW-304">
          <mxGeometry x="30" width="120" height="50" as="geometry">
            <mxRectangle width="120" height="50" as="alternateBounds" />
          </mxGeometry>
        </mxCell>
        <mxCell id="3OG4NW8DKBGacQzqwBZW-307" value="bigint&#xa;not null&#xa;auto_increment" style="shape=partialRectangle;connectable=0;fillColor=none;top=0;left=0;bottom=0;right=0;align=left;spacingLeft=6;fontStyle=5;overflow=hidden;" vertex="1" parent="3OG4NW8DKBGacQzqwBZW-304">
          <mxGeometry x="150" width="200" height="50" as="geometry">
            <mxRectangle width="200" height="50" as="alternateBounds" />
          </mxGeometry>
        </mxCell>
        <mxCell id="3OG4NW8DKBGacQzqwBZW-308" value="通知组通知目标关联ID" style="shape=partialRectangle;connectable=0;fillColor=none;top=0;left=0;bottom=0;right=0;align=left;spacingLeft=6;fontStyle=5;overflow=hidden;" vertex="1" parent="3OG4NW8DKBGacQzqwBZW-304">
          <mxGeometry x="350" width="140" height="50" as="geometry">
            <mxRectangle width="140" height="50" as="alternateBounds" />
          </mxGeometry>
        </mxCell>
        <mxCell id="3OG4NW8DKBGacQzqwBZW-309" value="" style="shape=tableRow;horizontal=0;startSize=0;swimlaneHead=0;swimlaneBody=0;fillColor=none;collapsible=0;dropTarget=0;points=[[0,0.5],[1,0.5]];portConstraint=eastwest;top=0;left=0;right=0;bottom=0;" vertex="1" parent="3OG4NW8DKBGacQzqwBZW-303">
          <mxGeometry y="80" width="490" height="30" as="geometry" />
        </mxCell>
        <mxCell id="3OG4NW8DKBGacQzqwBZW-310" value="" style="shape=partialRectangle;connectable=0;fillColor=none;top=0;left=0;bottom=0;right=0;editable=1;overflow=hidden;" vertex="1" parent="3OG4NW8DKBGacQzqwBZW-309">
          <mxGeometry width="30" height="30" as="geometry">
            <mxRectangle width="30" height="30" as="alternateBounds" />
          </mxGeometry>
        </mxCell>
        <mxCell id="3OG4NW8DKBGacQzqwBZW-311" value="dest_group_id" style="shape=partialRectangle;connectable=0;fillColor=none;top=0;left=0;bottom=0;right=0;align=left;spacingLeft=6;overflow=hidden;" vertex="1" parent="3OG4NW8DKBGacQzqwBZW-309">
          <mxGeometry x="30" width="120" height="30" as="geometry">
            <mxRectangle width="120" height="30" as="alternateBounds" />
          </mxGeometry>
        </mxCell>
        <mxCell id="3OG4NW8DKBGacQzqwBZW-312" value="bigint" style="shape=partialRectangle;connectable=0;fillColor=none;top=0;left=0;bottom=0;right=0;align=left;spacingLeft=6;overflow=hidden;" vertex="1" parent="3OG4NW8DKBGacQzqwBZW-309">
          <mxGeometry x="150" width="200" height="30" as="geometry">
            <mxRectangle width="200" height="30" as="alternateBounds" />
          </mxGeometry>
        </mxCell>
        <mxCell id="3OG4NW8DKBGacQzqwBZW-313" value="通知目标组ID" style="shape=partialRectangle;connectable=0;fillColor=none;top=0;left=0;bottom=0;right=0;align=left;spacingLeft=6;overflow=hidden;" vertex="1" parent="3OG4NW8DKBGacQzqwBZW-309">
          <mxGeometry x="350" width="140" height="30" as="geometry">
            <mxRectangle width="140" height="30" as="alternateBounds" />
          </mxGeometry>
        </mxCell>
        <mxCell id="3OG4NW8DKBGacQzqwBZW-314" value="" style="shape=tableRow;horizontal=0;startSize=0;swimlaneHead=0;swimlaneBody=0;fillColor=none;collapsible=0;dropTarget=0;points=[[0,0.5],[1,0.5]];portConstraint=eastwest;top=0;left=0;right=0;bottom=0;" vertex="1" parent="3OG4NW8DKBGacQzqwBZW-303">
          <mxGeometry y="110" width="490" height="30" as="geometry" />
        </mxCell>
        <mxCell id="3OG4NW8DKBGacQzqwBZW-315" value="" style="shape=partialRectangle;connectable=0;fillColor=none;top=0;left=0;bottom=0;right=0;editable=1;overflow=hidden;" vertex="1" parent="3OG4NW8DKBGacQzqwBZW-314">
          <mxGeometry width="30" height="30" as="geometry">
            <mxRectangle width="30" height="30" as="alternateBounds" />
          </mxGeometry>
        </mxCell>
        <mxCell id="3OG4NW8DKBGacQzqwBZW-316" value="dest_id" style="shape=partialRectangle;connectable=0;fillColor=none;top=0;left=0;bottom=0;right=0;align=left;spacingLeft=6;overflow=hidden;" vertex="1" parent="3OG4NW8DKBGacQzqwBZW-314">
          <mxGeometry x="30" width="120" height="30" as="geometry">
            <mxRectangle width="120" height="30" as="alternateBounds" />
          </mxGeometry>
        </mxCell>
        <mxCell id="3OG4NW8DKBGacQzqwBZW-317" value="bigint" style="shape=partialRectangle;connectable=0;fillColor=none;top=0;left=0;bottom=0;right=0;align=left;spacingLeft=6;overflow=hidden;" vertex="1" parent="3OG4NW8DKBGacQzqwBZW-314">
          <mxGeometry x="150" width="200" height="30" as="geometry">
            <mxRectangle width="200" height="30" as="alternateBounds" />
          </mxGeometry>
        </mxCell>
        <mxCell id="3OG4NW8DKBGacQzqwBZW-318" value="通知目标ID" style="shape=partialRectangle;connectable=0;fillColor=none;top=0;left=0;bottom=0;right=0;align=left;spacingLeft=6;overflow=hidden;" vertex="1" parent="3OG4NW8DKBGacQzqwBZW-314">
          <mxGeometry x="350" width="140" height="30" as="geometry">
            <mxRectangle width="140" height="30" as="alternateBounds" />
          </mxGeometry>
        </mxCell>
        <mxCell id="3OG4NW8DKBGacQzqwBZW-319" value="" style="shape=tableRow;horizontal=0;startSize=0;swimlaneHead=0;swimlaneBody=0;fillColor=none;collapsible=0;dropTarget=0;points=[[0,0.5],[1,0.5]];portConstraint=eastwest;top=0;left=0;right=0;bottom=0;" vertex="1" parent="3OG4NW8DKBGacQzqwBZW-303">
          <mxGeometry y="140" width="490" height="30" as="geometry" />
        </mxCell>
        <mxCell id="3OG4NW8DKBGacQzqwBZW-320" value="" style="shape=partialRectangle;connectable=0;fillColor=none;top=0;left=0;bottom=0;right=0;editable=1;overflow=hidden;" vertex="1" parent="3OG4NW8DKBGacQzqwBZW-319">
          <mxGeometry width="30" height="30" as="geometry">
            <mxRectangle width="30" height="30" as="alternateBounds" />
          </mxGeometry>
        </mxCell>
        <mxCell id="3OG4NW8DKBGacQzqwBZW-321" value="sub_dest_group_id" style="shape=partialRectangle;connectable=0;fillColor=none;top=0;left=0;bottom=0;right=0;align=left;spacingLeft=6;overflow=hidden;" vertex="1" parent="3OG4NW8DKBGacQzqwBZW-319">
          <mxGeometry x="30" width="120" height="30" as="geometry">
            <mxRectangle width="120" height="30" as="alternateBounds" />
          </mxGeometry>
        </mxCell>
        <mxCell id="3OG4NW8DKBGacQzqwBZW-322" value="bigint" style="shape=partialRectangle;connectable=0;fillColor=none;top=0;left=0;bottom=0;right=0;align=left;spacingLeft=6;overflow=hidden;" vertex="1" parent="3OG4NW8DKBGacQzqwBZW-319">
          <mxGeometry x="150" width="200" height="30" as="geometry">
            <mxRectangle width="200" height="30" as="alternateBounds" />
          </mxGeometry>
        </mxCell>
        <mxCell id="3OG4NW8DKBGacQzqwBZW-323" value="子级目标组ID" style="shape=partialRectangle;connectable=0;fillColor=none;top=0;left=0;bottom=0;right=0;align=left;spacingLeft=6;overflow=hidden;" vertex="1" parent="3OG4NW8DKBGacQzqwBZW-319">
          <mxGeometry x="350" width="140" height="30" as="geometry">
            <mxRectangle width="140" height="30" as="alternateBounds" />
          </mxGeometry>
        </mxCell>
        <mxCell id="3OG4NW8DKBGacQzqwBZW-324" style="shape=tableRow;horizontal=0;startSize=0;swimlaneHead=0;swimlaneBody=0;fillColor=none;collapsible=0;dropTarget=0;points=[[0,0.5],[1,0.5]];portConstraint=eastwest;top=0;left=0;right=0;bottom=0;" vertex="1" parent="3OG4NW8DKBGacQzqwBZW-303">
          <mxGeometry y="170" width="490" height="30" as="geometry" />
        </mxCell>
        <mxCell id="3OG4NW8DKBGacQzqwBZW-325" style="shape=partialRectangle;connectable=0;fillColor=none;top=0;left=0;bottom=0;right=0;editable=1;overflow=hidden;" vertex="1" parent="3OG4NW8DKBGacQzqwBZW-324">
          <mxGeometry width="30" height="30" as="geometry">
            <mxRectangle width="30" height="30" as="alternateBounds" />
          </mxGeometry>
        </mxCell>
        <mxCell id="3OG4NW8DKBGacQzqwBZW-326" value="created" style="shape=partialRectangle;connectable=0;fillColor=none;top=0;left=0;bottom=0;right=0;align=left;spacingLeft=6;overflow=hidden;" vertex="1" parent="3OG4NW8DKBGacQzqwBZW-324">
          <mxGeometry x="30" width="120" height="30" as="geometry">
            <mxRectangle width="120" height="30" as="alternateBounds" />
          </mxGeometry>
        </mxCell>
        <mxCell id="3OG4NW8DKBGacQzqwBZW-327" value="DATETIME&#xa;DEFAULT CURRENT_TIMESTAMP" style="shape=partialRectangle;connectable=0;fillColor=none;top=0;left=0;bottom=0;right=0;align=left;spacingLeft=6;overflow=hidden;" vertex="1" parent="3OG4NW8DKBGacQzqwBZW-324">
          <mxGeometry x="150" width="200" height="30" as="geometry">
            <mxRectangle width="200" height="30" as="alternateBounds" />
          </mxGeometry>
        </mxCell>
        <mxCell id="3OG4NW8DKBGacQzqwBZW-328" value="创建时间" style="shape=partialRectangle;connectable=0;fillColor=none;top=0;left=0;bottom=0;right=0;align=left;spacingLeft=6;overflow=hidden;" vertex="1" parent="3OG4NW8DKBGacQzqwBZW-324">
          <mxGeometry x="350" width="140" height="30" as="geometry">
            <mxRectangle width="140" height="30" as="alternateBounds" />
          </mxGeometry>
        </mxCell>
        <mxCell id="3OG4NW8DKBGacQzqwBZW-329" style="shape=tableRow;horizontal=0;startSize=0;swimlaneHead=0;swimlaneBody=0;fillColor=none;collapsible=0;dropTarget=0;points=[[0,0.5],[1,0.5]];portConstraint=eastwest;top=0;left=0;right=0;bottom=0;" vertex="1" parent="3OG4NW8DKBGacQzqwBZW-303">
          <mxGeometry y="200" width="490" height="40" as="geometry" />
        </mxCell>
        <mxCell id="3OG4NW8DKBGacQzqwBZW-330" style="shape=partialRectangle;connectable=0;fillColor=none;top=0;left=0;bottom=0;right=0;editable=1;overflow=hidden;" vertex="1" parent="3OG4NW8DKBGacQzqwBZW-329">
          <mxGeometry width="30" height="40" as="geometry">
            <mxRectangle width="30" height="40" as="alternateBounds" />
          </mxGeometry>
        </mxCell>
        <mxCell id="3OG4NW8DKBGacQzqwBZW-331" value="created_by" style="shape=partialRectangle;connectable=0;fillColor=none;top=0;left=0;bottom=0;right=0;align=left;spacingLeft=6;overflow=hidden;" vertex="1" parent="3OG4NW8DKBGacQzqwBZW-329">
          <mxGeometry x="30" width="120" height="40" as="geometry">
            <mxRectangle width="120" height="40" as="alternateBounds" />
          </mxGeometry>
        </mxCell>
        <mxCell id="3OG4NW8DKBGacQzqwBZW-332" value="bigint&#xa;default 0" style="shape=partialRectangle;connectable=0;fillColor=none;top=0;left=0;bottom=0;right=0;align=left;spacingLeft=6;overflow=hidden;" vertex="1" parent="3OG4NW8DKBGacQzqwBZW-329">
          <mxGeometry x="150" width="200" height="40" as="geometry">
            <mxRectangle width="200" height="40" as="alternateBounds" />
          </mxGeometry>
        </mxCell>
        <mxCell id="3OG4NW8DKBGacQzqwBZW-333" value="创建者ID" style="shape=partialRectangle;connectable=0;fillColor=none;top=0;left=0;bottom=0;right=0;align=left;spacingLeft=6;overflow=hidden;" vertex="1" parent="3OG4NW8DKBGacQzqwBZW-329">
          <mxGeometry x="350" width="140" height="40" as="geometry">
            <mxRectangle width="140" height="40" as="alternateBounds" />
          </mxGeometry>
        </mxCell>
        <mxCell id="3OG4NW8DKBGacQzqwBZW-334" style="shape=tableRow;horizontal=0;startSize=0;swimlaneHead=0;swimlaneBody=0;fillColor=none;collapsible=0;dropTarget=0;points=[[0,0.5],[1,0.5]];portConstraint=eastwest;top=0;left=0;right=0;bottom=0;" vertex="1" parent="3OG4NW8DKBGacQzqwBZW-303">
          <mxGeometry y="240" width="490" height="70" as="geometry" />
        </mxCell>
        <mxCell id="3OG4NW8DKBGacQzqwBZW-335" style="shape=partialRectangle;connectable=0;fillColor=none;top=0;left=0;bottom=0;right=0;editable=1;overflow=hidden;" vertex="1" parent="3OG4NW8DKBGacQzqwBZW-334">
          <mxGeometry width="30" height="70" as="geometry">
            <mxRectangle width="30" height="70" as="alternateBounds" />
          </mxGeometry>
        </mxCell>
        <mxCell id="3OG4NW8DKBGacQzqwBZW-336" value="updated" style="shape=partialRectangle;connectable=0;fillColor=none;top=0;left=0;bottom=0;right=0;align=left;spacingLeft=6;overflow=hidden;" vertex="1" parent="3OG4NW8DKBGacQzqwBZW-334">
          <mxGeometry x="30" width="120" height="70" as="geometry">
            <mxRectangle width="120" height="70" as="alternateBounds" />
          </mxGeometry>
        </mxCell>
        <mxCell id="3OG4NW8DKBGacQzqwBZW-337" value="DATETIME&#xa;DEFAULT CURRENT_TIMESTAMP &#xa;ON UPDATE &#xa;CURRENT_TIMESTAMP&#xa;" style="shape=partialRectangle;connectable=0;fillColor=none;top=0;left=0;bottom=0;right=0;align=left;spacingLeft=6;overflow=hidden;" vertex="1" parent="3OG4NW8DKBGacQzqwBZW-334">
          <mxGeometry x="150" width="200" height="70" as="geometry">
            <mxRectangle width="200" height="70" as="alternateBounds" />
          </mxGeometry>
        </mxCell>
        <mxCell id="3OG4NW8DKBGacQzqwBZW-338" value="更新时间" style="shape=partialRectangle;connectable=0;fillColor=none;top=0;left=0;bottom=0;right=0;align=left;spacingLeft=6;overflow=hidden;" vertex="1" parent="3OG4NW8DKBGacQzqwBZW-334">
          <mxGeometry x="350" width="140" height="70" as="geometry">
            <mxRectangle width="140" height="70" as="alternateBounds" />
          </mxGeometry>
        </mxCell>
        <mxCell id="3OG4NW8DKBGacQzqwBZW-339" style="shape=tableRow;horizontal=0;startSize=0;swimlaneHead=0;swimlaneBody=0;fillColor=none;collapsible=0;dropTarget=0;points=[[0,0.5],[1,0.5]];portConstraint=eastwest;top=0;left=0;right=0;bottom=0;" vertex="1" parent="3OG4NW8DKBGacQzqwBZW-303">
          <mxGeometry y="310" width="490" height="40" as="geometry" />
        </mxCell>
        <mxCell id="3OG4NW8DKBGacQzqwBZW-340" style="shape=partialRectangle;connectable=0;fillColor=none;top=0;left=0;bottom=0;right=0;editable=1;overflow=hidden;" vertex="1" parent="3OG4NW8DKBGacQzqwBZW-339">
          <mxGeometry width="30" height="40" as="geometry">
            <mxRectangle width="30" height="40" as="alternateBounds" />
          </mxGeometry>
        </mxCell>
        <mxCell id="3OG4NW8DKBGacQzqwBZW-341" value="updated_by" style="shape=partialRectangle;connectable=0;fillColor=none;top=0;left=0;bottom=0;right=0;align=left;spacingLeft=6;overflow=hidden;" vertex="1" parent="3OG4NW8DKBGacQzqwBZW-339">
          <mxGeometry x="30" width="120" height="40" as="geometry">
            <mxRectangle width="120" height="40" as="alternateBounds" />
          </mxGeometry>
        </mxCell>
        <mxCell id="3OG4NW8DKBGacQzqwBZW-342" value="bigint&#xa;default 0&#xa;" style="shape=partialRectangle;connectable=0;fillColor=none;top=0;left=0;bottom=0;right=0;align=left;spacingLeft=6;overflow=hidden;" vertex="1" parent="3OG4NW8DKBGacQzqwBZW-339">
          <mxGeometry x="150" width="200" height="40" as="geometry">
            <mxRectangle width="200" height="40" as="alternateBounds" />
          </mxGeometry>
        </mxCell>
        <mxCell id="3OG4NW8DKBGacQzqwBZW-343" value="更新者ID" style="shape=partialRectangle;connectable=0;fillColor=none;top=0;left=0;bottom=0;right=0;align=left;spacingLeft=6;overflow=hidden;" vertex="1" parent="3OG4NW8DKBGacQzqwBZW-339">
          <mxGeometry x="350" width="140" height="40" as="geometry">
            <mxRectangle width="140" height="40" as="alternateBounds" />
          </mxGeometry>
        </mxCell>
        <object label="dest_group" tags="" tooltip="普通表" id="3OG4NW8DKBGacQzqwBZW-344">
          <mxCell style="shape=table;startSize=30;container=1;collapsible=1;childLayout=tableLayout;fixedRows=1;rowLines=0;fontStyle=1;align=center;resizeLast=1;" vertex="1" parent="1">
            <mxGeometry x="1620" y="510" width="500" height="410" as="geometry">
              <mxRectangle x="40" y="40" width="120" height="30" as="alternateBounds" />
            </mxGeometry>
          </mxCell>
        </object>
        <mxCell id="3OG4NW8DKBGacQzqwBZW-345" value="" style="shape=tableRow;horizontal=0;startSize=0;swimlaneHead=0;swimlaneBody=0;fillColor=none;collapsible=0;dropTarget=0;points=[[0,0.5],[1,0.5]];portConstraint=eastwest;top=0;left=0;right=0;bottom=1;" vertex="1" parent="3OG4NW8DKBGacQzqwBZW-344">
          <mxGeometry y="30" width="500" height="50" as="geometry" />
        </mxCell>
        <mxCell id="3OG4NW8DKBGacQzqwBZW-346" value="PK" style="shape=partialRectangle;connectable=0;fillColor=none;top=0;left=0;bottom=0;right=0;fontStyle=1;overflow=hidden;" vertex="1" parent="3OG4NW8DKBGacQzqwBZW-345">
          <mxGeometry width="30" height="50" as="geometry">
            <mxRectangle width="30" height="50" as="alternateBounds" />
          </mxGeometry>
        </mxCell>
        <mxCell id="3OG4NW8DKBGacQzqwBZW-347" value="dest_group_id" style="shape=partialRectangle;connectable=0;fillColor=none;top=0;left=0;bottom=0;right=0;align=left;spacingLeft=6;fontStyle=5;overflow=hidden;" vertex="1" parent="3OG4NW8DKBGacQzqwBZW-345">
          <mxGeometry x="30" width="110" height="50" as="geometry">
            <mxRectangle width="110" height="50" as="alternateBounds" />
          </mxGeometry>
        </mxCell>
        <mxCell id="3OG4NW8DKBGacQzqwBZW-348" value="bigint&#xa;not null&#xa;auto_increment" style="shape=partialRectangle;connectable=0;fillColor=none;top=0;left=0;bottom=0;right=0;align=left;spacingLeft=6;fontStyle=5;overflow=hidden;" vertex="1" parent="3OG4NW8DKBGacQzqwBZW-345">
          <mxGeometry x="140" width="200" height="50" as="geometry">
            <mxRectangle width="200" height="50" as="alternateBounds" />
          </mxGeometry>
        </mxCell>
        <mxCell id="3OG4NW8DKBGacQzqwBZW-349" value="目标组ID" style="shape=partialRectangle;connectable=0;fillColor=none;top=0;left=0;bottom=0;right=0;align=left;spacingLeft=6;fontStyle=5;overflow=hidden;" vertex="1" parent="3OG4NW8DKBGacQzqwBZW-345">
          <mxGeometry x="340" width="160" height="50" as="geometry">
            <mxRectangle width="160" height="50" as="alternateBounds" />
          </mxGeometry>
        </mxCell>
        <mxCell id="3OG4NW8DKBGacQzqwBZW-350" value="" style="shape=tableRow;horizontal=0;startSize=0;swimlaneHead=0;swimlaneBody=0;fillColor=none;collapsible=0;dropTarget=0;points=[[0,0.5],[1,0.5]];portConstraint=eastwest;top=0;left=0;right=0;bottom=0;" vertex="1" parent="3OG4NW8DKBGacQzqwBZW-344">
          <mxGeometry y="80" width="500" height="30" as="geometry" />
        </mxCell>
        <mxCell id="3OG4NW8DKBGacQzqwBZW-351" value="" style="shape=partialRectangle;connectable=0;fillColor=none;top=0;left=0;bottom=0;right=0;editable=1;overflow=hidden;" vertex="1" parent="3OG4NW8DKBGacQzqwBZW-350">
          <mxGeometry width="30" height="30" as="geometry">
            <mxRectangle width="30" height="30" as="alternateBounds" />
          </mxGeometry>
        </mxCell>
        <mxCell id="3OG4NW8DKBGacQzqwBZW-352" value="name" style="shape=partialRectangle;connectable=0;fillColor=none;top=0;left=0;bottom=0;right=0;align=left;spacingLeft=6;overflow=hidden;" vertex="1" parent="3OG4NW8DKBGacQzqwBZW-350">
          <mxGeometry x="30" width="110" height="30" as="geometry">
            <mxRectangle width="110" height="30" as="alternateBounds" />
          </mxGeometry>
        </mxCell>
        <mxCell id="3OG4NW8DKBGacQzqwBZW-353" value="varchar(20)" style="shape=partialRectangle;connectable=0;fillColor=none;top=0;left=0;bottom=0;right=0;align=left;spacingLeft=6;overflow=hidden;" vertex="1" parent="3OG4NW8DKBGacQzqwBZW-350">
          <mxGeometry x="140" width="200" height="30" as="geometry">
            <mxRectangle width="200" height="30" as="alternateBounds" />
          </mxGeometry>
        </mxCell>
        <mxCell id="3OG4NW8DKBGacQzqwBZW-354" value="目标组名称" style="shape=partialRectangle;connectable=0;fillColor=none;top=0;left=0;bottom=0;right=0;align=left;spacingLeft=6;overflow=hidden;" vertex="1" parent="3OG4NW8DKBGacQzqwBZW-350">
          <mxGeometry x="340" width="160" height="30" as="geometry">
            <mxRectangle width="160" height="30" as="alternateBounds" />
          </mxGeometry>
        </mxCell>
        <mxCell id="3OG4NW8DKBGacQzqwBZW-355" value="" style="shape=tableRow;horizontal=0;startSize=0;swimlaneHead=0;swimlaneBody=0;fillColor=none;collapsible=0;dropTarget=0;points=[[0,0.5],[1,0.5]];portConstraint=eastwest;top=0;left=0;right=0;bottom=0;" vertex="1" parent="3OG4NW8DKBGacQzqwBZW-344">
          <mxGeometry y="110" width="500" height="30" as="geometry" />
        </mxCell>
        <mxCell id="3OG4NW8DKBGacQzqwBZW-356" value="" style="shape=partialRectangle;connectable=0;fillColor=none;top=0;left=0;bottom=0;right=0;editable=1;overflow=hidden;" vertex="1" parent="3OG4NW8DKBGacQzqwBZW-355">
          <mxGeometry width="30" height="30" as="geometry">
            <mxRectangle width="30" height="30" as="alternateBounds" />
          </mxGeometry>
        </mxCell>
        <mxCell id="3OG4NW8DKBGacQzqwBZW-357" value="par_id" style="shape=partialRectangle;connectable=0;fillColor=none;top=0;left=0;bottom=0;right=0;align=left;spacingLeft=6;overflow=hidden;" vertex="1" parent="3OG4NW8DKBGacQzqwBZW-355">
          <mxGeometry x="30" width="110" height="30" as="geometry">
            <mxRectangle width="110" height="30" as="alternateBounds" />
          </mxGeometry>
        </mxCell>
        <mxCell id="3OG4NW8DKBGacQzqwBZW-358" value="bigint" style="shape=partialRectangle;connectable=0;fillColor=none;top=0;left=0;bottom=0;right=0;align=left;spacingLeft=6;overflow=hidden;" vertex="1" parent="3OG4NW8DKBGacQzqwBZW-355">
          <mxGeometry x="140" width="200" height="30" as="geometry">
            <mxRectangle width="200" height="30" as="alternateBounds" />
          </mxGeometry>
        </mxCell>
        <mxCell id="3OG4NW8DKBGacQzqwBZW-359" value="上级id" style="shape=partialRectangle;connectable=0;fillColor=none;top=0;left=0;bottom=0;right=0;align=left;spacingLeft=6;overflow=hidden;" vertex="1" parent="3OG4NW8DKBGacQzqwBZW-355">
          <mxGeometry x="340" width="160" height="30" as="geometry">
            <mxRectangle width="160" height="30" as="alternateBounds" />
          </mxGeometry>
        </mxCell>
        <mxCell id="3OG4NW8DKBGacQzqwBZW-360" value="" style="shape=tableRow;horizontal=0;startSize=0;swimlaneHead=0;swimlaneBody=0;fillColor=none;collapsible=0;dropTarget=0;points=[[0,0.5],[1,0.5]];portConstraint=eastwest;top=0;left=0;right=0;bottom=0;" vertex="1" parent="3OG4NW8DKBGacQzqwBZW-344">
          <mxGeometry y="140" width="500" height="30" as="geometry" />
        </mxCell>
        <mxCell id="3OG4NW8DKBGacQzqwBZW-361" value="" style="shape=partialRectangle;connectable=0;fillColor=none;top=0;left=0;bottom=0;right=0;editable=1;overflow=hidden;" vertex="1" parent="3OG4NW8DKBGacQzqwBZW-360">
          <mxGeometry width="30" height="30" as="geometry">
            <mxRectangle width="30" height="30" as="alternateBounds" />
          </mxGeometry>
        </mxCell>
        <mxCell id="3OG4NW8DKBGacQzqwBZW-362" value="ower_id" style="shape=partialRectangle;connectable=0;fillColor=none;top=0;left=0;bottom=0;right=0;align=left;spacingLeft=6;overflow=hidden;" vertex="1" parent="3OG4NW8DKBGacQzqwBZW-360">
          <mxGeometry x="30" width="110" height="30" as="geometry">
            <mxRectangle width="110" height="30" as="alternateBounds" />
          </mxGeometry>
        </mxCell>
        <mxCell id="3OG4NW8DKBGacQzqwBZW-363" value="bigint" style="shape=partialRectangle;connectable=0;fillColor=none;top=0;left=0;bottom=0;right=0;align=left;spacingLeft=6;overflow=hidden;" vertex="1" parent="3OG4NW8DKBGacQzqwBZW-360">
          <mxGeometry x="140" width="200" height="30" as="geometry">
            <mxRectangle width="200" height="30" as="alternateBounds" />
          </mxGeometry>
        </mxCell>
        <mxCell id="3OG4NW8DKBGacQzqwBZW-364" value="指定告警组为属于子账号" style="shape=partialRectangle;connectable=0;fillColor=none;top=0;left=0;bottom=0;right=0;align=left;spacingLeft=6;overflow=hidden;" vertex="1" parent="3OG4NW8DKBGacQzqwBZW-360">
          <mxGeometry x="340" width="160" height="30" as="geometry">
            <mxRectangle width="160" height="30" as="alternateBounds" />
          </mxGeometry>
        </mxCell>
        <mxCell id="3OG4NW8DKBGacQzqwBZW-432" style="shape=tableRow;horizontal=0;startSize=0;swimlaneHead=0;swimlaneBody=0;fillColor=none;collapsible=0;dropTarget=0;points=[[0,0.5],[1,0.5]];portConstraint=eastwest;top=0;left=0;right=0;bottom=0;" vertex="1" parent="3OG4NW8DKBGacQzqwBZW-344">
          <mxGeometry y="170" width="500" height="30" as="geometry" />
        </mxCell>
        <mxCell id="3OG4NW8DKBGacQzqwBZW-433" style="shape=partialRectangle;connectable=0;fillColor=none;top=0;left=0;bottom=0;right=0;editable=1;overflow=hidden;" vertex="1" parent="3OG4NW8DKBGacQzqwBZW-432">
          <mxGeometry width="30" height="30" as="geometry">
            <mxRectangle width="30" height="30" as="alternateBounds" />
          </mxGeometry>
        </mxCell>
        <mxCell id="3OG4NW8DKBGacQzqwBZW-434" value="charging" style="shape=partialRectangle;connectable=0;fillColor=none;top=0;left=0;bottom=0;right=0;align=left;spacingLeft=6;overflow=hidden;" vertex="1" parent="3OG4NW8DKBGacQzqwBZW-432">
          <mxGeometry x="30" width="110" height="30" as="geometry">
            <mxRectangle width="110" height="30" as="alternateBounds" />
          </mxGeometry>
        </mxCell>
        <mxCell id="3OG4NW8DKBGacQzqwBZW-435" value="varchar(5)" style="shape=partialRectangle;connectable=0;fillColor=none;top=0;left=0;bottom=0;right=0;align=left;spacingLeft=6;overflow=hidden;" vertex="1" parent="3OG4NW8DKBGacQzqwBZW-432">
          <mxGeometry x="140" width="200" height="30" as="geometry">
            <mxRectangle width="200" height="30" as="alternateBounds" />
          </mxGeometry>
        </mxCell>
        <mxCell id="3OG4NW8DKBGacQzqwBZW-436" value="是否启用计费" style="shape=partialRectangle;connectable=0;fillColor=none;top=0;left=0;bottom=0;right=0;align=left;spacingLeft=6;overflow=hidden;" vertex="1" parent="3OG4NW8DKBGacQzqwBZW-432">
          <mxGeometry x="340" width="160" height="30" as="geometry">
            <mxRectangle width="160" height="30" as="alternateBounds" />
          </mxGeometry>
        </mxCell>
        <mxCell id="3OG4NW8DKBGacQzqwBZW-437" style="shape=tableRow;horizontal=0;startSize=0;swimlaneHead=0;swimlaneBody=0;fillColor=none;collapsible=0;dropTarget=0;points=[[0,0.5],[1,0.5]];portConstraint=eastwest;top=0;left=0;right=0;bottom=0;" vertex="1" parent="3OG4NW8DKBGacQzqwBZW-344">
          <mxGeometry y="200" width="500" height="30" as="geometry" />
        </mxCell>
        <mxCell id="3OG4NW8DKBGacQzqwBZW-438" style="shape=partialRectangle;connectable=0;fillColor=none;top=0;left=0;bottom=0;right=0;editable=1;overflow=hidden;" vertex="1" parent="3OG4NW8DKBGacQzqwBZW-437">
          <mxGeometry width="30" height="30" as="geometry">
            <mxRectangle width="30" height="30" as="alternateBounds" />
          </mxGeometry>
        </mxCell>
        <mxCell id="3OG4NW8DKBGacQzqwBZW-439" value="used" style="shape=partialRectangle;connectable=0;fillColor=none;top=0;left=0;bottom=0;right=0;align=left;spacingLeft=6;overflow=hidden;" vertex="1" parent="3OG4NW8DKBGacQzqwBZW-437">
          <mxGeometry x="30" width="110" height="30" as="geometry">
            <mxRectangle width="110" height="30" as="alternateBounds" />
          </mxGeometry>
        </mxCell>
        <mxCell id="3OG4NW8DKBGacQzqwBZW-440" value="varchar(1)" style="shape=partialRectangle;connectable=0;fillColor=none;top=0;left=0;bottom=0;right=0;align=left;spacingLeft=6;overflow=hidden;" vertex="1" parent="3OG4NW8DKBGacQzqwBZW-437">
          <mxGeometry x="140" width="200" height="30" as="geometry">
            <mxRectangle width="200" height="30" as="alternateBounds" />
          </mxGeometry>
        </mxCell>
        <mxCell id="3OG4NW8DKBGacQzqwBZW-441" value="是否启用目标组" style="shape=partialRectangle;connectable=0;fillColor=none;top=0;left=0;bottom=0;right=0;align=left;spacingLeft=6;overflow=hidden;" vertex="1" parent="3OG4NW8DKBGacQzqwBZW-437">
          <mxGeometry x="340" width="160" height="30" as="geometry">
            <mxRectangle width="160" height="30" as="alternateBounds" />
          </mxGeometry>
        </mxCell>
        <mxCell id="3OG4NW8DKBGacQzqwBZW-365" style="shape=tableRow;horizontal=0;startSize=0;swimlaneHead=0;swimlaneBody=0;fillColor=none;collapsible=0;dropTarget=0;points=[[0,0.5],[1,0.5]];portConstraint=eastwest;top=0;left=0;right=0;bottom=0;" vertex="1" parent="3OG4NW8DKBGacQzqwBZW-344">
          <mxGeometry y="230" width="500" height="30" as="geometry" />
        </mxCell>
        <mxCell id="3OG4NW8DKBGacQzqwBZW-366" style="shape=partialRectangle;connectable=0;fillColor=none;top=0;left=0;bottom=0;right=0;editable=1;overflow=hidden;" vertex="1" parent="3OG4NW8DKBGacQzqwBZW-365">
          <mxGeometry width="30" height="30" as="geometry">
            <mxRectangle width="30" height="30" as="alternateBounds" />
          </mxGeometry>
        </mxCell>
        <mxCell id="3OG4NW8DKBGacQzqwBZW-367" value="created" style="shape=partialRectangle;connectable=0;fillColor=none;top=0;left=0;bottom=0;right=0;align=left;spacingLeft=6;overflow=hidden;" vertex="1" parent="3OG4NW8DKBGacQzqwBZW-365">
          <mxGeometry x="30" width="110" height="30" as="geometry">
            <mxRectangle width="110" height="30" as="alternateBounds" />
          </mxGeometry>
        </mxCell>
        <mxCell id="3OG4NW8DKBGacQzqwBZW-368" value="DATETIME&#xa;DEFAULT CURRENT_TIMESTAMP" style="shape=partialRectangle;connectable=0;fillColor=none;top=0;left=0;bottom=0;right=0;align=left;spacingLeft=6;overflow=hidden;" vertex="1" parent="3OG4NW8DKBGacQzqwBZW-365">
          <mxGeometry x="140" width="200" height="30" as="geometry">
            <mxRectangle width="200" height="30" as="alternateBounds" />
          </mxGeometry>
        </mxCell>
        <mxCell id="3OG4NW8DKBGacQzqwBZW-369" value="创建时间" style="shape=partialRectangle;connectable=0;fillColor=none;top=0;left=0;bottom=0;right=0;align=left;spacingLeft=6;overflow=hidden;" vertex="1" parent="3OG4NW8DKBGacQzqwBZW-365">
          <mxGeometry x="340" width="160" height="30" as="geometry">
            <mxRectangle width="160" height="30" as="alternateBounds" />
          </mxGeometry>
        </mxCell>
        <mxCell id="3OG4NW8DKBGacQzqwBZW-370" style="shape=tableRow;horizontal=0;startSize=0;swimlaneHead=0;swimlaneBody=0;fillColor=none;collapsible=0;dropTarget=0;points=[[0,0.5],[1,0.5]];portConstraint=eastwest;top=0;left=0;right=0;bottom=0;" vertex="1" parent="3OG4NW8DKBGacQzqwBZW-344">
          <mxGeometry y="260" width="500" height="40" as="geometry" />
        </mxCell>
        <mxCell id="3OG4NW8DKBGacQzqwBZW-371" style="shape=partialRectangle;connectable=0;fillColor=none;top=0;left=0;bottom=0;right=0;editable=1;overflow=hidden;" vertex="1" parent="3OG4NW8DKBGacQzqwBZW-370">
          <mxGeometry width="30" height="40" as="geometry">
            <mxRectangle width="30" height="40" as="alternateBounds" />
          </mxGeometry>
        </mxCell>
        <mxCell id="3OG4NW8DKBGacQzqwBZW-372" value="created_by" style="shape=partialRectangle;connectable=0;fillColor=none;top=0;left=0;bottom=0;right=0;align=left;spacingLeft=6;overflow=hidden;" vertex="1" parent="3OG4NW8DKBGacQzqwBZW-370">
          <mxGeometry x="30" width="110" height="40" as="geometry">
            <mxRectangle width="110" height="40" as="alternateBounds" />
          </mxGeometry>
        </mxCell>
        <mxCell id="3OG4NW8DKBGacQzqwBZW-373" value="bigint&#xa;default 0" style="shape=partialRectangle;connectable=0;fillColor=none;top=0;left=0;bottom=0;right=0;align=left;spacingLeft=6;overflow=hidden;" vertex="1" parent="3OG4NW8DKBGacQzqwBZW-370">
          <mxGeometry x="140" width="200" height="40" as="geometry">
            <mxRectangle width="200" height="40" as="alternateBounds" />
          </mxGeometry>
        </mxCell>
        <mxCell id="3OG4NW8DKBGacQzqwBZW-374" value="创建者ID" style="shape=partialRectangle;connectable=0;fillColor=none;top=0;left=0;bottom=0;right=0;align=left;spacingLeft=6;overflow=hidden;" vertex="1" parent="3OG4NW8DKBGacQzqwBZW-370">
          <mxGeometry x="340" width="160" height="40" as="geometry">
            <mxRectangle width="160" height="40" as="alternateBounds" />
          </mxGeometry>
        </mxCell>
        <mxCell id="3OG4NW8DKBGacQzqwBZW-375" style="shape=tableRow;horizontal=0;startSize=0;swimlaneHead=0;swimlaneBody=0;fillColor=none;collapsible=0;dropTarget=0;points=[[0,0.5],[1,0.5]];portConstraint=eastwest;top=0;left=0;right=0;bottom=0;" vertex="1" parent="3OG4NW8DKBGacQzqwBZW-344">
          <mxGeometry y="300" width="500" height="70" as="geometry" />
        </mxCell>
        <mxCell id="3OG4NW8DKBGacQzqwBZW-376" style="shape=partialRectangle;connectable=0;fillColor=none;top=0;left=0;bottom=0;right=0;editable=1;overflow=hidden;" vertex="1" parent="3OG4NW8DKBGacQzqwBZW-375">
          <mxGeometry width="30" height="70" as="geometry">
            <mxRectangle width="30" height="70" as="alternateBounds" />
          </mxGeometry>
        </mxCell>
        <mxCell id="3OG4NW8DKBGacQzqwBZW-377" value="updated" style="shape=partialRectangle;connectable=0;fillColor=none;top=0;left=0;bottom=0;right=0;align=left;spacingLeft=6;overflow=hidden;" vertex="1" parent="3OG4NW8DKBGacQzqwBZW-375">
          <mxGeometry x="30" width="110" height="70" as="geometry">
            <mxRectangle width="110" height="70" as="alternateBounds" />
          </mxGeometry>
        </mxCell>
        <mxCell id="3OG4NW8DKBGacQzqwBZW-378" value="DATETIME&#xa;DEFAULT CURRENT_TIMESTAMP &#xa;ON UPDATE &#xa;CURRENT_TIMESTAMP&#xa;" style="shape=partialRectangle;connectable=0;fillColor=none;top=0;left=0;bottom=0;right=0;align=left;spacingLeft=6;overflow=hidden;" vertex="1" parent="3OG4NW8DKBGacQzqwBZW-375">
          <mxGeometry x="140" width="200" height="70" as="geometry">
            <mxRectangle width="200" height="70" as="alternateBounds" />
          </mxGeometry>
        </mxCell>
        <mxCell id="3OG4NW8DKBGacQzqwBZW-379" value="更新时间" style="shape=partialRectangle;connectable=0;fillColor=none;top=0;left=0;bottom=0;right=0;align=left;spacingLeft=6;overflow=hidden;" vertex="1" parent="3OG4NW8DKBGacQzqwBZW-375">
          <mxGeometry x="340" width="160" height="70" as="geometry">
            <mxRectangle width="160" height="70" as="alternateBounds" />
          </mxGeometry>
        </mxCell>
        <mxCell id="3OG4NW8DKBGacQzqwBZW-380" style="shape=tableRow;horizontal=0;startSize=0;swimlaneHead=0;swimlaneBody=0;fillColor=none;collapsible=0;dropTarget=0;points=[[0,0.5],[1,0.5]];portConstraint=eastwest;top=0;left=0;right=0;bottom=0;" vertex="1" parent="3OG4NW8DKBGacQzqwBZW-344">
          <mxGeometry y="370" width="500" height="40" as="geometry" />
        </mxCell>
        <mxCell id="3OG4NW8DKBGacQzqwBZW-381" style="shape=partialRectangle;connectable=0;fillColor=none;top=0;left=0;bottom=0;right=0;editable=1;overflow=hidden;" vertex="1" parent="3OG4NW8DKBGacQzqwBZW-380">
          <mxGeometry width="30" height="40" as="geometry">
            <mxRectangle width="30" height="40" as="alternateBounds" />
          </mxGeometry>
        </mxCell>
        <mxCell id="3OG4NW8DKBGacQzqwBZW-382" value="updated_by" style="shape=partialRectangle;connectable=0;fillColor=none;top=0;left=0;bottom=0;right=0;align=left;spacingLeft=6;overflow=hidden;" vertex="1" parent="3OG4NW8DKBGacQzqwBZW-380">
          <mxGeometry x="30" width="110" height="40" as="geometry">
            <mxRectangle width="110" height="40" as="alternateBounds" />
          </mxGeometry>
        </mxCell>
        <mxCell id="3OG4NW8DKBGacQzqwBZW-383" value="bigint&#xa;default 0&#xa;" style="shape=partialRectangle;connectable=0;fillColor=none;top=0;left=0;bottom=0;right=0;align=left;spacingLeft=6;overflow=hidden;" vertex="1" parent="3OG4NW8DKBGacQzqwBZW-380">
          <mxGeometry x="140" width="200" height="40" as="geometry">
            <mxRectangle width="200" height="40" as="alternateBounds" />
          </mxGeometry>
        </mxCell>
        <mxCell id="3OG4NW8DKBGacQzqwBZW-384" value="更新者ID" style="shape=partialRectangle;connectable=0;fillColor=none;top=0;left=0;bottom=0;right=0;align=left;spacingLeft=6;overflow=hidden;" vertex="1" parent="3OG4NW8DKBGacQzqwBZW-380">
          <mxGeometry x="340" width="160" height="40" as="geometry">
            <mxRectangle width="160" height="40" as="alternateBounds" />
          </mxGeometry>
        </mxCell>
        <object label="destination" tags="" tooltip="普通表" id="3OG4NW8DKBGacQzqwBZW-385">
          <mxCell style="shape=table;startSize=30;container=1;collapsible=1;childLayout=tableLayout;fixedRows=1;rowLines=0;fontStyle=1;align=center;resizeLast=1;" vertex="1" parent="1">
            <mxGeometry x="1150" y="510" width="430" height="320" as="geometry">
              <mxRectangle x="40" y="40" width="120" height="30" as="alternateBounds" />
            </mxGeometry>
          </mxCell>
        </object>
        <mxCell id="3OG4NW8DKBGacQzqwBZW-386" value="" style="shape=tableRow;horizontal=0;startSize=0;swimlaneHead=0;swimlaneBody=0;fillColor=none;collapsible=0;dropTarget=0;points=[[0,0.5],[1,0.5]];portConstraint=eastwest;top=0;left=0;right=0;bottom=1;" vertex="1" parent="3OG4NW8DKBGacQzqwBZW-385">
          <mxGeometry y="30" width="430" height="50" as="geometry" />
        </mxCell>
        <mxCell id="3OG4NW8DKBGacQzqwBZW-387" value="PK" style="shape=partialRectangle;connectable=0;fillColor=none;top=0;left=0;bottom=0;right=0;fontStyle=1;overflow=hidden;" vertex="1" parent="3OG4NW8DKBGacQzqwBZW-386">
          <mxGeometry width="30" height="50" as="geometry">
            <mxRectangle width="30" height="50" as="alternateBounds" />
          </mxGeometry>
        </mxCell>
        <mxCell id="3OG4NW8DKBGacQzqwBZW-388" value="dest_id" style="shape=partialRectangle;connectable=0;fillColor=none;top=0;left=0;bottom=0;right=0;align=left;spacingLeft=6;fontStyle=5;overflow=hidden;" vertex="1" parent="3OG4NW8DKBGacQzqwBZW-386">
          <mxGeometry x="30" width="110" height="50" as="geometry">
            <mxRectangle width="110" height="50" as="alternateBounds" />
          </mxGeometry>
        </mxCell>
        <mxCell id="3OG4NW8DKBGacQzqwBZW-389" value="bigint&#xa;not null&#xa;auto_increment" style="shape=partialRectangle;connectable=0;fillColor=none;top=0;left=0;bottom=0;right=0;align=left;spacingLeft=6;fontStyle=5;overflow=hidden;" vertex="1" parent="3OG4NW8DKBGacQzqwBZW-386">
          <mxGeometry x="140" width="200" height="50" as="geometry">
            <mxRectangle width="200" height="50" as="alternateBounds" />
          </mxGeometry>
        </mxCell>
        <mxCell id="3OG4NW8DKBGacQzqwBZW-390" value="目标信息ID" style="shape=partialRectangle;connectable=0;fillColor=none;top=0;left=0;bottom=0;right=0;align=left;spacingLeft=6;fontStyle=5;overflow=hidden;" vertex="1" parent="3OG4NW8DKBGacQzqwBZW-386">
          <mxGeometry x="340" width="90" height="50" as="geometry">
            <mxRectangle width="90" height="50" as="alternateBounds" />
          </mxGeometry>
        </mxCell>
        <mxCell id="3OG4NW8DKBGacQzqwBZW-391" value="" style="shape=tableRow;horizontal=0;startSize=0;swimlaneHead=0;swimlaneBody=0;fillColor=none;collapsible=0;dropTarget=0;points=[[0,0.5],[1,0.5]];portConstraint=eastwest;top=0;left=0;right=0;bottom=0;" vertex="1" parent="3OG4NW8DKBGacQzqwBZW-385">
          <mxGeometry y="80" width="430" height="30" as="geometry" />
        </mxCell>
        <mxCell id="3OG4NW8DKBGacQzqwBZW-392" value="" style="shape=partialRectangle;connectable=0;fillColor=none;top=0;left=0;bottom=0;right=0;editable=1;overflow=hidden;" vertex="1" parent="3OG4NW8DKBGacQzqwBZW-391">
          <mxGeometry width="30" height="30" as="geometry">
            <mxRectangle width="30" height="30" as="alternateBounds" />
          </mxGeometry>
        </mxCell>
        <mxCell id="3OG4NW8DKBGacQzqwBZW-393" value="name" style="shape=partialRectangle;connectable=0;fillColor=none;top=0;left=0;bottom=0;right=0;align=left;spacingLeft=6;overflow=hidden;" vertex="1" parent="3OG4NW8DKBGacQzqwBZW-391">
          <mxGeometry x="30" width="110" height="30" as="geometry">
            <mxRectangle width="110" height="30" as="alternateBounds" />
          </mxGeometry>
        </mxCell>
        <mxCell id="3OG4NW8DKBGacQzqwBZW-394" value="varchar(50)" style="shape=partialRectangle;connectable=0;fillColor=none;top=0;left=0;bottom=0;right=0;align=left;spacingLeft=6;overflow=hidden;" vertex="1" parent="3OG4NW8DKBGacQzqwBZW-391">
          <mxGeometry x="140" width="200" height="30" as="geometry">
            <mxRectangle width="200" height="30" as="alternateBounds" />
          </mxGeometry>
        </mxCell>
        <mxCell id="3OG4NW8DKBGacQzqwBZW-395" value="通知目标名称" style="shape=partialRectangle;connectable=0;fillColor=none;top=0;left=0;bottom=0;right=0;align=left;spacingLeft=6;overflow=hidden;" vertex="1" parent="3OG4NW8DKBGacQzqwBZW-391">
          <mxGeometry x="340" width="90" height="30" as="geometry">
            <mxRectangle width="90" height="30" as="alternateBounds" />
          </mxGeometry>
        </mxCell>
        <mxCell id="3OG4NW8DKBGacQzqwBZW-396" value="" style="shape=tableRow;horizontal=0;startSize=0;swimlaneHead=0;swimlaneBody=0;fillColor=none;collapsible=0;dropTarget=0;points=[[0,0.5],[1,0.5]];portConstraint=eastwest;top=0;left=0;right=0;bottom=0;" vertex="1" parent="3OG4NW8DKBGacQzqwBZW-385">
          <mxGeometry y="110" width="430" height="30" as="geometry" />
        </mxCell>
        <mxCell id="3OG4NW8DKBGacQzqwBZW-397" value="" style="shape=partialRectangle;connectable=0;fillColor=none;top=0;left=0;bottom=0;right=0;editable=1;overflow=hidden;" vertex="1" parent="3OG4NW8DKBGacQzqwBZW-396">
          <mxGeometry width="30" height="30" as="geometry">
            <mxRectangle width="30" height="30" as="alternateBounds" />
          </mxGeometry>
        </mxCell>
        <mxCell id="3OG4NW8DKBGacQzqwBZW-398" value="value" style="shape=partialRectangle;connectable=0;fillColor=none;top=0;left=0;bottom=0;right=0;align=left;spacingLeft=6;overflow=hidden;" vertex="1" parent="3OG4NW8DKBGacQzqwBZW-396">
          <mxGeometry x="30" width="110" height="30" as="geometry">
            <mxRectangle width="110" height="30" as="alternateBounds" />
          </mxGeometry>
        </mxCell>
        <mxCell id="3OG4NW8DKBGacQzqwBZW-399" value="varchar(50)" style="shape=partialRectangle;connectable=0;fillColor=none;top=0;left=0;bottom=0;right=0;align=left;spacingLeft=6;overflow=hidden;" vertex="1" parent="3OG4NW8DKBGacQzqwBZW-396">
          <mxGeometry x="140" width="200" height="30" as="geometry">
            <mxRectangle width="200" height="30" as="alternateBounds" />
          </mxGeometry>
        </mxCell>
        <mxCell id="3OG4NW8DKBGacQzqwBZW-400" value="通知目标值" style="shape=partialRectangle;connectable=0;fillColor=none;top=0;left=0;bottom=0;right=0;align=left;spacingLeft=6;overflow=hidden;" vertex="1" parent="3OG4NW8DKBGacQzqwBZW-396">
          <mxGeometry x="340" width="90" height="30" as="geometry">
            <mxRectangle width="90" height="30" as="alternateBounds" />
          </mxGeometry>
        </mxCell>
        <mxCell id="3OG4NW8DKBGacQzqwBZW-406" style="shape=tableRow;horizontal=0;startSize=0;swimlaneHead=0;swimlaneBody=0;fillColor=none;collapsible=0;dropTarget=0;points=[[0,0.5],[1,0.5]];portConstraint=eastwest;top=0;left=0;right=0;bottom=0;" vertex="1" parent="3OG4NW8DKBGacQzqwBZW-385">
          <mxGeometry y="140" width="430" height="30" as="geometry" />
        </mxCell>
        <mxCell id="3OG4NW8DKBGacQzqwBZW-407" style="shape=partialRectangle;connectable=0;fillColor=none;top=0;left=0;bottom=0;right=0;editable=1;overflow=hidden;" vertex="1" parent="3OG4NW8DKBGacQzqwBZW-406">
          <mxGeometry width="30" height="30" as="geometry">
            <mxRectangle width="30" height="30" as="alternateBounds" />
          </mxGeometry>
        </mxCell>
        <mxCell id="3OG4NW8DKBGacQzqwBZW-408" value="created" style="shape=partialRectangle;connectable=0;fillColor=none;top=0;left=0;bottom=0;right=0;align=left;spacingLeft=6;overflow=hidden;" vertex="1" parent="3OG4NW8DKBGacQzqwBZW-406">
          <mxGeometry x="30" width="110" height="30" as="geometry">
            <mxRectangle width="110" height="30" as="alternateBounds" />
          </mxGeometry>
        </mxCell>
        <mxCell id="3OG4NW8DKBGacQzqwBZW-409" value="DATETIME&#xa;DEFAULT CURRENT_TIMESTAMP" style="shape=partialRectangle;connectable=0;fillColor=none;top=0;left=0;bottom=0;right=0;align=left;spacingLeft=6;overflow=hidden;" vertex="1" parent="3OG4NW8DKBGacQzqwBZW-406">
          <mxGeometry x="140" width="200" height="30" as="geometry">
            <mxRectangle width="200" height="30" as="alternateBounds" />
          </mxGeometry>
        </mxCell>
        <mxCell id="3OG4NW8DKBGacQzqwBZW-410" value="创建时间" style="shape=partialRectangle;connectable=0;fillColor=none;top=0;left=0;bottom=0;right=0;align=left;spacingLeft=6;overflow=hidden;" vertex="1" parent="3OG4NW8DKBGacQzqwBZW-406">
          <mxGeometry x="340" width="90" height="30" as="geometry">
            <mxRectangle width="90" height="30" as="alternateBounds" />
          </mxGeometry>
        </mxCell>
        <mxCell id="3OG4NW8DKBGacQzqwBZW-411" style="shape=tableRow;horizontal=0;startSize=0;swimlaneHead=0;swimlaneBody=0;fillColor=none;collapsible=0;dropTarget=0;points=[[0,0.5],[1,0.5]];portConstraint=eastwest;top=0;left=0;right=0;bottom=0;" vertex="1" parent="3OG4NW8DKBGacQzqwBZW-385">
          <mxGeometry y="170" width="430" height="40" as="geometry" />
        </mxCell>
        <mxCell id="3OG4NW8DKBGacQzqwBZW-412" style="shape=partialRectangle;connectable=0;fillColor=none;top=0;left=0;bottom=0;right=0;editable=1;overflow=hidden;" vertex="1" parent="3OG4NW8DKBGacQzqwBZW-411">
          <mxGeometry width="30" height="40" as="geometry">
            <mxRectangle width="30" height="40" as="alternateBounds" />
          </mxGeometry>
        </mxCell>
        <mxCell id="3OG4NW8DKBGacQzqwBZW-413" value="created_by" style="shape=partialRectangle;connectable=0;fillColor=none;top=0;left=0;bottom=0;right=0;align=left;spacingLeft=6;overflow=hidden;" vertex="1" parent="3OG4NW8DKBGacQzqwBZW-411">
          <mxGeometry x="30" width="110" height="40" as="geometry">
            <mxRectangle width="110" height="40" as="alternateBounds" />
          </mxGeometry>
        </mxCell>
        <mxCell id="3OG4NW8DKBGacQzqwBZW-414" value="bigint&#xa;default 0" style="shape=partialRectangle;connectable=0;fillColor=none;top=0;left=0;bottom=0;right=0;align=left;spacingLeft=6;overflow=hidden;" vertex="1" parent="3OG4NW8DKBGacQzqwBZW-411">
          <mxGeometry x="140" width="200" height="40" as="geometry">
            <mxRectangle width="200" height="40" as="alternateBounds" />
          </mxGeometry>
        </mxCell>
        <mxCell id="3OG4NW8DKBGacQzqwBZW-415" value="创建者ID" style="shape=partialRectangle;connectable=0;fillColor=none;top=0;left=0;bottom=0;right=0;align=left;spacingLeft=6;overflow=hidden;" vertex="1" parent="3OG4NW8DKBGacQzqwBZW-411">
          <mxGeometry x="340" width="90" height="40" as="geometry">
            <mxRectangle width="90" height="40" as="alternateBounds" />
          </mxGeometry>
        </mxCell>
        <mxCell id="3OG4NW8DKBGacQzqwBZW-416" style="shape=tableRow;horizontal=0;startSize=0;swimlaneHead=0;swimlaneBody=0;fillColor=none;collapsible=0;dropTarget=0;points=[[0,0.5],[1,0.5]];portConstraint=eastwest;top=0;left=0;right=0;bottom=0;" vertex="1" parent="3OG4NW8DKBGacQzqwBZW-385">
          <mxGeometry y="210" width="430" height="70" as="geometry" />
        </mxCell>
        <mxCell id="3OG4NW8DKBGacQzqwBZW-417" style="shape=partialRectangle;connectable=0;fillColor=none;top=0;left=0;bottom=0;right=0;editable=1;overflow=hidden;" vertex="1" parent="3OG4NW8DKBGacQzqwBZW-416">
          <mxGeometry width="30" height="70" as="geometry">
            <mxRectangle width="30" height="70" as="alternateBounds" />
          </mxGeometry>
        </mxCell>
        <mxCell id="3OG4NW8DKBGacQzqwBZW-418" value="updated" style="shape=partialRectangle;connectable=0;fillColor=none;top=0;left=0;bottom=0;right=0;align=left;spacingLeft=6;overflow=hidden;" vertex="1" parent="3OG4NW8DKBGacQzqwBZW-416">
          <mxGeometry x="30" width="110" height="70" as="geometry">
            <mxRectangle width="110" height="70" as="alternateBounds" />
          </mxGeometry>
        </mxCell>
        <mxCell id="3OG4NW8DKBGacQzqwBZW-419" value="DATETIME&#xa;DEFAULT CURRENT_TIMESTAMP &#xa;ON UPDATE &#xa;CURRENT_TIMESTAMP&#xa;" style="shape=partialRectangle;connectable=0;fillColor=none;top=0;left=0;bottom=0;right=0;align=left;spacingLeft=6;overflow=hidden;" vertex="1" parent="3OG4NW8DKBGacQzqwBZW-416">
          <mxGeometry x="140" width="200" height="70" as="geometry">
            <mxRectangle width="200" height="70" as="alternateBounds" />
          </mxGeometry>
        </mxCell>
        <mxCell id="3OG4NW8DKBGacQzqwBZW-420" value="更新时间" style="shape=partialRectangle;connectable=0;fillColor=none;top=0;left=0;bottom=0;right=0;align=left;spacingLeft=6;overflow=hidden;" vertex="1" parent="3OG4NW8DKBGacQzqwBZW-416">
          <mxGeometry x="340" width="90" height="70" as="geometry">
            <mxRectangle width="90" height="70" as="alternateBounds" />
          </mxGeometry>
        </mxCell>
        <mxCell id="3OG4NW8DKBGacQzqwBZW-421" style="shape=tableRow;horizontal=0;startSize=0;swimlaneHead=0;swimlaneBody=0;fillColor=none;collapsible=0;dropTarget=0;points=[[0,0.5],[1,0.5]];portConstraint=eastwest;top=0;left=0;right=0;bottom=0;" vertex="1" parent="3OG4NW8DKBGacQzqwBZW-385">
          <mxGeometry y="280" width="430" height="40" as="geometry" />
        </mxCell>
        <mxCell id="3OG4NW8DKBGacQzqwBZW-422" style="shape=partialRectangle;connectable=0;fillColor=none;top=0;left=0;bottom=0;right=0;editable=1;overflow=hidden;" vertex="1" parent="3OG4NW8DKBGacQzqwBZW-421">
          <mxGeometry width="30" height="40" as="geometry">
            <mxRectangle width="30" height="40" as="alternateBounds" />
          </mxGeometry>
        </mxCell>
        <mxCell id="3OG4NW8DKBGacQzqwBZW-423" value="updated_by" style="shape=partialRectangle;connectable=0;fillColor=none;top=0;left=0;bottom=0;right=0;align=left;spacingLeft=6;overflow=hidden;" vertex="1" parent="3OG4NW8DKBGacQzqwBZW-421">
          <mxGeometry x="30" width="110" height="40" as="geometry">
            <mxRectangle width="110" height="40" as="alternateBounds" />
          </mxGeometry>
        </mxCell>
        <mxCell id="3OG4NW8DKBGacQzqwBZW-424" value="bigint&#xa;default 0&#xa;" style="shape=partialRectangle;connectable=0;fillColor=none;top=0;left=0;bottom=0;right=0;align=left;spacingLeft=6;overflow=hidden;" vertex="1" parent="3OG4NW8DKBGacQzqwBZW-421">
          <mxGeometry x="140" width="200" height="40" as="geometry">
            <mxRectangle width="200" height="40" as="alternateBounds" />
          </mxGeometry>
        </mxCell>
        <mxCell id="3OG4NW8DKBGacQzqwBZW-425" value="更新者ID" style="shape=partialRectangle;connectable=0;fillColor=none;top=0;left=0;bottom=0;right=0;align=left;spacingLeft=6;overflow=hidden;" vertex="1" parent="3OG4NW8DKBGacQzqwBZW-421">
          <mxGeometry x="340" width="90" height="40" as="geometry">
            <mxRectangle width="90" height="40" as="alternateBounds" />
          </mxGeometry>
        </mxCell>
        <mxCell id="3OG4NW8DKBGacQzqwBZW-426" style="edgeStyle=orthogonalEdgeStyle;rounded=0;orthogonalLoop=1;jettySize=auto;html=1;exitX=1;exitY=0.5;exitDx=0;exitDy=0;" edge="1" parent="1" source="3OG4NW8DKBGacQzqwBZW-2" target="3OG4NW8DKBGacQzqwBZW-58">
          <mxGeometry relative="1" as="geometry" />
        </mxCell>
      </root>
    </mxGraphModel>
  </diagram>
</mxfile>
